<?xml version="1.0" encoding="UTF-8" standalone="no"?>
<svg
   xmlns:dc="http://purl.org/dc/elements/1.1/"
   xmlns:cc="http://creativecommons.org/ns#"
   xmlns:rdf="http://www.w3.org/1999/02/22-rdf-syntax-ns#"
   xmlns:svg="http://www.w3.org/2000/svg"
   xmlns="http://www.w3.org/2000/svg"
   xmlns:sodipodi="http://sodipodi.sourceforge.net/DTD/sodipodi-0.dtd"
   xmlns:inkscape="http://www.inkscape.org/namespaces/inkscape"
   version="1.1"
   width="1000"
   height="977.711"
   id="svg6816"
   sodipodi:docname="GNU.svg"
   inkscape:version="0.92.3 (2405546, 2018-03-11)">
  <metadata
     id="metadata6822">
    <rdf:RDF>
      <cc:Work
         rdf:about="">
        <dc:format>image/svg+xml</dc:format>
        <dc:type
           rdf:resource="http://purl.org/dc/dcmitype/StillImage" />
        <dc:title></dc:title>
      </cc:Work>
    </rdf:RDF>
  </metadata>
  <defs
     id="defs6820" />
  <sodipodi:namedview
     pagecolor="#ffffff"
     bordercolor="#666666"
     borderopacity="1"
     objecttolerance="10"
     gridtolerance="10"
     guidetolerance="10"
     inkscape:pageopacity="0"
     inkscape:pageshadow="2"
     inkscape:window-width="1360"
     inkscape:window-height="706"
     id="namedview6818"
     showgrid="false"
     inkscape:zoom="0.31907687"
     inkscape:cx="532.51707"
     inkscape:cy="383.00842"
     inkscape:window-x="-8"
     inkscape:window-y="-8"
     inkscape:window-maximized="1"
     inkscape:current-layer="svg6816" />
  <path
     d="m 211.35494,569.31187 c -6.79658,0.46195 -15.64485,3.50676 -21.5811,14.14675 -4.84587,8.6893 -16.19844,10.07517 -21.4988,8.3246 -8.82957,-2.91763 -20.1148,-4.94127 -31.04656,2.84842 -10.93176,7.78783 -22.73693,1.89833 -20.66654,-12.29892 2.0704,-14.19539 7.19869,-26.84031 20.81055,-34.67116 29.72802,-17.10179 9.06709,-29.00421 25.38337,-46.16773 16.34807,-17.19717 12.73657,-22.46013 12.19419,-45.81612 C 119.69652,447.37743 88.380644,431.45204 53.412118,387.76243 18.443591,344.07094 4.8878394,308.10743 1.263247,253.33082 -2.3613455,198.55421 0.78071608,163.05454 24.447173,117.58629 48.113629,72.118041 73.0313,50.230211 116.2122,27.526951 159.39311,4.8274215 201.70245,-0.60945854 240.8099,0.05261146 c 39.10744,0.66021 65.16598,3.52547004 87.26328,16.13298954 22.09542,12.60752 42.30935,28.47307 55.19554,28.58715 12.88807,0.11409 21.66153,-3.26176 27.92508,-8.06088 1.67202,42.46085 -36.5433,46.14903 -70.73192,47.04676 -34.1905,0.89586 -55.19929,-13.24716 -86.68911,-7.98607 -31.48981,5.26108 -83.04767,19.59112 -108.16359,63.308799 -25.11592,43.71767 -25.9725,59.17174 -23.88528,95.83286 2.08723,36.663 33.6425,64.01577 51.455,64.31314 17.81062,0.29737 21.78682,-4.86084 37.37743,-15.02953 15.59248,-10.17055 95.18951,-108.7041 122.34964,-130.83693 27.162,-22.13283 53.9649,-28.96681 82.90554,-29.32216 28.94063,-0.35536 36.33569,0.62654 59.67672,10.19299 23.34103,9.56459 37.68417,27.18071 56.50287,37.94975 9.61882,-5.66132 15.59435,-14.11497 24.42018,-20.56554 31.56463,-23.06984 47.96506,-29.28663 85.48091,-25.63586 21.56239,2.09845 48.75058,14.41608 64.97334,28.52169 28.88639,25.11592 52.7511,60.08257 72.0355,86.64608 15.01644,20.68711 32.68679,45.43832 57.91306,53.17565 27.54353,8.44429 48.26992,-27.22933 51.31286,-47.01684 1.72439,-11.21229 3.97433,-21.03872 3.99303,-33.37879 0.0187,-12.34194 -1.24186,-27.3191 -4.79912,-40.18097 -3.55726,-12.86188 -9.65062,-25.66017 -16.24895,-36.27211 -10.73912,-17.27199 -28.31035,-35.34632 -46.59228,-44.645329 -10.26033,-5.21806 -34.39997,-14.70597 -49.61652,-15.03888 -18.64477,-0.40398 -32.84951,5.85957 -50.08783,7.03411 -20.86478,1.42327 -58.13562,6.11392 -74.49304,-10.00597 -10.40995,-10.25846 -11.71914,-17.1018 -13.49777,-30.478 4.599,3.78918 11.03088,6.28038 16.75579,6.76478 13.06574,1.10346 25.2992,-9.56458 35.84568,-15.74584 8.68743,-5.09276 20.9901,-14.19352 32.40064,-18.79252 29.31843,-11.8201395 65.33244,-11.4797495 96.28174,-8.3133695 24.80733,2.5360895 56.97044,13.5725795 78.72735,25.8845995 21.85977,12.36626 42.92468,33.21795 58.35444,52.87454 19.41158,24.732509 30.02352,45.952649 37.05388,76.799089 8.98671,39.39172 11.47791,98.56721 0.61345,137.4072 -8.56211,30.60705 -36.99216,77.62389 -61.19351,100.67128 -23.86845,22.73319 -51.42882,33.70609 -82.77088,39.70781 1.2269,6.32526 1.42889,12.22411 3.05042,17.41038 2.30417,7.3614 6.71054,15.56817 15.76267,12.97223 3.60963,-1.03426 5.54162,-1.93013 10.30147,2.23311 4.75611,4.16323 2.27987,20.24572 -11.10569,27.46311 -6.78722,3.66013 -13.95038,4.45499 -24.82041,4.67195 -10.87004,0.21695 -27.8353,0.2637 -39.63674,-1.80295 -11.79956,-2.06478 -18.84862,-11.42925 -31.9181,-12.89554 -20.1971,-2.25929 -35.6624,-16.85118 -51.85711,-27.28731 -6.7573,-4.35587 -9.03717,-4.40076 -12.93108,-6.60207 2.10406,6.44123 4.90947,13.1312 6.30843,19.32368 1.40271,6.19248 0.80422,11.92861 1.54859,16.88484 0.74063,4.95249 2.11528,8.80338 2.91576,12.82073 3.23558,2.89332 4.26984,7.29407 9.70486,8.67808 5.43876,1.38213 13.95412,-0.77056 19.51818,-1.51867 5.56407,-0.74811 9.2934,-3.77982 13.65862,-2.94942 4.36896,0.82853 8.50788,3.95563 12.16801,6.88635 3.66012,2.93072 6.80593,3.35902 9.76844,10.67179 2.96252,7.31277 5.68003,22.28806 6.08588,32.29777 0.40585,10.00971 -0.71632,19.04501 -3.68257,26.98807 -2.96626,7.94305 -5.57342,11.46478 -13.60625,19.33116 -8.03283,7.86824 -21.11353,19.41345 -34.16618,27.45563 2.4033,3.55913 3.46936,6.81715 7.21739,10.67927 3.74803,3.86399 11.56204,8.19367 15.03888,12.269 3.4731,4.07533 5.2349,6.99857 5.28539,11.56952 0.0542,4.56908 -0.16832,10.50907 -3.87895,15.49149 -9.24102,12.40553 -20.17091,14.62742 -33.46108,20.46267 2.23498,13.95599 4.05849,23.92643 0.82853,37.86184 -1.31854,5.67816 -4.24739,18.55313 -11.25157,21.85604 -7.00605,3.3029 -20.51505,1.70382 -29.06594,3.06163 -8.5509,1.35969 -13.33693,2.65018 -20.00259,3.97434 -4.05102,5.85583 -10.08265,12.31763 -12.14931,17.56562 -2.07039,5.24986 -1.44572,7.13136 0.29177,12.49156 1.73748,5.36021 7.65316,13.16487 9.32893,19.44151 1.67576,6.27664 2.00119,13.03394 0.43764,19.32742 -1.56729,6.29347 -4.24739,10.86068 -9.61134,16.44907 -5.36208,5.59025 -15.9123,9.97978 -21.16777,14.50959 -5.25921,4.53167 -10.49411,5.07592 -9.05961,12.57385 1.97314,10.29774 17.0195,26.99929 27.9045,30.97549 6.52352,2.3846 15.28014,1.63275 23.20263,-1.7113 -0.53677,8.7959 -8.14879,14.72468 -13.12185,20.56554 13.46785,-3.85089 26.52798,-11.22352 35.5614,-20.9957 -2.80167,8.48731 -12.44106,22.11226 -26.85901,34.0764 -14.41795,11.96415 -14.33005,9.51596 -21.49694,14.27581 13.07696,2.62774 25.23749,1.91703 35.3669,0.0973 -5.55285,3.06164 -14.65548,7.36701 -26.71314,8.63318 -12.05766,1.26431 -19.492,0.37032 -30.3583,-2.26864 -10.86816,-2.64083 -20.7881,-12.51962 -33.95671,-19.32929 1.28301,4.88516 2.19571,10.75969 7.73359,15.78325 5.53788,5.02356 13.91671,7.57835 22.82296,11.923 -11.3376,-1.28675 -23.25125,-1.67576 -34.39248,-4.13144 -8.24791,-1.81977 -13.78954,-3.7499 -19.82491,-6.7386 -6.03164,-2.98869 -10.68862,-7.3483 -16.032,-11.02152 2.56041,4.89076 3.31974,10.64373 7.67748,14.67604 4.35774,4.03231 11.44047,5.53414 17.16912,8.30402 -5.97552,-0.13092 -11.72288,1.16518 -17.91723,-0.39276 -6.19809,-1.55793 -12.0109,-4.00612 -18.454,-8.75288 -6.4431,-4.74676 -13.08818,-10.59137 -18.58679,-16.5669 -5.49487,-5.97552 -12.28022,-13.7222 -14.33379,-19.23203 -2.0573,-5.5117 1.23439,-9.36634 1.85158,-14.04389 -3.79479,2.49307 -8.463,3.86585 -11.37876,7.48484 -2.91575,3.61898 -5.50047,6.92375 -4.20998,13.23219 1.29236,6.30844 7.11452,14.01958 11.231,21.03685 -12.28397,-10.04525 -19.14414,-13.91297 -22.06738,-26.03048 -2.73621,-11.34509 4.34278,-21.64282 9.72356,-30.22177 2.67263,-4.26049 6.67127,-8.22547 9.16996,-12.33821 -5.54911,-5.4294 -11.89121,-10.09574 -16.64732,-16.28822 -4.75423,-6.19061 -6.75169,-14.56944 -11.60505,-20.4926 -4.85523,-5.92503 -11.38623,-9.67493 -17.07374,-14.50585 4.99925,10.73912 13.21536,23.91146 14.99961,32.22296 1.78237,8.3115 -1.99933,13.39865 -4.94875,17.88544 -2.9513,4.48679 -7.71301,5.48739 -12.22973,8.24417 -4.51671,2.75866 -11.54146,0.58353 -14.23279,4.67756 -2.68945,4.09216 -3.41138,10.2491 -0.83975,14.30386 l 10.54835,16.64919 c -3.88643,-1.96192 -10.58202,-7.66813 -13.60064,-11.7154 -3.01862,-4.04728 -7.64942,-7.78596 -8.28345,-13.25838 -0.63402,-5.47056 -0.94262,-10.21918 2.60155,-15.09312 3.54605,-4.87207 13.25277,-6.50294 17.59742,-10.24911 4.34465,-3.74616 6.78162,-6.18499 6.53287,-11.02713 -0.24688,-4.84215 -4.9768,-8.30589 -9.04278,-11.35818 -12.41301,-9.31023 -28.33653,-17.88918 -38.8774,-29.11083 -5.95495,-6.34023 -8.81273,-11.45917 -10.00971,-15.83375 -1.19511,-4.3727 0.0692,-7.78408 3.02797,-13.16299 2.95878,-5.38078 13.10502,-12.5645 14.3394,-18.40911 1.23251,-5.84274 -3.89204,-7.0977 -8.51723,-9.15874 -4.62519,-2.06104 -13.40987,1.05671 -17.70028,-2.52861 -4.28854,-3.58532 1.26056,-11.11878 -3.5741,-15.25022 -4.83279,-4.13144 -15.89546,-1.82539 -21.60541,-6.26916 -5.70995,-4.44564 -8.07023,-9.96295 -10.03776,-16.41166 -1.96753,-6.44871 -2.1901,-13.51274 -0.85659,-18.18281 1.33351,-4.67008 5.33963,-5.48739 7.75603,-7.90752 2.41639,-2.42014 4.51297,-4.42694 1.29236,-8.03658 -3.22061,-3.60776 -13.77457,0.20199 -19.84174,-4.43068 -6.06718,-4.63267 -2.35281,-15.72901 -6.64322,-20.40656 -4.28854,-4.67756 -11.98659,-2.84656 -16.04883,-4.34091 -4.06036,-1.49435 -5.65384,3.77795 -8.14504,-4.55973 -2.49121,-8.33956 -2.55854,-33.19738 -5.91007,-42.47394 -3.35154,-9.27656 -9.93303,-0.62654 -12.98906,-9.847 -3.05603,-9.21858 -0.15897,-23.96196 -1.5355,-37.88615 l -6.23736,-37.88616 c -21.75878,14.6162 -36.12249,19.20585 -59.49905,23.33542 -1.9507,57.19674 -7.324,90.87852 12.08945,154.33507 19.41345,63.45468 58.70232,100.8527 111.70403,154.57634 C 280.4298,819.25538 247.03978,776.658 226.14133,722.08713 205.23914,667.50877 209.25275,621.86659 211.35494,569.31187 Z m 371.63855,-22.98942 c 5.38078,0.24126 11.91926,1.60656 15.69722,4.06037 3.77982,2.4538 7.79156,4.45873 11.22165,7.95053 8.55837,8.71548 14.97716,19.22643 17.81436,31.30466 1.80856,7.69992 2.07788,17.57497 2.73622,26.61588 -2.59033,-8.35639 -4.33156,-17.07 -8.02161,-24.55671 -5.81843,-11.80517 -15.70283,-23.32793 -27.97744,-28.6339 -4.05102,-1.75432 -6.75356,-1.42889 -8.98293,-1.11843 0.99686,1.6739 2.66701,3.07661 2.73995,5.52854 0.0729,2.45193 -0.47505,7.24918 -4.63267,9.26534 -6.70306,3.2524 -14.15424,0.96506 -19.33116,-3.6115 -5.21994,-4.6121 -6.99857,-12.41489 -4.2661,-19.11982 3.25615,-7.98982 15.66356,-8.01039 23.00251,-7.68496 z m -67.46455,-11.37127 c 0.67517,-13.73717 5.63327,-25.32165 17.94342,-32.05838 6.36641,-3.48245 16.17413,-7.98607 25.18699,-9.04465 8.6575,-1.01556 29.71679,-0.27306 42.38416,5.50796 9.7273,4.44003 16.35369,11.35257 24.89523,16.40418 8.53968,5.05348 14.61433,8.44055 22.74628,14.10748 12.48222,8.69865 19.79873,18.27633 28.45249,24.01807 4.16136,2.75865 10.01532,2.34906 15.54012,4.03605 -4.29603,1.27553 -9.91059,2.68198 -14.54513,1.20072 -5.77915,-1.84783 -13.85874,-7.13136 -18.34179,-10.91867 -7.92248,-6.69184 -12.0296,-9.95734 -20.67588,-15.00521 -5.16196,-3.0074 -13.66236,-6.55157 -19.3349,-10.25097 -5.67629,-3.69941 -15.52889,-11.8164 -20.98262,-14.56383 -6.9331,-3.48994 -19.41532,-5.43128 -27.13394,-5.20498 -10.63438,0.31047 -26.02674,2.06478 -34.25595,9.53092 -8.17497,7.42125 -11.27963,13.95038 -9.43554,23.58791 3.07847,-3.54604 5.12829,-8.00104 8.21238,-10.63813 6.38886,-5.45746 13.72033,-5.72117 21.67274,-4.6869 8.9343,1.16331 13.43231,6.32339 16.38361,14.80509 -1.98623,-1.45882 -5.63701,-4.6626 -8.5191,-5.65571 -6.76479,-2.3341 -11.87999,-1.61592 -18.21648,1.78237 -7.4811,4.01361 -5.44624,9.9536 -6.52352,16.55941 -0.49375,3.04668 -1.64397,5.50048 -2.46502,8.25166 -2.81289,-0.74437 -5.41445,-1.91517 -7.54282,-4.02484 0.0879,3.08596 -0.36096,5.78476 0.27119,9.25599 0.62841,3.46936 2.31914,7.59145 3.47684,11.38624 -5.20871,-5.21059 -10.539,-10.06208 -13.90362,-16.78946 -3.36836,-6.73112 -5.6501,-14.201 -5.28914,-21.59232 z m 9.01473,-99.98489 c 3.83967,-5.69873 4.96371,-14.44039 7.33147,-21.54743 -0.94635,9.00163 0.87342,18.90099 -3.52172,25.42077 -4.39515,6.51978 -12.11377,5.37704 -18.50824,7.2735 4.97493,-3.79292 10.85694,-5.44811 14.69849,-11.14684 z m -91.92588,133.47777 c 4.93005,-3.99117 18.23518,-0.80048 28.18691,-0.0879 -7.15193,1.83099 -14.30386,3.66386 -21.45579,5.49486 -0.66582,2.43323 -0.3647,5.22181 -1.99745,7.29594 -1.63462,2.07601 -4.73928,2.84469 -7.10704,4.26423 0.23378,-6.3926 -2.55667,-12.97784 2.37337,-16.96713 z m 70.11847,-277.21212 c 5.94,3.19817 13.47907,7.42686 18.72519,7.55778 5.24613,0.13092 6.61891,-3.43009 9.70486,-5.48552 4.85523,15.83188 10.42865,33.2273 18.69527,47.59288 3.46375,6.01855 5.67254,3.22062 8.30589,9.26908 2.6296,6.0466 3.79852,18.35114 6.29347,26.07724 2.49869,7.72611 5.75671,13.41174 8.63506,20.11668 -7.30903,-10.35571 -16.75205,-23.55985 -20.82551,-32.17808 -4.06972,-8.61635 -1.46442,-9.36633 -4.75985,-17.5731 -3.29542,-8.20676 -9.95734,-20.99944 -14.93601,-31.49917 -3.56475,0.47318 -7.97859,1.12217 -10.68862,0.28616 -2.71003,-0.83602 -2.16952,-3.71811 -4.61771,-5.5809 -2.45193,-1.8628 -6.57215,-1.14087 -10.00597,-4.11461 -3.43383,-2.97186 -4.2156,-9.07083 -4.52607,-14.46844 z m -31.98356,78.1195 c 5.59025,-0.49001 12.53271,1.00808 17.76761,0.71071 5.23489,-0.29738 8.9717,-1.6552 13.45849,-2.48373 -0.83227,-7.88508 -0.043,-22.37222 -7.32212,-27.63705 -4.70187,-3.40016 -24.01246,-0.83975 -29.17068,0.27306 -11.60692,2.50243 -25.1234,9.42993 -36.34879,13.76148 10.75782,-7.51476 20.05122,-14.47966 32.95424,-18.35861 7.75603,-2.33224 25.85655,-5.36395 33.86133,-3.20191 3.65451,0.98563 4.39327,2.49868 6.60955,5.59586 7.6195,10.63812 7.59705,19.83239 9.57393,32.22483 1.94322,3.02798 4.01361,5.04787 5.58839,8.17123 1.57103,3.12336 2.46128,8.03844 2.90079,12.05579 -1.99371,-2.89144 -0.77429,-6.5179 -6.29721,-8.67059 -5.52667,-2.15269 -13.98779,-0.14214 -21.43335,0.63589 5.42754,3.91636 8.12447,7.6887 8.33207,15.96841 0.24314,9.72169 -7.98794,16.71838 -16.58185,17.3842 -11.93049,0.92579 -18.08182,-1.69447 -22.90713,-11.8912 -2.11341,-4.46622 -0.58165,-9.83952 -0.75746,-14.19352 -14.33566,0.99686 -14.10187,0.52929 -24.57915,9.26534 5.69499,8.3433 9.28217,13.14055 18.6934,18.13231 5.27791,2.80168 11.25344,5.5248 17.79379,6.63761 6.54222,1.11281 17.27199,2.18822 24.14338,1.13339 6.87326,-1.05484 10.76717,-3.01676 15.8618,-7.72798 5.09649,-4.71309 5.56406,-11.46104 7.55404,-16.79507 -0.45261,5.13391 -1.04175,11.67239 -2.94756,15.39611 -5.79785,11.32077 -15.82439,14.67604 -27.79602,14.71345 -11.49097,0.0374 -25.70506,-2.61278 -36.39555,-7.04533 -8.54715,-3.5423 -22.71635,-13.57445 -26.07911,-22.28993 -2.29857,-5.95496 -0.47879,-13.26212 -0.72005,-19.89411 11.8351,-7.87012 14.76395,-5.93439 28.76669,-8.23856 5.8577,-0.96507 9.88627,-3.1402 15.47653,-3.63208 z m -68.9402,-53.3047 c 0.33291,-4.71496 0.85471,-4.61397 1.28301,-6.92188 -10.78214,-2.88397 -15.10621,4.11086 -21.42774,17.10179 -2.3659,4.86084 -0.0243,7.75416 -2.56228,10.9542 -2.53422,3.20004 -6.6189,2.75117 -10.73537,5.82403 -4.11648,3.07099 -8.19555,8.95301 -12.04457,12.13434 -7.89817,6.52913 -18.5737,10.51469 -27.73431,14.90796 6.25607,-4.61583 18.39603,-11.61627 22.3236,-18.32308 2.08349,-3.55539 1.77489,-10.26032 5.01795,-13.45662 3.24119,-3.19817 4.37644,-5.41071 8.56212,-6.22615 4.18567,-0.81544 2.50242,-5.66693 3.85276,-9.52344 1.35034,-3.8565 4.0398,-6.59459 6.90132,-10.44735 2.86152,-3.85277 6.47115,-9.63753 12.12125,-11.73785 5.6501,-2.10219 14.46096,0.1702 18.73828,-1.03987 4.27545,-1.21007 1.81978,-4.31846 4.9263,-6.185 3.11027,-1.86653 9.15687,-1.04361 13.31075,-3.03919 7.36327,-3.54043 10.885,-9.4505 15.31381,-15.77764 0.64337,13.61934 0.48627,23.42519 -4.40824,36.23844 -5.5117,14.42169 -11.09821,22.91648 -26.74119,31.78532 -5.39013,3.05416 -10.75408,4.11461 -15.22216,5.71743 2.60529,-3.55352 6.33462,-5.0965 7.81774,-10.66057 1.47939,-5.5678 0.37406,-16.60804 0.70697,-21.32487 z m 252.55816,66.40785 c -7.43808,0.4844 -9.20175,-0.49376 -15.15297,3.70314 3.22623,5.01982 6.45058,10.03964 9.67306,15.05945 -0.28428,-9.90871 0.68078,-11.89494 5.47991,-18.76259 z m -19.48826,-7.20056 c 10.30147,-4.38767 19.27692,-7.93745 30.4836,-8.6388 4.4924,-0.28241 11.46666,0.41333 16.00394,0.61906 3.86399,-5.68938 8.78843,-10.17616 10.59324,-16.66976 1.19511,-4.30724 0.60597,-24.29861 -1.50931,-29.48862 -6.16256,-15.10434 -12.15305,-15.7421 -20.63474,-24.39399 -6.15508,-6.27477 -6.40008,-15.83001 -8.24043,-26.53733 -0.67517,-3.93319 -2.6053,-8.90999 -3.51051,-12.96849 -11.08699,-1.8684 -23.00999,-2.48372 -35.76526,-1.84596 6.185,-5.93251 12.16426,-11.35256 13.93916,-20.25881 1.77115,-8.90625 0.32916,-19.85671 -4.73367,-27.84278 -5.06283,-7.98608 -13.1499,-14.9435 -20.57302,-21.45017 -7.42686,-6.50669 -18.0706,-11.87812 -25.10657,-17.20092 9.15125,-3.27672 18.49515,-8.09081 27.45937,-9.8283 23.35225,-4.5298 43.47267,2.3977 65.99639,16.01517 13.09566,7.92061 23.92642,15.44472 37.61683,29.77663 13.68667,14.33005 30.66316,40.61676 43.91405,56.2055 13.2509,15.58874 23.94887,27.91759 35.50904,37.21473 11.56204,9.299 22.02623,11.94731 33.03653,17.9191 l 17.16164,18.22395 13.88866,-17.18595 22.34792,2.52674 4.61771,-25.08412 20.5113,-5.62018 -3.34592,-33.81457 14.74711,-10.46605 -11.08324,-21.03872 11.26092,-22.98942 -14.68166,-26.27922 5.66132,-25.30295 -16.99705,-14.48528 -2.21815,-26.88894 -23.71134,-9.044649 -9.51222,-23.39339 -26.65889,-0.29925 -13.07697,-17.3655 -17.94715,1.25683 -20.00633,-2.17887 -11.31329,-8.35265 -16.41914,10.89996 -19.86793,-10.35945 -39.49459,14.99399 25.7462,-22.39093 26.67386,-4.26048 20.43462,-5.20872 27.59777,9.06335 24.29113,-6.1532 23.42145,13.84564 24.78488,-1.37091 12.17549,21.84668 24.67828,2.84843 13.35189,24.28926 15.52141,8.474209 4.12021,31.11576 13.8232,13.11063 -6.07839,27.22559 16.28448,20.6179 -15.26892,22.09168 16.3275,13.80824 -20.87227,18.49889 21.13972,22.015 -25.52925,8.23295 16.62861,23.61222 -20.85356,3.59841 13.67544,25.96315 -23.50187,-0.31233 11.83884,19.44711 -25.778,-3.10278 6.1663,27.97744 -19.48078,-17.13733 -6.67314,33.90808 -13.44354,-24.34723 -7.28098,30.36765 -16.59494,-22.3928 0.4526,31.8433 -18.34178,-28.63204 c 3.86773,16.24521 3.09343,34.03339 13.76335,49.34907 33.05898,-4.4737 54.66626,-12.8039 79.99352,-37.17545 23.06797,-22.19642 50.63956,-68.47637 58.1057,-97.83033 8.5191,-33.49662 8.78094,-95.10347 0.39088,-129.20605 -8.07584,-32.83455 -18.57182,-48.51867 -37.32507,-75.312229 -17.92471,-19.03752 -35.55392,-39.14859 -58.30394,-52.72491 -33.39563,-19.92778 -76.21744,-25.30108 -114.27753,-24.78301 -21.07426,0.28802 -35.19109,4.33529 -47.79113,8.91747 -22.03371,8.01225 -39.65544,25.48997 -62.05572,34.1269 -7.30529,2.81476 -13.16112,2.90267 -18.91409,-0.1702 5.63327,11.27028 11.76216,16.32563 25.81167,20.42715 10.16307,2.96625 34.41305,1.09037 51.10712,-0.45074 17.92098,-1.65519 27.26861,-6.98361 51.65886,-6.64883 23.81982,0.3273 42.69463,9.37569 53.01481,15.27641 21.29308,12.17549 36.562,25.682609 49.82973,47.078549 7.28659,11.74907 12.39057,25.00558 15.98524,38.53327 3.59467,13.5277 5.16944,28.67879 5.39948,41.9222 0.23005,13.24342 -0.78177,25.06542 -4.02109,36.98281 -7.57648,27.90076 -24.29113,56.29153 -58.62563,51.90574 -21.01067,-2.68572 -52.68564,-42.12233 -63.29384,-56.59077 -21.40529,-29.2006 -43.42965,-61.51333 -70.32607,-85.83064 -16.39857,-14.82193 -38.85122,-25.02241 -60.89989,-27.04043 -41.36486,-3.78544 -53.63199,4.07158 -84.76833,29.73549 6.33462,2.0199 12.51775,3.13458 19.00947,6.05969 14.40673,6.49173 27.58282,14.88178 39.07565,25.64333 12.0427,11.27963 17.44593,18.41847 17.87422,34.57016 0.28428,10.72602 -8.53967,19.32555 -16.62861,27.061 -4.94875,4.73741 -11.49845,9.07458 -15.50645,12.75154 -5.31158,4.87954 -11.88934,10.21731 -5.2162,17.99017 2.50991,2.92137 6.86765,5.12455 10.54274,7.85328 5.83339,4.32969 3.16264,20.42153 -4.52232,24.6895 -9.83391,5.45559 -21.58484,4.84588 -29.69435,-2.45754 10.23601,-1.53176 16.73708,-2.88958 16.47151,-11.2628 -0.15337,-4.85336 -6.3234,-8.88567 -12.37935,-11.6462 -14.60498,-6.65817 -25.63586,-5.67628 -40.17163,-16.13486 -14.68166,-10.56892 -15.00522,-16.35555 -18.97394,-32.94863 -7.07899,0.74063 -13.5969,0.90335 -23.06236,4.03793 -9.46546,3.13271 -19.92591,10.59136 -28.51982,12.43732 -21.64282,4.65699 -25.95567,3.27673 -37.80012,0.21135 -20.85356,-5.39762 -48.00621,3.84341 -74.97931,12.47099 -4.48492,1.4345 -22.62472,0.0486 -34.83574,4.33342 -18.85985,6.61704 -45.32237,22.64155 -60.60625,35.51278 -23.15775,19.5051 -53.59086,77.87824 -70.78616,144.87896 -1.80668,20.36729 3.98555,34.0895 -8.84452,44.03749 -12.83009,9.94799 -12.47474,35.43423 -16.825,42.58242 -4.35026,7.14632 -9.38691,3.98742 -18.75137,14.02519 -9.36447,10.03776 -14.1318,8.36012 -13.89614,27.33967 8.07023,-5.30597 19.83613,-11.47413 30.16753,-11.84632 9.14938,-0.33104 9.24664,11.7154 32.7298,-11.50032 12.55889,-12.42049 36.68731,-12.80016 53.42814,-18.27819 16.7427,-5.47804 46.9121,-16.76701 77.12826,-50.54792 30.21616,-33.7809 44.67525,-69.34417 50.53482,-120.75803 0.93327,9.11572 2.55293,19.39662 -1.35034,44.54247 -3.90326,25.14584 -12.31576,53.38886 5.40697,87.21839 l 11.0421,21.07612 c -6.57402,-8.9717 -19.41532,-23.6066 -23.28118,-34.03525 l -8.91747,-24.05735 c -19.95022,31.32336 -24.53613,36.92671 -52.24987,59.36813 -1.10346,13.92233 -1.37465,28.44314 3.17573,41.76511 4.55038,13.32009 -2.70255,28.67505 0.75933,37.44851 3.46188,8.77346 11.46853,3.77982 14.08317,12.66176 2.61464,8.88193 -1.3653,26.44194 2.68946,35.09944 4.05475,8.65751 14.00274,3.4039 18.82431,6.19997 4.82157,2.79793 6.39821,6.63199 8.97732,10.31082 2.57724,3.67696 -1.00808,12.37 4.23617,15.19224 5.24238,2.82412 13.42109,0.43204 18.87668,3.14206 5.4556,2.71003 6.28413,9.2242 4.97681,15.06133 -1.3092,5.83712 -7.13884,8.51536 -9.69925,14.44974 -2.55853,5.93625 -2.27238,10.06769 0.80235,15.51767 3.07473,5.45185 9.88253,8.45364 16.66789,11.20481 6.78535,2.75118 16.32001,1.20633 23.32232,5.01047 7.00231,3.80414 13.29579,11.38436 16.99332,16.89419 3.69753,5.50796 4.72431,9.39439 4.53542,15.18663 -0.19077,5.79037 -2.53984,12.46164 -5.6314,18.05563 -3.09157,5.594 -9.91246,12.4018 0.73689,23.08481 10.64934,10.68113 10.25658,6.07652 16.35742,13.00589 -0.66395,-11.98659 -5.61644,-21.7513 -1.99558,-30.77537 3.62272,-9.02408 14.49837,-10.59324 20.23076,-14.65174 5.73239,-4.06036 9.03343,-9.63752 13.55201,-14.45535 -0.0655,6.19996 0.59849,12.86562 -0.10661,17.53383 -1.43637,9.49164 -4.23804,17.91723 9.90685,19.43963 6.37202,0.68452 12.42236,-3.44692 19.1273,-5.9269 -3.51238,6.28973 -9.62069,11.34696 -10.539,18.87481 -0.9183,7.52412 0.18516,15.79073 5.39574,23.25874 5.21246,7.46427 14.21222,13.00776 20.80681,17.39542 6.59272,4.38954 10.12567,4.74115 15.19224,7.11453 0.24875,7.39881 -1.2082,15.22965 -0.3647,22.19829 0.84349,6.96864 3.03919,13.13681 7.06777,18.89726 4.03231,5.76231 10.49785,9.06709 16.58746,13.32757 -3.33844,-7.77473 -10.1107,-15.15109 -10.01906,-23.32419 0.0916,-8.17123 2.5417,-13.96347 10.51282,-21.21453 7.97111,-7.25292 26.63271,-13.54266 35.43235,-20.59359 8.79964,-7.05281 11.63872,-11.37314 14.79761,-18.22022 3.1589,-6.84708 2.27987,-17.87796 2.86339,-24.03303 2.89706,8.62197 3.31039,11.30207 4.25114,20.32241 0.94636,9.0222 -5.25734,21.67648 -7.88321,28.35523 10.885,-5.25734 17.79379,-13.66049 21.28186,-21.87286 2.3341,1.384 1.1577,5.17879 2.01615,12.49156 3.87895,-3.86024 8.28906,-6.83024 12.19419,-10.47354 3.90888,-3.63955 8.18994,-6.84146 10.12941,-11.923 1.93574,-5.08153 1.14274,-10.48476 -0.29924,-16.38921 -1.44198,-5.90446 -8.04031,-12.75154 -11.59383,-19.2096 -3.54979,-6.45619 0.62841,-12.79455 0.38714,-20.57489 -7.10891,-1.22129 -13.14616,-4.84214 -21.31739,-3.66574 -8.17497,1.17453 -17.53757,10.34823 -25.89208,10.45484 -8.35452,0.1066 -13.04517,-7.7205 -19.89412,-9.87131 -6.84894,-2.15082 -13.77831,-1.91516 -20.66466,-2.87274 8.72296,-8.35639 42.57867,-12.33634 65.73642,-16.11242 20.37664,-3.32348 40.59805,-5.24425 61.24401,-5.53414 9.22046,-0.13092 21.07052,2.91388 27.47247,1.07353 6.40756,-1.83661 5.04039,-6.19996 6.94059,-10.95607 5.31532,-13.29391 2.69506,-25.13275 -0.19638,-38.52017 -18.53442,-2.17326 -37.84688,-4.83279 -56.52157,-3.39829 -18.25763,1.4027 -39.878,10.08265 -58.7098,10.66991 -16.37238,0.50872 -40.61675,-3.13645 -54.67561,-11.70605 -17.18034,-10.47166 -30.47239,-32.96172 -35.19109,-40.18285 -7.68496,-11.76216 -17.37859,-34.83761 -23.27744,-45.38783 -5.8951,-10.55021 -7.19495,-13.50151 -12.10068,-17.90601 -4.90573,-4.40262 -11.62562,-4.74301 -17.43657,-7.11639 6.69933,0.68452 14.01397,-1.43637 20.09984,2.05356 9.14378,5.24612 19.37792,26.98994 25.0673,36.45166 6.02789,-20.20645 4.62145,-28.15138 22.06363,-39.54509 -14.05699,15.75519 -14.40673,27.68941 -17.83307,46.2388 11.68922,19.18528 27.94003,49.74557 49.20506,58.22539 7.68121,3.06538 20.87226,4.98802 29.17628,6.01481 25.84346,3.20004 50.77048,-4.9899 76.15198,-11.25719 18.55312,-4.58217 37.37931,-2.73621 59.94417,-1.41019 7.66065,0.44887 25.72376,-4.15949 29.46431,-11.90803 2.0199,-4.18007 1.87028,-9.20363 -1.03052,-13.65862 -2.90454,-4.455 -10.63999,-6.60955 -14.78639,-10.61942 -4.1464,-4.00987 -6.531,-8.76972 -9.7965,-13.15551 -17.23458,3.30664 -31.41126,4.57656 -44.20394,4.92443 9.17556,-3.77983 17.97895,-5.93625 27.52857,-9.67119 9.54962,-3.73494 20.39348,-9.8657 28.10088,-14.95285 7.7074,-5.08901 12.62809,-8.04031 18.20525,-13.9616 5.57342,-5.92503 12.72348,-12.02774 16.83248,-19.26944 4.11273,-7.2417 4.74862,-15.34186 4.97867,-24.30422 0.23004,-8.96049 -0.15711,-21.53434 -3.61337,-28.7536 -3.45253,-7.21739 -10.11071,-9.40749 -15.4597,-11.11505 -5.35085,-1.70756 -9.01472,2.61091 -14.57879,3.19443 -5.5678,0.58353 -10.76904,4.09216 -18.8187,0.30673 -8.04966,-3.78544 -17.59181,-11.49097 -25.73124,-22.9277 -8.1357,-11.4386 -13.95412,-30.13387 -22.24879,-44.51628 -14.29825,-24.79236 -32.11636,-47.95197 -49.15643,-70.92456 -1.40271,-5.66506 -3.51051,-13.49403 -4.21186,-21.17899 -1.22316,-13.39117 -1.4532,-27.30227 2.70255,-40.35679 3.18508,-10.00036 7.81775,-20.56367 18.28941,-24.66518 4.18942,-1.6421 9.48978,-2.29296 13.23407,-0.90521 3.74803,1.38587 7.42312,5.61456 5.95121,10.49972 -1.61778,5.37143 -5.33963,5.51731 -7.86824,8.22921 -4.29228,4.60087 -6.0092,7.97672 -7.63072,13.71285 4.63828,-0.0748 10.90744,-0.42829 14.71719,0.57418 4.97119,1.30919 9.60012,4.60461 12.12312,11.64807 -5.93251,-5.26108 -8.88007,-7.67561 -16.28448,-7.86264 -3.39268,-0.0842 -7.51477,1.12965 -11.26841,1.69447 -1.4027,4.56347 -2.2275,10.15933 -4.20812,13.69041 -1.98062,3.53108 -5.83712,2.68385 -7.28472,6.80967 -1.44759,4.11835 -1.53175,10.82515 -0.80234,16.2396 z m 51.83466,-6.185 c 2.27238,0.89586 3.13832,1.09224 6.01667,3.28233 2.87836,2.19009 6.84895,4.37645 9.12881,9.60947 2.28361,5.2349 2.177,13.32945 1.69073,16.62675 -2.00119,-0.58727 -4.72992,-0.19077 -6.80593,-1.96566 -2.07039,-1.77489 -3.30664,-5.79411 -5.96243,-7.51477 -2.65953,-1.71878 -4.87581,-1.34285 -7.81401,-1.71504 1.50931,4.29415 2.24246,8.59017 1.54111,12.48409 -1.52241,8.50039 -6.51978,12.80577 -14.61059,13.8232 -3.53295,0.44325 -9.14377,-0.72006 -12.21851,-1.27927 1.42515,3.18321 3.83968,5.97179 5.2667,9.15499 6.84146,-0.98937 11.91178,-0.8491 15.59061,-2.56975 3.67883,-1.72066 7.62324,-5.57529 12.34381,-7.20804 4.72245,-1.63275 8.9343,-1.60657 14.1,-2.41266 -4.06971,3.50677 -6.74047,7.0154 -10.80457,10.52217 2.98121,8.66498 5.96243,17.32809 8.94178,25.99121 6.31966,3.95376 12.24843,6.03724 20.21206,10.91866 7.96737,4.88329 17.51886,13.61747 27.89328,18.38106 10.37441,4.76359 16.55193,7.35579 27.39204,9.4 10.83824,2.04421 19.46208,10.82328 30.12826,12.2503 10.66617,1.42702 30.58834,1.71504 38.8082,0.91269 9.33267,-0.91082 21.45766,-5.72678 22.54616,-15.95905 -7.82523,1.93012 -19.77629,0.19825 -25.81166,-14.52642 -2.67824,-6.53848 -1.3653,-18.56248 -5.46495,-26.2942 -4.09777,-7.73358 -9.81146,-10.21544 -16.63796,-19.74262 -6.8265,-9.52718 -17.99391,-24.55483 -24.26307,-37.31946 -6.26542,-12.76275 -7.74107,-27.21998 -13.04143,-38.65671 -5.30036,-11.43486 -13.29578,-20.67214 -19.492,-29.48675 -13.52957,-19.26383 -24.44075,-32.42869 -46.73069,-42.14664 -10.72041,-4.67382 -22.92583,-5.91942 -34.38874,-8.88006 -4.66446,2.08909 -11.0608,4.39701 -12.19606,9.8526 -1.13526,5.4556 1.04548,13.51274 5.00485,17.60864 6.62639,6.84708 16.44533,14.24775 20.30558,25.13088 2.47998,6.98361 3.20004,30.39571 1.05109,36.74903 -2.22937,6.59646 -7.4119,10.58575 -11.71914,14.97903 z m 2.1583,55.41437 c -2.0704,1.78611 -3.64891,3.62085 -6.97987,5.10398 -3.32722,1.48313 -7.87198,1.86653 -12.2877,2.97 6.19248,9.63939 12.69729,19.37978 18.6298,29.5148 5.93626,10.13315 11.07951,21.22949 16.74457,31.84143 -0.26745,-6.08213 0.0916,-12.56638 -0.79299,-18.25014 -0.88464,-5.6819 -3.46001,-10.65496 -6.01294,-19.18528 -2.54918,-8.53032 -5.6875,-20.13538 -9.30087,-31.99479 z M 522.26193,212.53639 c -0.87342,9.48229 0.73128,24.30609 2.69507,33.59013 2.3528,11.11317 4.61771,16.87549 13.63617,23.57107 16.51453,12.25965 27.05727,10.193 39.76204,17.30192 6.04473,3.38332 13.70538,9.054 15.94035,15.04823 2.23498,5.99423 -1.47564,12.50278 -6.05969,15.06132 8.01787,1.19323 17.00828,-7.8458 13.25651,-17.12611 -1.84783,-4.56721 -10.64373,-6.60207 -13.34067,-11.21042 -2.69132,-4.60649 -2.68571,-9.34951 -1.41767,-14.02894 2.29109,-8.43493 18.97955,-16.09932 24.87653,-22.76685 9.07457,-10.26033 12.55889,-18.84302 7.41938,-32.05651 -7.21739,-18.56248 -35.10132,-33.45733 -51.78978,-40.74205 -7.64194,-3.3347 -11.92674,-3.57223 -17.88731,-5.35834 12.20354,7.15193 25.06916,12.84878 31.24294,28.83589 5.15448,13.35189 0.69013,18.38293 0.8622,30.00855 0.0804,5.39014 7.17811,8.0852 10.32953,11.49097 2.74369,2.96065 2.52113,5.15822 0.32916,9.24477 -0.24126,-3.68631 -1.81603,-6.43749 -4.64576,-8.44055 -4.67195,-3.31226 -9.70485,-2.59968 -12.19419,-9.39065 -3.77796,-10.32392 3.71437,-20.10171 -4.70935,-31.69368 -6.30096,-8.67246 -14.68166,-18.37918 -25.98747,-18.63353 -5.35086,-0.12157 -9.37382,0.68639 -15.08938,2.37711 l -7.6195,-9.16995 -0.1758,-0.1197 c -15.49897,-14.14489 -26.10343,-25.80231 -47.84537,-35.524 -21.74194,-9.71981 -32.45675,-11.19172 -57.38564,-10.63812 -24.92889,0.55173 -49.66889,2.63709 -78.54219,27.53606 -28.87143,24.89896 -103.28405,120.24369 -121.33033,132.3107 -18.04441,12.06701 -22.04119,16.15543 -44.58921,16.16105 -22.54803,0.006 -57.73912,-31.88819 -59.11752,-71.74748 -1.38026,-39.86117 -1.93386,-54.02849 25.77426,-102.04779 27.70999,-48.021179 77.90816,-62.766419 115.15281,-67.745099 37.24652,-4.97867 59.6281,8.13944 87.17911,8.20116 27.54915,0.0636 54.77661,-4.69252 62.8057,-26.60279 -3.92945,2.33971 -9.19427,4.9768 -23.99937,4.20064 C 364.9924,51.657231 344.46426,34.516171 321.37198,23.030811 298.2797,11.547321 272.58213,10.202591 239.62227,9.5797915 206.66242,8.9569915 165.53509,11.476251 124.78928,33.472551 84.043477,55.468851 56.230622,78.808011 32.59783,121.858 8.9650383,164.90985 5.4339596,200.05978 9.2437093,252.18621 13.053459,304.31264 29.130341,343.07969 60.085258,381.23143 91.040175,419.38316 121.97639,438.05037 177.7592,444.99096 l 11.74345,-51.79913 -20.9639,30.08524 0.51807,-33.46108 -18.96272,23.52993 -8.31711,-31.91063 -15.36244,25.58349 -7.63072,-35.62874 -22.26188,18.00514 7.0472,-29.39885 -29.456832,3.25989 13.531438,-20.43462 -26.859015,0.32729 15.628015,-27.28169 -23.83104,-3.78357 19.001991,-24.81294 -29.176286,-8.65002 24.156469,-23.13155 -23.851614,-19.43777 18.65599,-14.50959 -17.445922,-23.21385 18.609233,-21.66338 -6.9462,-28.60773 15.801951,-13.77457 4.703741,-32.69427 17.733945,-8.906249 15.257706,-25.52177 28.20187,-2.99431 13.91484,-22.95575 28.32531,1.44198 26.76737,-14.54887 27.76049,6.46554 31.53283,-9.52344 23.35412,5.47243 30.478,4.47931 29.42503,23.52805 -45.13534,-15.75519 -22.70514,10.88687 -18.7682,-11.45544 -12.92173,8.7772 -22.86411,2.28922 -20.50382,-1.32415 -14.94724,18.2464 -30.46864,0.3142 -10.86816,24.58102 -27.0928,9.504739 -2.53423,28.25424 -19.42841,15.2203 6.47302,26.58782 -16.778234,27.6146 12.871234,24.1546 -12.667374,22.10664 16.853044,10.99722 -3.82284,35.53148 23.43828,5.90633 5.27979,26.35778 25.54047,-2.65392 15.86741,18.05937 19.61169,-19.14974 c 35.75218,-17.82746 50.47498,-27.79977 78.33833,-57.9355 31.71799,-34.30645 49.89706,-66.02444 92.14657,-89.51321 30.30219,-16.84744 55.01787,-22.91087 89.05687,-17.02885 31.95926,5.52105 42.66097,24.69136 66.19837,44.88658 2.49495,-4.51671 3.0018,-5.71369 7.11266,-9.03904 -1.29049,5.86518 -3.34031,11.94919 -3.86212,17.58994 z"
     id="path6814"
     inkscape:connector-curvature="0"
     style="stroke-width:1.87027478" />
</svg>
