<?xml version="1.0" encoding="UTF-8" standalone="no"?>
<svg
   xmlns:dc="http://purl.org/dc/elements/1.1/"
   xmlns:cc="http://creativecommons.org/ns#"
   xmlns:rdf="http://www.w3.org/1999/02/22-rdf-syntax-ns#"
   xmlns:svg="http://www.w3.org/2000/svg"
   xmlns="http://www.w3.org/2000/svg"
   xmlns:sodipodi="http://sodipodi.sourceforge.net/DTD/sodipodi-0.dtd"
   xmlns:inkscape="http://www.inkscape.org/namespaces/inkscape"
   inkscape:export-ydpi="96"
   inkscape:export-xdpi="96"
   inkscape:export-filename="/Users/lioh/Downloads/gnu-linux-new-eyes.png"
   version="1.1"
   id="Calque_1"
   x="0px"
   y="0px"
   width="1542.281"
   height="894.71289"
   viewBox="0 0 1542.281 894.71289"
   enable-background="new 0 0 712 860"
   xml:space="preserve"
   sodipodi:docname="gnu-linux-new_eyes.svg"
   inkscape:version="1.0 (4035a4f, 2020-05-01)"><metadata
   id="metadata860"><rdf:RDF><cc:Work
       rdf:about=""><dc:format>image/svg+xml</dc:format><dc:type
         rdf:resource="http://purl.org/dc/dcmitype/StillImage" /><dc:title /></cc:Work></rdf:RDF></metadata><defs
   id="defs858" /><sodipodi:namedview
   fit-margin-bottom="0"
   fit-margin-right="0"
   fit-margin-left="0"
   fit-margin-top="0"
   inkscape:document-rotation="0"
   pagecolor="#ffffff"
   bordercolor="#666666"
   borderopacity="1"
   objecttolerance="10"
   gridtolerance="10"
   guidetolerance="10"
   inkscape:pageopacity="0"
   inkscape:pageshadow="2"
   inkscape:window-width="1366"
   inkscape:window-height="674"
   id="namedview856"
   showgrid="false"
   inkscape:zoom="2.2334324"
   inkscape:cx="642.33925"
   inkscape:cy="284.38298"
   inkscape:window-x="0"
   inkscape:window-y="23"
   inkscape:window-maximized="1"
   inkscape:current-layer="g2310" />







<g
   transform="translate(832.60755,35.904411)"
   id="g2302"><path
     id="path839"
     d="m 683.91,677.74 c -0.01,-0.01 -0.021,-0.021 -0.021,-0.03 -6.069,-6.85 -8.96,-19.55 -12.069,-33.08 -3.101,-13.52 -6.57,-28.1 -17.67,-37.55 -0.021,-0.021 -0.051,-0.04 -0.07,-0.061 -2.2,-1.92 -4.46,-3.539 -6.73,-4.89 -2.279,-1.35 -4.59,-2.45 -6.899,-3.32 15.43,-45.76 9.38,-91.329 -6.2,-132.5 -19.11,-50.54 -52.48,-94.569 -77.97,-124.689 C 527.751,305.63 499.85,271.47 500.401,221.01 501.25,144 508.87,1.19 373.35,1 367.84,0.99 362.09,1.22 356.1,1.7 204.66,13.89 244.83,173.89 242.58,227.46 c -2.77,39.18 -10.71,70.06 -37.66,108.36 -31.65,37.64 -76.23,98.57 -97.34,162 -9.96,29.93 -14.7,60.439 -10.33,89.319 -1.37,1.23 -2.67,2.521 -3.92,3.841 -9.29,9.93 -16.16,21.949 -23.81,30.039 -7.15,7.141 -17.33,9.851 -28.53,13.86 -11.2,4.021 -23.49,9.94 -30.95,24.26 0,0 0,0.011 -0.01,0.011 -0.01,0.02 -0.02,0.05 -0.04,0.069 -3.51,6.55 -4.65,13.62 -4.65,20.79 0,6.63 0.98,13.351 1.97,19.82 2.06,13.46 4.15,26.189 1.38,34.81 -8.86,24.23 -10,40.98 -3.76,53.141 6.26,12.18 19.11,17.55 33.64,20.59 29.06,6.06 68.41,4.56 99.42,21 l 2.67,-5.03 -2.64,5.04 c 33.2,17.36 66.86,23.521 93.71,17.39 19.48,-4.439 35.28,-16.039 43.4,-33.88 21,-0.1 44.05,-9 80.97,-11.029 25.05,-2.021 56.34,8.899 92.33,6.899 0.94,3.9 2.301,7.66 4.16,11.23 0.021,0.029 0.04,0.069 0.061,0.1 13.949,27.9 39.869,40.66 67.5,38.48 27.659,-2.181 57.069,-18.49 80.85,-46.78 l -4.36,-3.66 4.391,3.62 c 22.66,-27.48 60.27,-38.87 85.22,-53.91 12.47,-7.52 22.58,-16.939 23.37,-30.62 0.778,-13.67 -7.252,-28.99 -25.712,-49.48 z"
     fill="#000000" /><g
     id="g2291"><path
       fill="#D6A312"
       d="m 698.24,726.57 c -0.48,8.439 -6.59,14.71 -17.88,21.51 -22.561,13.61 -62.551,25.45 -88.08,56.38 -22.181,26.39 -49.221,40.88 -73.03,42.76 -23.809,1.88 -44.35,-8 -56.47,-32.31 l -0.021,-0.05 -0.029,-0.061 c -7.521,-14.3 -4.391,-36.85 1.939,-60.649 6.33,-23.79 15.43,-48.23 16.65,-68.08 v -0.061 c 1.279,-25.439 2.71,-47.66 6.979,-64.81 4.28,-17.15 11.01,-28.75 22.931,-35.28 0.56,-0.3 1.109,-0.59 1.659,-0.86 1.351,22.03 12.261,44.511 31.54,49.37 21.101,5.561 51.511,-12.54 64.351,-27.31 2.569,-0.101 5.069,-0.23 7.5,-0.29 11.27,-0.271 20.71,0.38 30.37,8.82 l 0.029,0.029 0.03,0.021 c 7.42,6.29 10.95,18.17 14.01,31.47 3.061,13.311 5.5,27.8 14.681,38.13 l 0.01,0.01 0.01,0.021 c 17.641,19.57 23.311,32.79 22.821,41.24 z"
       id="path841"
       style="fill:#ffcc00;fill-opacity:1" /><path
       fill="#D6A312"
       d="m 269.49,788.95 -0.01,0.06 v 0.07 c -2.04,26.74 -17.12,41.3 -40.28,46.59 -23.14,5.29 -54.53,0.021 -85.87,-16.37 -0.01,0 -0.02,-0.01 -0.03,-0.01 C 108.62,800.92 67.37,802.75 40.9,797.22 27.67,794.46 19.03,790.3 15.07,782.58 c -3.96,-7.73 -4.05,-21.2 4.37,-44.17 l 0.04,-0.101 0.03,-0.1 c 4.17,-12.85 1.08,-26.91 -0.94,-40.11 -2.02,-13.189 -3.01,-25.199 1.5,-33.56 l 0.04,-0.08 c 5.77,-11.12 14.23,-15.1 24.73,-18.86 10.51,-3.77 22.96,-6.729 32.79,-16.59 l 0.06,-0.05 0.05,-0.05 c 9.09,-9.59 15.92,-21.62 23.91,-30.15 6.74,-7.2 13.49,-11.97 23.66,-12.04 0.12,0.011 0.23,0.011 0.35,0 1.78,0.011 3.67,0.16 5.67,0.471 13.5,2.04 25.27,11.479 36.61,26.859 l 32.74,59.67 0.01,0.03 0.02,0.02 c 8.71,18.19 27.11,38.2 42.7,58.61 15.59,20.401 27.65,40.891 26.08,56.571 z"
       id="path843"
       style="fill:#ffcc00;fill-opacity:1" /><path
       fill="#D6A312"
       d="m 432.77,232.69 c -2.63,-5.15 -8,-10.05 -17.14,-13.8 l -0.02,-0.01 -0.03,-0.01 c -19.01,-8.14 -27.26,-8.72 -37.87,-15.62 -17.27,-11.1 -31.54,-14.99 -43.4,-14.94 -6.21,0.02 -11.76,1.12 -16.73,2.84 -14.45,4.97 -24.04,15.34 -30.05,21.03 l -0.01,0.01 c 0,0.01 -0.01,0.01 -0.01,0.02 -1.18,1.12 -2.7,2.14 -6.38,4.84 -3.71,2.71 -9.27,6.79 -17.27,12.79 -7.11,5.33 -9.42,12.27 -6.96,20.4 2.45,8.13 10.29,17.51 24.63,25.62 l 0.02,0.02 0.03,0.01 c 8.9,5.23 14.98,12.28 21.96,17.89 3.49,2.8 7.16,5.3 11.58,7.19 4.42,1.89 9.58,3.17 16.04,3.55 15.16,0.88 26.32,-3.67 36.17,-9.31 9.87,-5.63 18.229,-12.52 27.82,-15.63 l 0.02,-0.01 0.021,-0.01 c 19.659,-6.14 33.68,-18.51 38.069,-30.26 2.2,-5.88 2.13,-11.46 -0.49,-16.61 z"
       id="path845"
       style="fill:#ffcc00;fill-opacity:1" /><path
       fill="#000000"
       d="m 417.6,243.82 c -2.909,0.17 -7.949,2.26 -13.93,5.61 -5.99,3.34 -13.03,7.8 -20.78,12.28 -15.51,8.95 -33.91,18.04 -53.35,18.04 -19.43,0 -34.78,-8.98 -45.82,-17.73 -5.52,-4.37 -10,-8.72 -13.38,-11.88 -1.69,-1.58 -3.11,-2.86 -4.13,-3.65 -0.63,-0.49 -1.17,-0.68 -1.28,-0.74 -0.07,-0.05 0.1,0 0.27,-1.64 l 0.11,-4.9 c 2.33,0 3.47,1.07 4.86,2.14 1.39,1.08 2.89,2.45 4.61,4.06 3.44,3.22 7.75,7.39 12.97,11.53 10.44,8.27 24.36,16.32 41.79,16.32 17.4,0 34.9,-8.39 50.11,-17.17 7.6,-4.39 14.619,-8.84 20.859,-12.33 6.24,-3.48 11.601,-6.11 16.71,-6.42 z"
       id="path847" /><path
       fill="#ffffff"
       d="m 622.39,595.47 c -2.17,-0.08 -4.31,-0.069 -6.39,-0.02 -0.19,0.01 -0.38,0.01 -0.58,0.01 5.37,-16.96 -6.51,-29.47 -38.17,-43.79 -32.83,-14.439 -58.99,-13.01 -63.41,16.29 -0.28,1.53 -0.51,3.1 -0.68,4.68 -2.46,0.86 -4.92,1.94 -7.4,3.29 -15.41,8.44 -23.83,23.74 -28.51,42.521 -4.67,18.76 -6.02,41.43 -7.3,66.92 0,0.01 0,0.01 0,0.02 -0.79,12.811 -6.07,30.15 -11.41,48.511 -53.78,38.369 -128.42,54.989 -191.8,11.729 -4.29,-6.79 -9.22,-13.52 -14.29,-20.16 -3.24,-4.239 -6.57,-8.45 -9.87,-12.609 6.5,0.01 12.03,-1.061 16.5,-3.08 5.56,-2.53 9.46,-6.57 11.4,-11.771 3.86,-10.39 -0.02,-25.05 -12.39,-41.8 -12.37,-16.74 -33.32,-35.63 -64.1,-54.51 0,0 0,0 0,-0.01 -22.62,-14.07 -35.26,-31.311 -41.18,-50.03 -5.93,-18.73 -5.1,-38.98 -0.53,-58.97 8.76,-38.37 31.26,-75.69 45.62,-99.11 3.86,-2.84 1.38,5.28 -14.54,34.84 -14.26,27.021 -40.93,89.38 -4.42,138.061 0.98,-34.641 9.25,-69.971 23.14,-103.021 20.23,-45.85 62.54,-125.38 65.9,-188.76 1.74,1.26 7.69,5.28 10.34,6.79 0.01,0.01 0.01,0.01 0.02,0.01 7.76,4.57 13.59,11.25 21.14,17.32 7.57,6.08 17.02,11.33 31.3,12.16 1.37,0.08 2.71,0.12 4.02,0.12 14.72,0 26.2,-4.8 35.76,-10.27 10.391,-5.94 18.69,-12.52 26.561,-15.08 0.01,-0.01 0.02,-0.01 0.03,-0.01 16.63,-5.2 29.84,-14.4 37.359,-25.12 12.92,50.92 42.96,124.47 62.271,160.36 10.27,19.04 30.689,59.5 39.51,108.25 5.59,-0.171 11.75,0.64 18.34,2.329 23.07,-59.81 -19.56,-124.22 -39.06,-142.16 -7.87,-7.64 -8.25,-11.06 -4.34,-10.9 21.14,18.71 48.909,56.32 59.01,98.78 4.609,19.359 5.59,39.72 0.649,59.81 2.41,1 4.87,2.09 7.36,3.271 37.03,18.029 50.72,33.709 44.14,55.109 z"
       id="path849" /><path
       fill="#ffffff"
       d="m 434.51,174.03 c 0.08,10.09 -1.66,18.68 -5.49,27.45 -2.18,5 -4.689,9.2 -7.699,12.84 -1.021,-0.49 -2.08,-0.96 -3.181,-1.41 -3.81,-1.63 -7.18,-2.97 -10.199,-4.11 -3.021,-1.14 -5.7,-2.08 -8.131,-2.92 1.761,-2.13 3.23,-4.64 4.521,-7.79 1.96,-4.75 2.92,-9.39 3.1,-14.92 0,-0.22 0.07,-0.41 0.07,-0.67 0.11,-5.3 -0.59,-9.83 -2.14,-14.47 -1.62,-4.87 -3.681,-8.37 -6.66,-11.28 -2.99,-2.91 -5.97,-4.23 -9.55,-4.35 -0.17,-0.01 -0.33,-0.01 -0.5,-0.01 -3.36,0.01 -6.28,1.17 -9.301,3.69 -3.17,2.65 -5.52,6.04 -7.479,10.76 -1.95,4.72 -2.91,9.4 -3.101,14.96 -0.029,0.22 -0.029,0.41 -0.029,0.63 -0.07,3.06 0.13,5.86 0.6,8.58 -6.88,-3.43 -13.36,-5.77 -19.44,-7.22 -0.35,-2.63 -0.55,-5.34 -0.61,-8.18 v -0.77 c -0.11,-10.06 1.54,-18.69 5.41,-27.45 3.87,-8.77 8.66,-15.07 15.399,-20.2 6.75,-5.12 13.381,-7.47 21.23,-7.55 h 0.37 c 7.68,0 14.25,2.26 21,7.15 6.85,4.98 11.79,11.2 15.77,19.9 3.9,8.48 5.78,16.77 5.971,26.6 -10e-4,0.26 -10e-4,0.48 0.069,0.74 z"
       id="path851" /><path
       fill="#ffffff"
       d="m 318.43,184.08 c -1.01,0.29 -1.99,0.6 -2.96,0.93 -5.5,1.9 -10.35,4.48 -14.57,7.27 0.41,-2.92 0.47,-5.88 0.15,-9.19 -0.03,-0.18 -0.03,-0.33 -0.03,-0.51 -0.44,-4.39 -1.37,-8.07 -2.92,-11.79 -1.65,-3.87 -3.5,-6.6 -5.93,-8.7 -2.2,-1.9 -4.28,-2.78 -6.58,-2.76 -0.23,0 -0.47,0.01 -0.71,0.03 -2.58,0.22 -4.72,1.48 -6.75,3.95 -2.02,2.46 -3.35,5.52 -4.31,9.58 -0.96,4.05 -1.21,8.03 -0.81,12.6 0,0.18 0.04,0.33 0.04,0.51 0.44,4.43 1.33,8.11 2.91,11.83 1.62,3.83 3.5,6.56 5.93,8.66 0.41,0.35 0.81,0.67 1.21,0.95 -2.52,1.95 -3.73,2.85 -5.81,4.37 -1.33,0.97 -2.91,2.13 -4.75,3.49 -4.01,-3.76 -7.14,-8.48 -9.88,-14.71 -3.24,-7.36 -4.97,-14.73 -5.49,-23.43 v -0.07 c -0.48,-8.7 0.37,-16.18 2.76,-23.92 2.4,-7.74 5.6,-13.34 10.25,-17.94 4.64,-4.61 9.32,-6.93 14.96,-7.22 0.44,-0.02 0.87,-0.03 1.3,-0.03 5.11,0.01 9.67,1.71 14.39,5.48 5.12,4.09 8.99,9.32 12.23,16.69 3.25,7.37 4.98,14.74 5.46,23.44 v 0.07 c 0.23,3.65 0.2,7.09 -0.09,10.42 z"
       id="path853" /></g></g>
<g
   transform="translate(815.66501,13.278123)"
   id="g2310"><path
     inkscape:connector-curvature="0"
     id="path2996"
     d="m -233.74261,853.08192 c -25.6525,-3.75576 -42.99219,-8.94312 -63.30356,-18.93786 -34.97548,-17.2111 -61.59706,-41.72318 -76.57831,-70.51081 l -4.54432,-8.73122 -2.92933,6.19644 c -4.08934,8.64917 -5.02573,9.24071 -10.62978,6.71538 -7.14002,-3.21737 -16.12184,-12.88307 -21.21919,-22.83512 -5.47269,-10.68418 -9.10741,-22.05519 -12.96689,-40.56562 -3.37921,-16.20561 -4.38467,-19.33674 -6.03401,-18.7862 -0.65293,0.21809 -3.22847,4.31588 -5.7231,9.1064 -5.46082,10.48611 -7.28105,11.21085 -13.66053,5.43927 -9.88609,-8.94447 -15.41457,-22.58308 -18.77655,-46.32083 -3.03781,-21.44291 -3.1584,-22.00218 -4.74431,-22.00218 -0.79219,0 -3.04623,3.68898 -5.00941,8.19773 -1.96291,4.50881 -4.23074,8.1978 -5.03952,8.1978 -2.24639,0 -12.06865,-21.23412 -14.66217,-31.69802 -3.29423,-13.29142 -4.03115,-37.88609 -1.65381,-55.1983 0.99025,-7.21399 2.08914,-14.07248 2.44177,-15.24107 0.4079,-1.35289 -2.54605,0.53746 -8.1331,5.20425 -34.27199,28.62718 -94.33902,50.1191 -140.4886,50.2666 -20.47271,0.0653 -30.80357,-3.28503 -34.03857,-11.03881 -2.53992,-6.08606 0.16758,-11.95074 11.70529,-25.36723 18.03081,-20.96536 29.52947,-40.27279 38.73005,-65.03369 3.41582,-9.19162 13.90432,-48.36696 16.16843,-60.39021 l 0.66878,-3.55236 -9.5222,-0.009 c -28.08458,-0.0559 -60.19761,-7.16507 -83.81111,-18.55397 -53.05084,-25.58701 -87.95904,-76.70999 -101.94748,-149.30257 -13.83757,-71.80998 -4.59408,-131.80965 27.76999,-180.25628 35.64271,-53.354521 98.05875,-89.4245218 172.4398,-99.652004 16.77621,-2.306712 49.12753,-2.258749 64.22594,0.09521 24.14098,3.7638692 39.13474,9.6321472 58.16092,22.763409 6.54349,4.515997 14.48195,9.512338 17.64138,11.102952 8.67362,4.366887 23.76717,9.077026 33.54732,10.468807 13.6367,1.940487 15.82578,2.870261 15.82578,6.720608 0,12.722775 -16.92057,21.39047 -48.9038,25.051392 -10.79543,1.235659 -20.70091,1.130946 -65.69698,-0.694438 -14.24444,-0.57787 -18.98761,-0.333039 -30.02044,1.549708 -33.14108,5.655173 -62.74403,21.103092 -87.2854,45.548106 -22.2835,22.19625 -36.57746,46.14319 -43.99138,73.69923 -2.42123,9.00053 -2.82122,12.75822 -2.85862,26.86003 -0.0383,15.12894 0.1885,17.07103 2.97169,25.13982 13.18387,38.22695 51.96317,51.62601 91.87812,31.74586 18.70823,-9.31787 35.74788,-24.78994 52.43627,-47.61184 33.91209,-46.37556 53.03486,-65.66107 82.94887,-83.65349 53.35903,-32.0942 113.11108,-27.06665 161.82087,13.61565 6.10829,5.10159 7.10864,5.5851 8.87858,4.29126 1.09748,-0.80199 5.12109,-3.74921 8.94228,-6.54937 26.1131,-19.13722 58.58209,-27.49387 88.25895,-22.71539 17.98293,2.89558 42.20357,13.58222 60.57488,26.72712 18.95202,13.56041 32.07792,27.12096 65.658167,67.83262 23.280273,28.22411 37.834085,41.50511 54.945701,50.14107 10.3668598,5.23217 17.9862668,7.44494 26.1008598,7.58053 30.5361802,0.51036 54.6781612,-42.94265 54.6611222,-98.38215 0,-31.98671 -8.599023,-58.95477 -23.930819,-75.1375 C 21.297487,87.450212 1.5865898,77.302704 -24.254021,72.789853 c -5.044499,-0.880967 -19.126104,-2.109136 -31.29264,-2.729273 -27.938302,-1.42406 -40.014742,-2.912126 -48.445349,-5.96946 -12.38044,-4.489584 -23.29915,-12.399493 -27.19461,-19.700969 -2.02061,-3.787439 -2.03555,-4.098084 -0.25909,-5.409228 1.19268,-0.88031 7.60446,-1.649577 17.46297,-2.095231 30.272117,-1.368402 54.15441,-6.465197 95.798721,-20.444718 C 12.560574,6.1205662 21.835439,4.4825102 38.154363,6.4909552 64.125481,9.6873122 86.925053,21.5267 109.93199,43.763993 c 40.81504,39.449488 66.26043,97.343407 67.99576,154.705607 1.08163,35.7494 -4.13065,54.42469 -29.14949,104.44011 -19.8462,39.67522 -37.56783,60.06097 -63.103007,72.58898 -14.124506,6.92998 -28.398848,10.80499 -52.834566,14.34281 -7.653604,1.10814 -13.915674,2.42758 -13.915674,2.93222 0,2.87162 13.991231,21.41708 22.899529,30.35261 11.874995,11.91237 20.411328,17.02166 34.400765,20.59018 8.79529,2.24357 13.642964,5.64169 13.642964,9.56312 0,6.11923 -11.169696,15.06072 -25.236515,20.20204 -13.709969,5.01081 -26.349254,6.78827 -43.524052,6.12067 -34.013284,-1.3221 -63.571067,-15.01474 -90.04344,-41.71271 -6.603117,-6.65946 -13.233767,-13.94036 -14.734557,-16.17983 -1.50039,-2.23944 -3.0244,-4.0751 -3.38532,-4.07919 -0.36158,-0.002 -0.95658,4.29636 -1.32287,9.55657 -0.36565,5.26025 -2.64127,17.66392 -5.05649,27.56369 l -4.39158,17.99957 3.53109,3.66767 c 12.70348,13.19469 31.165282,19.00855 48.787009,15.36357 8.727222,-1.80516 13.10461,-0.63057 19.664948,5.27672 9.567142,8.61423 14.564929,21.67621 14.564929,38.06603 0,19.31625 -5.471035,30.90372 -22.156513,46.92485 -18.221973,17.49668 -22.775486,22.52645 -25.680815,28.36558 -4.949542,9.94644 -3.20985,15.79056 7.527506,25.2901 8.939464,7.90852 10.667677,12.1696 7.890225,19.45279 -1.004936,2.63458 -3.560046,6.81815 -5.678676,9.29681 -4.640567,5.42941 -20.594853,16.31838 -29.053143,19.82934 l -6.11837,2.53964 3.1325,4.33023 c 7.18278,9.93036 9.54123,24.37718 5.95462,36.47369 -3.41034,11.499 -14.87467,23.36218 -24.28648,25.13037 -2.730607,0.51297 -6.157307,0.0224 -11.195937,-1.60289 -8.50807,-2.74417 -14.37232,-2.95589 -20.62968,-0.74492 -6.9205,2.44518 -11.77981,6.7674 -14.98494,13.3286 -2.73789,5.60325 -2.90316,6.81795 -2.74274,20.11947 0.29496,24.45926 -4.35071,38.58723 -16.69071,50.75796 -12.10424,11.9386 -28.36751,17.87164 -50.83365,18.54484 -7.50363,0.22484 -15.11614,0.19324 -16.91723,-0.0704 z m 19.95747,-40.60833 c -9.88915,-19.48018 -10.73264,-32.79434 -3.11082,-49.10519 3.71922,-7.95924 12.57725,-17.47479 19.61416,-21.07003 11.44352,-5.84652 33.67187,-8.78083 66.67983,-8.80216 31.456127,-0.009 40.817787,-3.46433 43.738677,-16.09197 1.26735,-5.47657 -1.14379,-13.79066 -5.53955,-19.10348 -1.92069,-2.32101 -6.47216,-5.58684 -10.663597,-7.6512 -7.15726,-3.52499 -7.61558,-3.60071 -21.51709,-3.55444 -14.19034,0.0471 -14.21994,0.0528 -30.57575,5.66141 -20.8395,7.14628 -28.1138,8.40332 -44.10536,7.62139 -15.24952,-0.74565 -22.3168,-2.55842 -36.66078,-9.40337 -25.87789,-12.34864 -50.0817,-37.23633 -58.39283,-60.04179 -2.7726,-7.60894 -3.69777,-12.51248 -3.38394,-17.93803 0.21161,-3.64747 2.11723,-1.87352 6.46195,6.01166 16.75885,30.41609 44.29067,55.21614 69.56844,62.66534 7.60306,2.24058 20.0814,2.46395 29.40387,0.52636 3.60153,-0.74859 16.10296,-4.02439 27.78007,-7.27953 11.67746,-3.25518 25.42939,-6.73444 30.56042,-7.73169 10.125,-1.9681 30.57996,-2.50911 43.708437,-1.15615 14.52152,1.49656 23.588091,-3.84665 23.362068,-13.76753 -0.131324,-5.83962 -3.153438,-11.66285 -10.249178,-19.761 -6.32781,-7.22174 -7.65591,-9.94103 -7.65591,-15.68117 0,-8.94182 7.33314,-17.49082 33.733407,-39.32836 15.43675,-12.76896 20.562426,-24.05876 19.486651,-42.92325 -0.65257,-11.44401 -3.740661,-19.19619 -9.84742,-24.72135 l -4.389887,-3.97199 -7.212268,0.87468 c -3.96695,0.48105 -11.38749,0.89432 -16.489933,0.91835 -8.01683,0.0379 -10.14695,-0.37831 -15.6804,-3.06326 -17.130757,-8.31222 -33.815327,-31.08162 -43.776197,-59.74045 -5.51277,-15.85972 -12.56207,-28.72567 -27.73538,-50.61847 -19.29356,-27.83681 -20.58592,-30.81478 -17.05137,-39.28659 0.89426,-2.14351 1.95041,-8.12258 2.34668,-13.28676 0.39641,-5.16421 1.06608,-9.60314 1.48789,-9.86431 0.42219,-0.26115 1.94429,1.34152 3.38342,3.56152 4.13274,6.37603 6.04397,6.85342 17.66745,4.41327 14.52408,-3.04912 27.48663,-2.38244 36.24613,1.8642 3.60154,1.7461 6.98943,3.38649 7.5284,3.64529 2.54184,1.22091 -0.60292,-14.82116 -6.30099,-32.1405 -3.37642,-10.26209 -6.13891,-19.99187 -6.13891,-21.62176 0,-6.75995 6.95381,-3.87731 15.34179,6.35957 9.917727,12.10483 13.319907,20.12696 21.335847,50.31608 9.33473,35.1573 16.447947,52.70888 27.125078,66.93022 9.201344,12.25496 14.421325,13.99998 22.125099,7.39618 2.454551,-2.10412 4.905772,-3.82564 5.446526,-3.82564 0.541141,0 5.878939,4.79569 11.862018,10.65712 16.6890398,16.34936 28.188206,22.11722 45.74448,22.94459 7.60903,0.35851 10.31536,0.0911 12.006292,-1.18528 2.129412,-1.60794 2.102737,-1.67749 -1.091514,-2.85178 C 31.143617,444.13778 20.512963,434.10907 9.0310228,416.80149 0.30585277,403.64959 -15.020892,373.02821 -23.660556,351.48603 -34.75272,323.83009 -44.83917,307.17886 -60.454466,290.74567 c -25.604887,-26.94532 -51.843314,-39.4734 -82.699224,-39.48617 -16.65011,-0.003 -24.0962,1.99865 -41.42528,11.15801 -16.78884,8.87372 -24.77774,11.87402 -33.88362,12.72483 -8.98158,0.83927 -15.96449,-1.17989 -41.73351,-12.06737 -42.40191,-17.91525 -62.45778,-22.90522 -92.51332,-23.01743 -20.29798,-0.0756 -23.67782,0.81361 -60.19542,15.83891 -14.49881,5.96545 -30.95187,12.10318 -36.56331,13.63933 -39.0528,10.6916 -57.21785,20.39403 -78.44001,41.89662 -32.75001,33.18295 -50.09085,77.84883 -57.28029,147.53858 -2.59071,25.11328 -7.70068,38.8495 -25.88719,69.58674 -3.91296,6.61288 -8.18964,14.15162 -9.50396,16.75274 -6.45032,12.76308 1.85737,13.18812 26.72877,1.36773 21.78129,-10.35171 32.05753,-18.99346 46.20166,-38.85344 12.49351,-17.54232 14.72102,-18.68011 20.2343,-10.33648 5.19332,7.85897 6.08569,6.53709 14.25249,-21.11021 5.46975,-18.51779 10.92381,-30.68827 14.00885,-31.26005 1.09478,-0.20314 2.90164,0.45616 4.01467,1.46481 1.22932,1.11434 2.87099,1.56445 4.1839,1.14718 3.63397,-1.15504 10.76225,-9.83726 15.00717,-18.27855 9.29552,-18.48415 9.96544,-31.23846 11.40191,-57.52262 1.19395,-21.84786 6.47559,-34.60435 13.50217,-48.86169 11.42375,-23.1798 34.0328,-38.71649 59.19533,-40.67852 9.66491,-0.75366 13.49018,0.0871 13.49018,2.96443 0,2.63307 -3.1939,4.80754 -11.02504,7.50578 -9.74658,3.3582 -14.3671,6.16864 -19.92657,12.12109 -9.86631,10.56339 -14.04395,23.64267 -16.60034,51.9713 -6.80819,75.45495 -8.11959,82.00544 -22.48821,112.3158 l -6.86193,14.47631 0.0905,12.56986 c 0.10606,13.92501 1.94351,21.31416 5.30409,21.31416 1.24336,0 3.624,-2.76809 6.57975,-7.6512 5.61997,-9.283 12.73397,-16.94205 15.73667,-16.94205 3.10163,0 5.82067,4.80456 4.30254,13.05653 0.37156,13.47576 0.529,39.35643 7.07389,71.17178 4.44657,21.61595 6.98212,39.28467 9.2119,39.28467 0.53963,0 2.76469,-3.56601 4.94394,-7.92451 7.07622,-14.14834 18.2438,-27.4112 21.42418,-25.44275 0.62692,0.38783 1.13933,2.32974 1.13933,4.31527 0,1.98554 1.72439,13.39238 3.83205,25.34855 13.94565,79.11154 35.1392,128.1771 69.24195,160.30554 19.78762,18.642 45.80907,31.78868 73.72429,37.24684 15.10517,2.95345 19.55953,3.44404 18.86626,2.07757 z m 14.03055,-229.53735 c -0.29687,-1.05206 -0.86251,-3.99181 -1.25677,-6.53277 -0.9013,-5.8072 -4.62306,-11.43338 -8.4565,-12.78347 -2.49449,-0.8785 -3.70034,-0.49287 -7.89852,2.52678 -2.72538,1.95994 -6.49679,4.00628 -8.38046,4.54742 -11.0295,3.16781 -26.71435,-10.12078 -24.40034,-20.67244 2.29898,-10.48214 22.57641,-16.86209 35.26379,-11.09518 10.60322,4.8195 25.34365,25.6877 25.34365,35.87865 0,6.57206 -8.70145,13.49807 -10.21485,8.13101 z m -64.9907,-7.59503 c -10.13928,-12.31123 -12.95297,-36.77222 -5.95141,-51.75489 8.4357,-18.05253 29.98687,-29.43642 53.02502,-28.00878 22.58687,1.39971 48.08328,14.88762 72.38763,38.29387 8.37418,8.0646 9.23644,9.27881 9.23108,12.99467 0,7.8239 -7.33313,11.02724 -13.7745,6.02693 -1.73206,-1.34424 -8.79704,-7.5463 -15.70044,-13.78242 -31.98821,-28.89616 -52.95051,-36.58943 -73.73411,-27.06044 -18.03883,8.27028 -26.19695,29.57485 -22.23921,58.0727 0.64069,4.61217 0.94266,8.60793 0.67146,8.87962 -0.27135,0.27162 -2.03299,-1.37593 -3.91552,-3.66126 z M -328.8044,407.89067 c -10.03362,-6.1274 -16.77293,-15.3371 -17.40431,-27.36707 -0.53106,-10.13048 2.43645,-17.21479 9.21377,-24.47046 5.7924,-6.20159 12.59307,-9.94358 22.19211,-12.21 7.54946,-1.78256 25.25417,-2.13649 31.71625,-0.63404 3.62028,0.84165 4.32505,0.66779 5.64472,-1.39234 0.82959,-1.29478 2.10178,-5.42827 2.82696,-9.18557 0.78582,-4.0717 1.87486,-6.83148 2.69577,-6.83148 1.58821,0 2.06427,1.69553 3.82068,13.60313 0.89391,6.05982 2.07306,9.72469 3.90261,12.12654 4.18723,5.49801 3.09051,12.66405 -2.24983,14.69736 -1.96331,0.74753 -4.54177,0.10458 -11.12088,-2.77154 -9.87408,-4.31709 -15.71766,-4.8063 -18.93376,-1.58533 -4.47158,4.47785 -1.29543,13.11642 4.82231,13.11642 4.26135,0 6.24637,-1.20965 7.71153,-4.69995 l 1.37724,-3.27974 1.3535,4.10814 c 2.56596,7.78507 -0.77943,17.15603 -7.8845,22.08698 -3.81147,2.64505 -5.52885,3.09875 -11.73233,3.09875 -5.94951,0 -7.99897,-0.49561 -11.29905,-2.73261 -4.32264,-2.92946 -9.45203,-11.72686 -9.45203,-16.21002 0,-5.04112 2.54454,-11.06329 6.2224,-14.85521 2.90061,-3.71488 2.90061,-3.71488 0.90654,-2.74168 -9.10065,3.46506 -15.02899,9.1685 -17.00913,16.53136 -2.12475,7.90323 0.87297,18.48402 7.67442,27.08383 1.81371,2.2931 4.92126,5.34483 4.92126,6.00982 0,1.88863 -6.18722,0.7818 -9.91625,-1.49529 z m 223.29183,47.4696 c 0.56323,-1.48325 2.51569,-12.93272 4.33923,-25.44344 5.932417,-40.7082 4.041337,-58.60266 -7.16938,-67.85724 -3.31003,-2.73224 -9.78269,-5.91224 -7.61454,-3.74091 0.36973,0.37003 -0.8134,1.29829 -2.62889,2.06273 -8.23266,3.46666 -5.42253,15.26553 3.43077,14.40623 2.63144,-0.25538 4.22948,-1.31029 6.01219,-3.96917 l 2.42825,-3.62135 0.74241,3.96288 c 2.62187,13.99729 -6.35116,25.68697 -19.71791,25.68697 -8.71219,0 -14.86038,-5.57863 -18.77027,-12.67321 -1.37454,-2.49414 -1.42127,-5.00304 -1.42127,-7.78391 0,-9.66407 7.32699,-18.42733 16.51545,-19.75363 l 4.76743,-0.68815 -4.91151,-0.78368 c -2.701,-0.43104 -8.84055,-0.8194 -13.64308,-0.86301 -9.91109,-0.0902 -15.30746,1.9013 -17.91477,6.61042 -2.91222,5.26181 0.44197,10.93977 15.49151,26.21924 15.38634,15.62123 17.97693,20.03861 24.29351,41.41905 6.29551,21.30921 9.96532,29.50686 13.20836,29.50686 0.84631,0 1.99967,-1.21352 2.56251,-2.69668 z m -575.74427,-76.82161 c -2.3172,-5.51541 -7.02158,-20.44405 -8.2181,-26.08082 -2.12717,-10.02207 -1.98973,-23.97747 0.25845,-26.23223 2.85619,-2.86479 6.72396,-0.59346 17.22763,10.1177 21.85595,22.28804 38.52379,30.481 64.60155,31.75494 l 12.72375,0.62162 6.21473,-9.64824 c 31.62513,-49.09394 72.37741,-84.64175 114.58981,-99.95493 12.52388,-4.5432 17.66767,-7.14895 18.98773,-9.61864 1.5092,-2.82477 0.40306,-4.00771 -8.10477,-8.66474 -4.17178,-2.28403 -7.73618,-4.93497 -7.91997,-5.89102 -0.92784,-4.82667 25.93636,-11.04462 63.06887,-14.59775 20.02639,-1.91622 25.11722,-2.66683 25.07356,-3.69673 -0.0255,-0.38399 -4.04848,-2.6656 -8.96051,-5.07028 -14.14592,-6.92565 -14.69868,-10.65789 -2.13038,-14.39298 8.35685,-2.48341 31.94062,-2.43785 46.04685,0.0885 22.6739,4.06155 47.60594,14.57035 73.64171,31.03965 34.95312,22.11051 40.90162,25.14353 53.96194,27.51532 14.43895,2.62208 27.15238,-2.91273 45.29039,-19.71687 14.68209,-13.60207 22.76949,-18.00903 27.9526,-15.2312 1.65112,0.885 2.16036,2.29329 2.16036,5.97367 0,2.65223 0.61299,5.21296 1.36474,5.69996 0.74995,0.48637 8.91775,0.88432 18.1496,0.88432 17.96825,0 16.68713,-0.36564 19.51907,5.57247 0.45819,0.96076 4.26443,2.847 8.458557,4.19164 8.87551,2.84548 19.31984,7.98756 27.8172,13.69538 8.659308,5.81635 9.232093,6.11902 8.157733,4.30851 -17.447283,-29.39807 -51.92245,-69.04765 -75.28121,-86.57998 -11.30518,-8.48552 -30.60956,-18.42274 -40.92882,-21.0691 -10.1361,-2.59939 -25.53525,-0.85454 -34.54465,2.01128 -8.20611,2.61029 -14.48619,6.48587 -18.15154,10.61573 -2.26438,2.55134 -2.54961,4.75002 -1.0741,6.22782 1.47589,1.47777 -2.31833,0.42128 4.31821,-1.91805 6.10191,-2.15085 9.58053,-2.62125 19.43764,-2.62872 19.4601,-0.0148 32.35843,1.26721 15.3142,4.98442 -18.70327,4.07898 -42.79343,13.22485 -49.93857,25.88471 -1.78117,3.15615 -3.43486,5.73845 -3.67454,5.73845 -0.23981,0 -3.43791,-2.42247 -7.1071,-5.38326 -34.86713,-28.13741 -70.63823,-46.66495 -103.95977,-53.84546 -8.96181,-1.93127 -14.51196,-2.37498 -29.08416,-2.32532 -16.52618,0.0563 -19.08744,0.34218 -31.1058,3.47147 -17.07077,4.44459 -37.47914,14.47201 -52.3661,25.72967 -20.04487,15.15812 -39.7961,36.4255 -63.5487,68.42612 -21.80644,29.3793 -46.87324,48.94256 -74.59867,58.22006 -24.90231,8.33283 -47.39778,6.31764 -66.12161,-5.92328 -11.05553,-7.22735 -13.92473,-8.57847 -18.21955,-8.57847 -4.67107,0 -5.81219,1.36586 -7.36746,8.81888 -0.68154,3.26536 -1.61131,6.33764 -2.06604,6.82715 -2.18142,2.34842 -11.98786,-12.70976 -15.74653,-24.18009 -4.29978,-13.12039 -5.38933,-21.92563 -4.68241,-37.84826 1.75604,-39.55345 17.97989,-77.74533 49.91219,-117.49609 10.73991,-13.36937 28.87229,-30.78445 39.30321,-37.748015 11.81888,-7.890393 13.0399,-9.144482 13.0399,-13.393357 0,-3.049565 -1.03252,-4.656135 -6.003,-9.341764 -3.30174,-3.112366 -6.00323,-6.008885 -6.00323,-6.436706 0,-1.302631 3.18853,-1.918988 19.10057,-3.692205 8.40405,-0.936558 28.04973,-1.993025 43.65737,-2.3477 30.32215,-0.689049 44.56866,0.183551 68.14515,4.173675 16.75362,2.835404 40.71681,2.472412 49.68475,-0.752628 l 5.41206,-1.946278 -9.16752,-2.429451 c -6.35576,-1.684326 -17.55551,-6.660497 -36.51773,-16.22485 -30.67365,-15.471385 -39.30744,-18.341189 -61.36694,-20.3970398 -11.49266,-1.071025 -40.09578,0.139487 -41.71986,1.7655518 -0.27261,0.273277 1.55349,2.253709 4.05845,4.400939 2.50483,2.14725 4.55416,4.789245 4.55416,5.871147 0,4.293601 -1.64997,4.652643 -35.3114,7.683279 -23.63278,2.127669 -53.43025,9.853018 -73.08768,18.948662 -14.48156,6.700662 -14.46115,6.934708 0.56284,6.398266 14.41766,-0.514787 23.5469,0.886902 26.40986,4.054997 1.63478,1.809012 1.62202,2.0915 -0.16746,3.714815 -1.06621,0.966317 -9.05177,4.286837 -17.74504,7.378921 -41.9631,14.925647 -61.3229,28.87847 -76.5395,55.161551 -13.6382,23.55875 -24.95335,67.62075 -24.93815,97.11216 0.0255,26.10315 7.52266,58.46205 20.96343,90.34339 4.22157,10.01362 10.59148,21.85939 11.75584,21.86191 0.30975,7.1e-4 0.39591,-5.16293 0.19195,-11.47469 -0.59615,-18.38372 3.79209,-35.2792 10.26309,-39.51358 3.83293,-2.50822 5.68559,0.18593 9.13065,13.27733 8.04491,30.5724 20.93408,56.18744 36.02662,71.59615 9.05701,9.24631 19.1201,15.2433 16.96191,10.10827 z M 70.614032,336.43214 c 8.007711,-3.80852 18.005641,-11.19661 24.602332,-18.18066 2.040952,-2.16073 8.301506,-9.6957 13.912336,-16.7444 10.7089,-13.45244 14.47426,-16.84143 17.44488,-15.69987 1.49792,0.57582 1.67938,1.72755 1.09167,6.95163 -0.38719,3.44381 -1.01887,9.45866 -1.40329,13.36621 l -0.69992,7.10475 2.50068,-2.18602 c 6.99757,-6.11735 22.61367,-35.59492 28.90036,-54.55293 6.48092,-19.54332 8.57452,-34.81758 7.87934,-57.4832 -0.66393,-21.63602 -3.02172,-34.1085 -10.02273,-53.02057 C 141.38958,109.7078 114.5492,75.345558 82.663318,53.609475 60.575491,38.552419 41.824811,31.564383 23.290656,31.482353 13.929138,31.440868 11.967869,31.813123 3.0991188,35.314191 -17.726361,43.535313 -43.335197,48.620491 -78.758763,51.568879 l -16.37138,1.362617 4.91114,2.195881 c 4.33667,1.938942 8.29594,2.289358 33.83485,2.994908 29.652351,0.819186 39.052553,1.771904 53.6770778,5.44005 20.3103722,5.09437 43.1820122,15.211535 60.6799982,26.841913 11.233308,7.466396 26.383715,22.160732 32.953067,31.961002 9.36835,13.97614 17.49685,35.22656 17.49685,45.74217 0,4.17555 -0.27147,4.66738 -2.57473,4.66738 -1.45001,0 -4.74226,-1.91041 -7.534646,-4.37216 -6.085247,-5.36418 -7.521918,-5.54205 -6.621859,-0.81977 0.923403,4.84292 9.033395,28.57551 14.100495,41.26209 3.85429,9.65063 4.1512,11.19416 4.20784,21.86073 0.0435,8.62375 -0.43686,12.76751 -1.94041,16.66875 -2.67247,6.93626 -4.95821,6.81155 -8.924471,-0.48703 -1.697787,-3.12342 -5.609935,-8.28802 -8.69412,-11.47687 -8.591837,-8.8836 -10.431265,-8.07383 -14.321269,6.30431 -1.53339,5.66774 -5.195234,15.38621 -8.137483,21.59658 -9.167824,19.35069 -23.335799,30.90898 -41.835596,34.12963 -13.476633,2.34622 -32.2516322,-1.01012 -49.524179,-8.85328 l -7.302255,-3.31586 3.246863,3.41708 c 4.810803,5.06407 15.508349,12.88651 22.3388818,16.33615 13.104096,6.61749 19.5666752,7.92936 42.5618172,8.64018 l 21.270948,0.65754 1.505465,3.15137 c 1.946302,4.07437 0.368945,9.8986 -4.839063,17.87269 -2.055169,3.14692 -3.737257,6.17656 -3.737257,6.73255 0,1.54991 10.215167,-1.4949 18.94622,-5.64734 z"
     style="fill:#000000;stroke-width:1.09143"
     sodipodi:nodetypes="cccccsccscccscsscccscccccccsssssccssscccccsccsccsscccccscccscccccccsscssssscccccsscscccccscccscscscscccsscccsscsccccssscscssssccscsccscccssccscccsscscccccccccccccsccssccccscscssscccccscsccsccscssccccscccsscccssccscccccccsscssscsccsccccscsccccsccccccscccsssscccccsscccccsccsccssccccccccscssscccssscssscscsscscscssscsscssssssscssscsssssscsccsscscccccsccccccccscccsccscccsscccccccscsscccscccsc" /><path
     id="path1481"
     d="m -250.49436,805.97021 c -47.79962,-16.2904 -84.53973,-52.02435 -105.91986,-108.82668 -8.58288,-22.80189 -18.97149,-74.05138 -22.3604,-99.07877 -2.56954,-18.96968 -3.03455,-17.88373 -16.83724,-0.3742 -7.25464,10.54389 -10.58255,22.00969 -12.33898,18.86703 -5.64881,-10.10763 -14.76952,-65.65036 -15.35328,-93.02666 -0.72544,-34.03179 -2.70998,-37.20578 -15.26437,-18.77246 -4.13057,6.06463 -5.83107,10.79759 -9.61306,13.40805 -7.65856,5.2862 -10.27912,-25.38022 -7.07874,-34.42319 10.05531,-19.70985 21.37633,-57.64874 26.52294,-106.39771 5.16107,-57.29879 11.13757,-71.45171 33.76241,-82.61303 17.47752,-8.56847 21.33296,-13.73646 6.32936,-12.41137 -22.55192,1.99172 -47.60463,14.21456 -60.69251,38.26166 -6.61292,12.14987 -9.15533,23.87381 -12.51527,50.95939 -2.41116,19.43811 -6.00442,42.78091 -11.9317,53.82475 -6.60974,15.31488 -14.34125,31.33842 -24.16215,19.2867 0,0 -7.30238,10.32537 -14.80131,34.60582 -6.62776,22.78502 -10.13467,24.90448 -12.72118,22.31782 -5.87216,-5.87219 -7.50555,-13.48964 -13.23159,-4.75091 -12.9364,19.74296 -32.71492,41.46894 -53.93655,51.2507 -12.13641,5.59404 -27.9314,8.63134 -27.9314,8.63134 -8.4666,-2.72559 5.93484,-19.55506 15.47671,-38.22049 15.92198,-31.14754 15.32626,-37.84145 19.71336,-70.75531 7.41907,-84.0915 41.42829,-139.70541 95.37495,-164.70584 12.32227,-5.7105 26.08537,-9.91136 27.98933,-9.91136 1.9037,0 23.03379,-8.90444 45.51383,-17.48004 56.82843,-24.97328 83.29435,-22.24417 154.5711,5.62358 18.07738,7.06792 37.10805,14.03083 42.00233,14.03083 4.89441,0 17.4956,-4.70529 30.31073,-11.03305 19.93259,-9.84224 27.40837,-13.65636 46.13831,-13.81806 18.64686,-0.1611 27.08814,2.50244 44.717152,11.1811 25.56073,12.58354 53.237074,40.57971 66.241874,68.09918 39.1471275,82.838 40.3062147,85.7365 55.293325,105.20745 9.154895,9.15497 23.715038,14.98551 21.682942,14.97593 -7.804356,7.96944 -39.2640871,-0.71305 -54.2892361,-16.49153 -14.1031699,-11.48699 -17.9021679,-14.28339 -17.9021679,-14.28339 -3.045514,8.0316 -11.476066,6.97494 -14.236871,6.97494 -8.35289,0 -24.805356,-26.72973 -37.06214,-70.37187 -14.11771,-44.61242 -23.112738,-63.18691 -34.701228,-67.51325 -5.78207,-2.15863 -3.21888,3.15531 2.20331,25.31811 8.47208,27.0269 15.28193,40.7249 -3.78252,27.3283 -4.38702,-3.08276 -16.98716,-3.05855 -29.81169,-1.10812 -15.41217,2.34398 -16.45381,1.89035 -19.85963,-1.99081 -4.74786,-5.51603 -4.98207,-7.23352 -7.12751,11.24873 -2.17836,18.77078 -2.39023,19.31524 13.95653,42.87789 9.44995,13.6214 24.89329,36.92908 30.34357,54.16909 25.11479,49.88355 33.021936,59.75779 63.870036,60.88271 7.003878,0.25541 18.163572,-1.06714 18.163572,-1.06714 0,0 15.292943,12.02038 15.589324,23.09695 0.474053,17.71667 0.112272,35.00524 -27.791144,55.81721 -29.223921,21.79687 -27.605349,34.92976 -14.098859,53.23686 15.554054,21.08239 -1.273401,35.42911 -33.867929,27.94268 -17.93686,-0.007 -40.29204,9.31322 -69.27863,13.72916 l -28.97076,4.41352 -11.16551,-0.20444 c -21.02785,-0.38501 -56.51369,-29.70896 -70.62927,-54.54718 -10.56394,-16.23064 -14.17215,-9.58108 -5.25967,7.67485 12.41372,24.03487 30.21394,39.22433 54.28408,52.93841 23.51052,10.79044 47.11877,11.92044 78.14913,2.4456 30.0277,-9.16887 52.64318,-7.92406 64.602209,3.24747 11.21378,10.47526 12.27423,22.761 3.40957,30.78358 -5.10372,4.61899 -18.870209,7.83382 -51.916469,7.85393 -47.60284,0.029 -58.91403,7.09108 -70.89232,24.85415 -6.41817,9.51747 -7.17489,11.42279 -7.6637,30.21502 0.71637,10.42982 5.08893,17.21968 7.88069,23.36954 0.85494,1.88329 -18.80715,-0.54028 -37.09583,-6.77317 z m 60.14419,-228.28504 c 2.25418,-8.98153 -3.21517,-15.73654 -15.46077,-30.83788 -7.80407,-8.24533 -11.87696,-11.15677 -21.99797,-9.32762 -12.32917,2.22822 -19.3078,3.92827 -21.99449,11.80206 -0.18159,14.11295 17.03763,27.66905 29.4604,18.33762 10.24612,-7.69642 17.55807,-6.05925 19.50176,9.80697 1.08665,5.46992 5.52098,8.0252 10.49107,0.21885 z m -72.08041,-20.22683 c 0,-32.56057 15.97226,-49.95941 42.31535,-49.95941 14.39339,0 28.00909,8.36957 51.97307,28.64103 24.10385,20.38997 21.40249,19.92231 27.48946,17.58656 6.48006,-5.35735 4.24697,-12.86072 -14.19186,-27.9419 -25.47803,-20.8383 -40.57858,-28.45919 -65.71547,-30.28393 -8.42662,-0.61171 -24.29501,3.34323 -33.45804,9.40609 -11.95964,7.91326 -20.6138,21.35615 -20.6138,38.27065 0,15.26932 6.48388,26.81675 12.99601,35.65109 0.90154,1.22303 -0.79472,-10.13672 -0.79472,-21.37018 z m -56.35896,-147.65272 c 0,-0.80478 -6.82866,-6.62965 -10.4861,-13.64748 -10.21548,-20.47396 -2.91519,-30.16613 16.79501,-37.4606 l -8.19072,15.64476 c -1.92474,2.4533 0.13675,11.00064 5.55196,15.95657 7.90346,7.23315 23.90675,7.39573 29.1796,-0.0817 6.22084,-6.22074 4.75754,-16.17493 3.35056,-23.21052 -1.71406,-8.56969 1.31222,-3.75878 9.7196,-2.07732 12.53895,2.50779 8.68652,1.32907 5.85997,-19.08294 -2.9719,-21.46159 -7.13918,-17.67821 -9.51046,-6.141 -2.27962,9.6341 -2.31584,1.12887 -22.25348,2.60848 -28.95021,2.14844 -42.81873,10.9519 -47.12432,33.94217 -3.20762,17.12748 14.56294,33.27453 26.83005,33.57298 2.14363,0.0522 0.27833,0.78137 0.27833,-0.0233 z"
     style="fill:#cdaf8d;fill-opacity:1;stroke-width:0;stroke-miterlimit:10"
     sodipodi:nodetypes="scccccsscccscsccccsscccsscsscccccccsscscssccscscssscscscsccsssccssccscsccsscccsssssscccsccsscsssss" /><path
     id="path1487"
     d="m -703.07712,364.35844 c -11.71907,-13.34739 -25.67109,-44.68796 -31.36509,-67.30128 -3.48978,-11.21271 -3.46019,-14.3066 -7.15859,-13.59442 -5.91729,1.8147 -10.48892,13.51748 -10.68994,30.03052 l -0.93683,22.99756 -9.22691,-12.53383 c -26.15757,-35.53243 -28.97874,-104.48044 -18.85055,-146.80381 13.39867,-55.99203 34.61544,-84.209666 83.02314,-103.580998 32.41756,-12.972431 39.95801,-15.078695 17.59215,-18.28699 l -27.07851,-0.09306 24.44131,-12.050298 c 18.13725,-7.046277 45.47902,-15.80046 80.29643,-16.500639 16.38257,-0.329454 19.70835,-4.206526 15.41101,-7.480299 -4.99375,-3.804309 -7.97812,-6.234276 -6.89951,-7.762338 2.41845,-3.426192 18.35248,-2.3181638 28.83502,-2.001353 20.75151,0.627167 39.62385,-0.2404645 78.6886,23.080973 19.33237,8.868544 40.7385,16.245126 40.7385,16.245126 -1.47673,5.090004 -31.50443,6.399858 -69.73005,3.093287 -43.06504,-3.725188 -109.8584,-3.337029 -115.37616,2.180644 0,0 6.31215,5.737149 10.05995,9.726151 l 5.02387,5.430728 c -1.72566,6.638393 -16.95667,15.136044 -26.70466,22.730184 -44.93972,43.098802 -73.66884,88.903212 -78.34761,141.426642 -1.21229,13.60907 1.28094,33.94208 8.77093,50.30193 9.60842,17.45076 8.61163,17.08092 14.02093,5.81304 2.03979,-4.24901 0.6744,-4.16243 5.54494,-5.53153 3.71618,-1.04461 11.50918,4.26238 21.82103,9.705 16.79305,8.86383 19.20047,9.20731 39.46476,8.20744 40.00185,-1.97364 60.42313,-21.35888 107.9008,-73.99285 49.14915,-63.9024 84.01325,-81.34181 129.62232,-85.19715 10.83028,-0.91552 40.14513,1.6549 49.62013,3.85363 24.26631,5.63099 59.78836,25.1177 83.34432,42.62426 11.01839,8.18926 9.67343,8.14272 16.76783,12.02975 1.30579,0.71544 5.38075,-9.64164 11.46509,-13.9922 6.49972,-7.40232 15.78248,-8.00914 27.32721,-11.64824 9.54916,-3.01012 20.07986,-5.69606 18.50608,-6.17718 -3.62244,-1.10744 -13.04442,-1.46324 -24.60918,-0.72684 -35.10519,12.45559 -20.2106,-5.32731 -2.52786,-12.71561 29.93467,-12.5075 62.6965,0.0576 100.98291,39.18539 22.194271,22.68221 56.706581,67.29031 52.690746,67.29031 -2.849812,0 -32.140908,-14.58565 -44.507296,-22.5708 -3.07426,-1.98509 -8.55578,-3.51513 -9.40148,-4.2412 -2.32833,-2.20274 -5.45266,-1.80767 -13.93179,-1.7172 -17.87041,0.19065 -16.28222,0.024 -16.33048,-6.408 -0.0762,-10.1636 -2.73002,-7.38149 -22.45942,8.68822 -9.93664,8.09326 -24.45953,17.70225 -30.40879,20.18826 -14.21291,5.93824 -28.87983,1.27007 -72.56058,-24.45666 -46.03927,-22.61568 -60.8559,-35.16265 -94.85567,-36.30658 -37.02822,-1.24582 -38.10014,7.79583 -26.07991,15.50026 l 10.86228,6.74725 -39.30919,4.07298 c -34.76352,3.60199 -52.42594,9.2148 -50.65332,13.70203 0.76262,1.9305 5.90339,4.85774 10.65218,7.09384 11.94718,5.62569 7.38268,8.79665 -11.61566,15.9369 -37.02404,13.91508 -82.36171,50.66937 -109.63771,89.94896 l -13.80816,20.20152 -17.9393,-0.69277 c -21.10188,-0.81491 -36.3225,-10.64752 -55.01632,-27.54071 -9.06978,-8.19642 -16.91011,-15.4745 -18.81968,-15.4745 -6.19852,0 -5.3333,15.11596 -0.65255,33.49434 2.51581,9.87841 9.98631,22.34585 6.00921,22.5365 -1.30645,0.0626 -15.66757,-8.79485 -21.99492,-16.68429 z"
     style="fill:#8a8a8a;fill-opacity:1;stroke-width:0;stroke-miterlimit:10"
     sodipodi:nodetypes="cccccscssccsssscssccccscsscscsccsccscscsscsscccsccssscccscsssc" /><path
     id="path1489"
     d="m 54.181926,335.24552 c 7.139774,-13.34079 9.175876,-19.14743 -6.708079,-20.92398 -11.770749,-1.3165 -23.761616,-0.14805 -32.046194,-0.86782 -20.1202081,-1.74806 -48.72234,-25.56702 -46.107496,-28.1818 0.704002,-0.70432 26.0847151,9.66453 34.7195331,11.27765 33.3023869,6.22154 54.1796699,-13.09759 69.9763909,-48.04022 8.083666,-24.19466 5.418102,-26.60182 20.5531,-8.3605 5.867829,6.98892 9.469269,12.15413 11.557669,10.86328 5.15948,-7.85866 2.46728,-34.17259 -5.99629,-56.65764 -4.405604,-11.70448 -10.268435,-29.19081 -10.268435,-29.7873 0,-0.59651 0.644166,-7.25881 11.356575,4.40356 4.92184,5.35831 5.1659,1.94344 2.92857,-9.98315 C 87.315709,102.07632 21.690728,60.635264 -49.791393,58.244959 c -31.074788,2.035213 -50.370417,-4.675313 -50.370417,-4.675313 0,0 23.464383,-4.19173 46.144131,-5.844545 12.211828,-1.135008 35.09448,-5.405385 49.2725636,-9.884141 29.0269814,-11.751241 40.9601574,-13.741364 68.3866704,3.657077 34.38185,16.054054 74.619845,60.437703 88.015965,95.871203 6.80814,13.2606 13.4994,31.5084 14.6153,62.23847 1.40687,38.75168 -5.95011,56.0023 -22.65926,87.61999 -13.57879,28.98057 -22.40131,33.90788 -18.55469,15.26492 -0.57338,-5.9099 2.02844,-16.16353 -0.37529,-16.16353 -2.31662,0 -12.81511,15.56252 -22.9355,27.08978 -17.6396,20.09184 -44.291159,31.47184 -50.860382,29.82467 -3.165501,-0.79372 1.945208,-5.47724 3.294238,-7.99802 z"
     style="fill:#8a8a8a;fill-opacity:1;stroke-width:0;stroke-miterlimit:10"
     sodipodi:nodetypes="cssccccccssccccccccccscscc" /><path
     style="fill:#ffffff;fill-opacity:1;stroke:#ffffff;stroke-width:1px;stroke-linecap:butt;stroke-linejoin:miter;stroke-opacity:1"
     d="m -312.48063,358.69754 c -10.87525,4.57932 -25.7302,8.14975 -20.98521,26.546 3.62458,14.77845 8.31362,16.15866 14.10151,23.29754 l 5.49899,-6.5789 c 3.51676,-3.46225 5.59726,-4.52685 10.49319,-6.11262 -8.56611,-2.46359 -11.25665,-3.96873 -15.24035,-9.00274 -4.22696,-8.33181 -2.66102,-12.45083 -1.48406,-14.22889 z"
     id="path854"
     sodipodi:nodetypes="cccccccc" /><path
     sodipodi:nodetypes="sccssccccs"
     style="fill:#cdaf8d;fill-opacity:1;stroke-width:0;stroke-miterlimit:10"
     d="m -109.11939,460.01872 c -2.1975,-1.94411 -8.9567,-16.98467 -11.65907,-27.78072 -3.68628,-11.14825 -5.74624,-20.7157 -7.33802,-23.23298 -1.55836,-2.46413 -6.60818,-10.14643 -8.8381,-12.74889 -1.06502,-1.24295 -7.03125,-8.79238 -4.74079,-6.79395 3.4182,2.98238 12.09845,7.81881 19.99772,7.22914 6.44088,-2.08191 14.83189,-9.20502 15.95079,-16.26376 0.20015,-4.93299 -0.31741,-9.14827 -0.96808,-13.23044 4.43696,1.53505 9.02545,1.85792 9.27818,36.86681 -1.65736,32.7049 -6.79174,60.28173 -11.68263,55.95479 z"
     id="path1483" /><path
     sodipodi:nodetypes="ccccsscscc"
     style="fill:#ffffff;fill-opacity:1;stroke-width:0;stroke-miterlimit:10"
     d="m -151.11042,381.70956 c -3.65156,-3.03698 -9.94459,-9.35572 -11.15322,-14.23934 l -0.14715,-3.11857 0.44204,-3.11199 c 2.23388,-5.78321 7.7357,-6.44929 15.42086,-6.9356 7.2239,-0.45712 25.79175,0.76939 21.47536,1.57387 -11.48656,2.14086 -22.18419,10.85255 -20.51387,22.81201 -0.29654,1.58129 0.68146,6.13147 5.13688,11.60144 4.9438,6.06955 9.92289,13.23965 1.83245,4.6372 -4.02281,-4.36691 -8.84829,-9.32268 -12.49335,-13.21902 z"
     id="path1485"
     inkscape:transform-center-x="431.9576"
     inkscape:transform-center-y="259.60013" /><path
     transform="translate(-815.66501,-13.278123)"
     id="path2711"
     d="m 521.32291,387.31585 c -1.84989,-0.94373 -3.04861,-2.61234 -3.7437,-5.21122 -0.46586,-1.74177 -0.43059,-2.32457 0.24825,-4.10208 1.60305,-4.19753 5.60624,-5.57212 11.60542,-3.985 l 3.05863,0.80918 0.11056,2.88421 c 0.0946,2.46663 -0.089,3.27393 -1.26767,5.5761 -0.75803,1.48055 -1.92395,3.0869 -2.59095,3.56967 -1.66166,1.20271 -5.49776,1.44006 -7.42054,0.45914 z"
     style="fill:#ffffff;fill-opacity:1;stroke:#ffffff;stroke-width:0;stroke-miterlimit:10" /><path
     transform="translate(-815.66501,-13.278123)"
     id="path2713"
     d="m 697.45339,387.56888 c -1.87947,-0.56221 -4.24024,-3.03869 -4.76915,-5.0029 -0.9228,-3.42701 0.82705,-6.77183 4.52233,-8.64437 1.19316,-0.60461 2.35464,-1.43036 2.58109,-1.83499 0.36646,-0.65483 0.72602,-0.56928 3.27128,0.77834 4.00232,2.11906 11.38506,9.59266 8.12054,8.22047 -2.0218,-0.84983 -2.56975,-0.72961 -3.445,0.75581 -1.55121,2.63264 -4.3072,5.26408 -6.00804,5.73651 -1.88806,0.52443 -2.49441,0.52317 -4.27305,-0.009 z"
     style="fill:#ffffff;fill-opacity:1;stroke:#ffffff;stroke-width:0;stroke-miterlimit:10" /><path
     transform="translate(-815.66501,-13.278123)"
     id="path2715"
     d="m 697.45339,387.56888 c -1.87947,-0.56221 -4.24024,-3.03869 -4.76915,-5.0029 -0.9228,-3.42701 0.82705,-6.77183 4.52233,-8.64437 1.19316,-0.60461 2.35464,-1.43036 2.58109,-1.83499 0.36646,-0.65483 0.72602,-0.56928 3.27128,0.77834 4.00232,2.11906 11.38506,9.59266 8.12054,8.22047 -2.0218,-0.84983 -2.56975,-0.72961 -3.445,0.75581 -1.55121,2.63264 -4.3072,5.26408 -6.00804,5.73651 -1.88806,0.52443 -2.49441,0.52317 -4.27305,-0.009 z"
     style="fill:#ffffff;fill-opacity:1;stroke:#ffffff;stroke-width:0;stroke-miterlimit:10" /></g></svg>
