<?xml version="1.0" encoding="UTF-8" standalone="no"?>
<!DOCTYPE svg PUBLIC "-//W3C//DTD SVG 1.0//EN" "http://www.w3.org/TR/2001/PR-SVG-20010719/DTD/svg10.dtd">
<svg width="66cm" height="33cm" viewBox="-402 29 1302 650" xmlns="http://www.w3.org/2000/svg" xmlns:xlink="http://www.w3.org/1999/xlink">
  <g>
    <path style="fill: #ffffff" d="M 145.95 49 C 162.16,35.5 170.265,31 186.475,31 C 202.685,31 210.79,35.5 227,49 L 227,121 C 210.79,134.5 202.685,139 186.475,139 C 170.265,139 162.16,134.5 145.95,121 L 145.95,49z"/>
    <path style="fill: none; fill-opacity:0; stroke-width: 2; stroke: #000000" d="M 145.95 49 C 162.16,35.5 170.265,31 186.475,31 C 202.685,31 210.79,35.5 227,49 L 227,121 C 210.79,134.5 202.685,139 186.475,139 C 170.265,139 162.16,134.5 145.95,121 L 145.95,49"/>
    <path style="fill: none; fill-opacity:0; stroke-width: 2; stroke: #000000" d="M 145.95 49 C 162.16,62.5 170.265,67 186.475,67 C 202.685,67 210.79,62.5 227,49"/>
    <text font-size="12.8" style="fill: #000000;text-anchor:middle;font-family:sans-serif;font-style:normal;font-weight:normal" x="186.475" y="98">
      <tspan x="186.475" y="98">Main SF</tspan>
    </text>
  </g>
  <g>
    <path style="fill: #ffffff" d="M 141.25 283.167 C 159.36,271.792 168.415,268 186.525,268 C 204.635,268 213.69,271.792 231.8,283.167 L 231.8,343.833 C 213.69,355.208 204.635,359 186.525,359 C 168.415,359 159.36,355.208 141.25,343.833 L 141.25,283.167z"/>
    <path style="fill: none; fill-opacity:0; stroke-width: 2; stroke: #000000" d="M 141.25 283.167 C 159.36,271.792 168.415,268 186.525,268 C 204.635,268 213.69,271.792 231.8,283.167 L 231.8,343.833 C 213.69,355.208 204.635,359 186.525,359 C 168.415,359 159.36,355.208 141.25,343.833 L 141.25,283.167"/>
    <path style="fill: none; fill-opacity:0; stroke-width: 2; stroke: #000000" d="M 141.25 283.167 C 159.36,294.542 168.415,298.333 186.525,298.333 C 204.635,298.333 213.69,294.542 231.8,283.167"/>
    <text font-size="12.8" style="fill: #000000;text-anchor:middle;font-family:sans-serif;font-style:normal;font-weight:normal" x="186.525" y="325.083">
      <tspan x="186.525" y="325.083">development</tspan>
    </text>
  </g>
  <g>
    <line style="fill: none; fill-opacity:0; stroke-width: 2; stroke: #000000" x1="186.515" y1="267.557" x2="186.489" y2="149.132"/>
    <polygon style="fill: #000000" points="186.487,141.632 191.49,151.631 186.489,149.132 181.49,151.633 "/>
    <polygon style="fill: none; fill-opacity:0; stroke-width: 2; stroke: #000000" points="186.487,141.632 191.49,151.631 186.489,149.132 181.49,151.633 "/>
  </g>
  <g>
    <path style="fill: #ffffff" d="M 320 527.333 C 328,521.833 332,520 340,520 C 348,520 352,521.833 360,527.333 L 360,556.667 C 352,562.167 348,564 340,564 C 332,564 328,562.167 320,556.667 L 320,527.333z"/>
    <path style="fill: none; fill-opacity:0; stroke-width: 2; stroke: #000000" d="M 320 527.333 C 328,521.833 332,520 340,520 C 348,520 352,521.833 360,527.333 L 360,556.667 C 352,562.167 348,564 340,564 C 332,564 328,562.167 320,556.667 L 320,527.333"/>
    <path style="fill: none; fill-opacity:0; stroke-width: 2; stroke: #000000" d="M 320 527.333 C 328,532.833 332,534.667 340,534.667 C 348,534.667 352,532.833 360,527.333"/>
    <text font-size="12.8" style="fill: #000000;text-anchor:middle;font-family:sans-serif;font-style:normal;font-weight:normal" x="340" y="549.667">
      <tspan x="340" y="549.667">QML</tspan>
    </text>
  </g>
  <g>
    <path style="fill: #ffffff" d="M 380 527.333 C 396.15,521.833 404.225,520 420.375,520 C 436.525,520 444.6,521.833 460.75,527.333 L 460.75,556.667 C 444.6,562.167 436.525,564 420.375,564 C 404.225,564 396.15,562.167 380,556.667 L 380,527.333z"/>
    <path style="fill: none; fill-opacity:0; stroke-width: 2; stroke: #000000" d="M 380 527.333 C 396.15,521.833 404.225,520 420.375,520 C 436.525,520 444.6,521.833 460.75,527.333 L 460.75,556.667 C 444.6,562.167 436.525,564 420.375,564 C 404.225,564 396.15,562.167 380,556.667 L 380,527.333"/>
    <path style="fill: none; fill-opacity:0; stroke-width: 2; stroke: #000000" d="M 380 527.333 C 396.15,532.833 404.225,534.667 420.375,534.667 C 436.525,534.667 444.6,532.833 460.75,527.333"/>
    <text font-size="12.8" style="fill: #000000;text-anchor:middle;font-family:sans-serif;font-style:normal;font-weight:normal" x="420.375" y="549.667">
      <tspan x="420.375" y="549.667">variableGUI</tspan>
    </text>
  </g>
  <g>
    <path style="fill: #ffffff" d="M 180 527.333 C 201.74,521.833 212.61,520 234.35,520 C 256.09,520 266.96,521.833 288.7,527.333 L 288.7,556.667 C 266.96,562.167 256.09,564 234.35,564 C 212.61,564 201.74,562.167 180,556.667 L 180,527.333z"/>
    <path style="fill: none; fill-opacity:0; stroke-width: 2; stroke: #000000" d="M 180 527.333 C 201.74,521.833 212.61,520 234.35,520 C 256.09,520 266.96,521.833 288.7,527.333 L 288.7,556.667 C 266.96,562.167 256.09,564 234.35,564 C 212.61,564 201.74,562.167 180,556.667 L 180,527.333"/>
    <path style="fill: none; fill-opacity:0; stroke-width: 2; stroke: #000000" d="M 180 527.333 C 201.74,532.833 212.61,534.667 234.35,534.667 C 256.09,534.667 266.96,532.833 288.7,527.333"/>
    <text font-size="12.8" style="fill: #000000;text-anchor:middle;font-family:sans-serif;font-style:normal;font-weight:normal" x="234.35" y="549.667">
      <tspan x="234.35" y="549.667">mac-compile-fix</tspan>
    </text>
  </g>
  <g>
    <line style="fill: none; fill-opacity:0; stroke-width: 2; stroke: #000000" x1="229.544" y1="519.037" x2="198.155" y2="369.067"/>
    <polygon style="fill: #000000" points="196.619,361.726 203.561,370.49 198.155,369.067 193.773,372.538 "/>
    <polygon style="fill: none; fill-opacity:0; stroke-width: 2; stroke: #000000" points="196.619,361.726 203.561,370.49 198.155,369.067 193.773,372.538 "/>
  </g>
  <g>
    <line style="fill: none; fill-opacity:0; stroke-width: 2; stroke: #000000" x1="326.614" y1="522.07" x2="219.653" y2="362.822"/>
    <polygon style="fill: #000000" points="215.471,356.596 225.197,362.11 219.653,362.822 216.896,367.685 "/>
    <polygon style="fill: none; fill-opacity:0; stroke-width: 2; stroke: #000000" points="215.471,356.596 225.197,362.11 219.653,362.822 216.896,367.685 "/>
  </g>
  <g>
    <line style="fill: none; fill-opacity:0; stroke-width: 2; stroke: #000000" x1="398.758" y1="520.878" x2="230.691" y2="356.656"/>
    <polygon style="fill: #000000" points="225.327,351.414 235.974,354.827 230.691,356.656 228.985,361.979 "/>
    <polygon style="fill: none; fill-opacity:0; stroke-width: 2; stroke: #000000" points="225.327,351.414 235.974,354.827 230.691,356.656 228.985,361.979 "/>
  </g>
  <text font-size="12.8" style="fill: #000000;text-anchor:start;font-family:sans-serif;font-style:normal;font-weight:normal" x="280" y="280">
    <tspan x="280" y="280">"beta" quality stuff we're happy with other people using</tspan>
    <tspan x="280" y="296">- using this, you should not be seeing crashes and game-breaking</tspan>
    <tspan x="280" y="312">issues here should get priority to fix</tspan>
    <tspan x="280" y="328">- issues for content in this repo should be reported on</tspan>
    <tspan x="280" y="344">bugs.launchpad.net/mudlet</tspan>
    <tspan x="280" y="360">- located at github.com/Mudlet/Mudlet/tree/development</tspan>
  </text>
  <text font-size="12.8" style="fill: #000000;text-anchor:start;font-family:sans-serif;font-style:normal;font-weight:normal" x="480" y="500">
    <tspan x="480" y="500">"alpha" quality stuff we're working on here</tspan>
    <tspan x="480" y="516">- submit pull requests to 'development' when we think</tspan>
    <tspan x="480" y="532">it is "beta" quality and then continue regularly syncing</tspan>
    <tspan x="480" y="548">once at beta stage</tspan>
    <tspan x="480" y="564">- pull from 'development' when it gets updated with SF</tspan>
    <tspan x="480" y="580">content</tspan>
    <tspan x="480" y="596">- using this, you cannot expect any sort of stability;</tspan>
    <tspan x="480" y="612">it can be crashy and game-breaking issues are not</tspan>
    <tspan x="480" y="628">a priority to fix.</tspan>
    <tspan x="480" y="644">- issues for content only in these repos should be reported</tspan>
    <tspan x="480" y="660">in their respective issues pages</tspan>
    <tspan x="480" y="676">- located in individuals github repositories</tspan>
  </text>
  <text font-size="12.8" style="fill: #000000;text-anchor:start;font-family:sans-serif;font-style:normal;font-weight:normal" x="484" y="276">
    <tspan x="484" y="276"></tspan>
  </text>
  <text font-size="12.8" style="fill: #000000;text-anchor:start;font-family:sans-serif;font-style:normal;font-weight:normal" x="200" y="180">
    <tspan x="200" y="180">Heiko merges individual commits for various features</tspan>
    <tspan x="200" y="196">from 'development' up to SF</tspan>
  </text>
  <line style="fill: none; fill-opacity:0; stroke-width: 2; stroke: #000000" x1="-400" y1="220" x2="895" y2="222.25"/>
  <text font-size="12.8" style="fill: #000000;text-anchor:start;font-family:sans-serif;font-style:normal;font-weight:normal" x="186.525" y="313.5">
    <tspan x="186.525" y="313.5"></tspan>
  </text>
  <text font-size="23.7067" style="fill: #000000;text-anchor:start;font-family:sans-serif;font-style:normal;font-weight:normal" x="280" y="260">
    <tspan x="280" y="260">GitHub land</tspan>
  </text>
  <line style="fill: none; fill-opacity:0; stroke-width: 2; stroke: #000000" x1="-400" y1="440" x2="899" y2="442"/>
  <text font-size="23.7067" style="fill: #000000;text-anchor:start;font-family:sans-serif;font-style:normal;font-weight:normal" x="480" y="480">
    <tspan x="480" y="480">GitHub land, individual repos</tspan>
  </text>
  <g>
    <path style="fill: #ffffff" d="M -57 276.833 C -39.69,264.208 -31.035,260 -13.725,260 C 3.585,260 12.24,264.208 29.55,276.833 L 29.55,344.167 C 12.24,356.792 3.585,361 -13.725,361 C -31.035,361 -39.69,356.792 -57,344.167 L -57,276.833z"/>
    <path style="fill: none; fill-opacity:0; stroke-width: 2; stroke: #000000" d="M -57 276.833 C -39.69,264.208 -31.035,260 -13.725,260 C 3.585,260 12.24,264.208 29.55,276.833 L 29.55,344.167 C 12.24,356.792 3.585,361 -13.725,361 C -31.035,361 -39.69,356.792 -57,344.167 L -57,276.833"/>
    <path style="fill: none; fill-opacity:0; stroke-width: 2; stroke: #000000" d="M -57 276.833 C -39.69,289.458 -31.035,293.667 -13.725,293.667 C 3.585,293.667 12.24,289.458 29.55,276.833"/>
    <text font-size="12.8" style="fill: #000000;text-anchor:middle;font-family:sans-serif;font-style:normal;font-weight:normal" x="-13.725" y="322.917">
      <tspan x="-13.725" y="322.917">master</tspan>
    </text>
  </g>
  <g>
    <line style="fill: none; fill-opacity:0; stroke-width: 2; stroke: #000000" x1="150.282" y1="125.767" x2="28.4252" y2="263.023"/>
    <polygon style="fill: #000000" points="23.4458,268.632 26.3459,257.834 28.4252,263.023 33.824,264.473 "/>
    <polygon style="fill: none; fill-opacity:0; stroke-width: 2; stroke: #000000" points="23.4458,268.632 26.3459,257.834 28.4252,263.023 33.824,264.473 "/>
  </g>
  <text font-size="12.8" style="fill: #000000;text-anchor:start;font-family:sans-serif;font-style:normal;font-weight:normal" x="-396.084" y="301">
    <tspan x="-396.084" y="301">clone of SF, merged into development branch</tspan>
    <tspan x="-396.084" y="317">with issues resolved there, then propagated to</tspan>
    <tspan x="-396.084" y="333">alpha branches below by a pull method</tspan>
    <tspan x="-396.084" y="349">- there is no reason to use this, use 'development'</tspan>
    <tspan x="-396.084" y="365">instead</tspan>
    <tspan x="-396.084" y="381">- located at github.com/Mudlet/Mudlet/tree/master</tspan>
  </text>
  <g>
    <line style="fill: none; fill-opacity:0; stroke-width: 2; stroke: #000000" x1="30.5505" y1="310.574" x2="126.262" y2="310.734"/>
    <polygon style="fill: #000000" points="133.762,310.746 123.754,315.73 126.262,310.734 123.771,305.73 "/>
    <polygon style="fill: none; fill-opacity:0; stroke-width: 2; stroke: #000000" points="133.762,310.746 123.754,315.73 126.262,310.734 123.771,305.73 "/>
  </g>
  <text font-size="12.7998" style="fill: #000000;text-anchor:start;font-family:sans-serif;font-style:normal;font-weight:normal" x="240" y="80">
    <tspan x="240" y="80">- issues for content in this repo should be reported on</tspan>
    <tspan x="240" y="96">bugs.launchpad.net/mudlet</tspan>
  </text>
  <g>
    <path style="fill: #ffffff" d="M -80 536.5 C -63.475,524.125 -55.2125,520 -38.6875,520 C -22.1625,520 -13.9,524.125 2.625,536.5 L 2.625,602.5 C -13.9,614.875 -22.1625,619 -38.6875,619 C -55.2125,619 -63.475,614.875 -80,602.5 L -80,536.5z"/>
    <path style="fill: none; fill-opacity:0; stroke-width: 2; stroke: #000000" d="M -80 536.5 C -63.475,524.125 -55.2125,520 -38.6875,520 C -22.1625,520 -13.9,524.125 2.625,536.5 L 2.625,602.5 C -13.9,614.875 -22.1625,619 -38.6875,619 C -55.2125,619 -63.475,614.875 -80,602.5 L -80,536.5"/>
    <path style="fill: none; fill-opacity:0; stroke-width: 2; stroke: #000000" d="M -80 536.5 C -63.475,548.875 -55.2125,553 -38.6875,553 C -22.1625,553 -13.9,548.875 2.625,536.5"/>
    <text font-size="12.7998" style="fill: #000000;text-anchor:middle;font-family:sans-serif;font-style:normal;font-weight:normal" x="-38.6875" y="581.75">
      <tspan x="-38.6875" y="581.75">mudlet-lua</tspan>
    </text>
  </g>
  <g>
    <line style="fill: none; fill-opacity:0; stroke-width: 2; stroke: #000000" x1="-4.23345" y1="530.336" x2="146.41" y2="359.099"/>
    <polygon style="fill: #000000" points="151.364,353.468 148.513,364.279 146.41,359.099 141.005,357.673 "/>
    <polygon style="fill: none; fill-opacity:0; stroke-width: 2; stroke: #000000" points="151.364,353.468 148.513,364.279 146.41,359.099 141.005,357.673 "/>
  </g>
  <text font-size="23.7067" style="fill: #000000;text-anchor:start;font-family:sans-serif;font-style:normal;font-weight:normal" x="-380" y="480">
    <tspan x="-380" y="480">mudlet-lua</tspan>
  </text>
  <text font-size="12.7998" style="fill: #000000;text-anchor:start;font-family:sans-serif;font-style:normal;font-weight:normal" x="-380" y="500">
    <tspan x="-380" y="500">"beta" quality stuff we're happy with other people using</tspan>
    <tspan x="-380" y="516">- contains all Lua-defined Mudlet content</tspan>
    <tspan x="-380" y="532">- included in development branch via</tspan>
    <tspan x="-380" y="548">subtree merge strategy</tspan>
    <tspan x="-380" y="564">- submit pull requests to this repository</tspan>
    <tspan x="-380" y="580">for 'mudlet-lua'-specific content</tspan>
  </text>
</svg>
