<?xml version="1.0" encoding="UTF-8" standalone="no"?>
<!-- Created with Inkscape (http://www.inkscape.org/) -->
<svg
   xmlns:dc="http://purl.org/dc/elements/1.1/"
   xmlns:cc="http://creativecommons.org/ns#"
   xmlns:rdf="http://www.w3.org/1999/02/22-rdf-syntax-ns#"
   xmlns:svg="http://www.w3.org/2000/svg"
   xmlns="http://www.w3.org/2000/svg"
   xmlns:sodipodi="http://sodipodi.sourceforge.net/DTD/sodipodi-0.dtd"
   xmlns:inkscape="http://www.inkscape.org/namespaces/inkscape"
   width="308"
   height="122"
   id="svg5517"
   sodipodi:version="0.32"
   inkscape:version="0.45+devel"
   sodipodi:docname="type_b.svg"
   inkscape:output_extension="org.inkscape.output.svg.inkscape"
   version="1.0">
  <defs
     id="defs5519">
    <inkscape:perspective
       sodipodi:type="inkscape:persp3d"
       inkscape:vp_x="0 : 61 : 1"
       inkscape:vp_y="0 : 1000 : 0"
       inkscape:vp_z="308 : 61 : 1"
       inkscape:persp3d-origin="154 : 40.666667 : 1"
       id="perspective2419" />
    <inkscape:perspective
       sodipodi:type="inkscape:persp3d"
       inkscape:vp_x="0 : 61 : 1"
       inkscape:vp_y="0 : 1000 : 0"
       inkscape:vp_z="308 : 61 : 1"
       inkscape:persp3d-origin="154 : 40.666667 : 1"
       id="perspective35" />
    <inkscape:perspective
       sodipodi:type="inkscape:persp3d"
       inkscape:vp_x="0 : 61 : 1"
       inkscape:vp_y="0 : 1000 : 0"
       inkscape:vp_z="308 : 61 : 1"
       inkscape:persp3d-origin="154 : 40.666667 : 1"
       id="perspective34" />
    <inkscape:perspective
       sodipodi:type="inkscape:persp3d"
       inkscape:vp_x="0 : 61 : 1"
       inkscape:vp_y="0 : 1000 : 0"
       inkscape:vp_z="308 : 61 : 1"
       inkscape:persp3d-origin="154 : 40.666667 : 1"
       id="perspective25" />
    <inkscape:perspective
       sodipodi:type="inkscape:persp3d"
       inkscape:vp_x="0 : 136 : 1"
       inkscape:vp_y="0 : 1000 : 0"
       inkscape:vp_z="420 : 136 : 1"
       inkscape:persp3d-origin="210 : 90.666667 : 1"
       id="perspective24" />
    <inkscape:perspective
       sodipodi:type="inkscape:persp3d"
       inkscape:vp_x="0 : 526.18109 : 1"
       inkscape:vp_y="0 : 1000 : 0"
       inkscape:vp_z="744.09448 : 526.18109 : 1"
       inkscape:persp3d-origin="372.04724 : 350.78739 : 1"
       id="perspective5525" />
    <inkscape:perspective
       id="perspective5591"
       inkscape:persp3d-origin="372.04724 : 350.78739 : 1"
       inkscape:vp_z="744.09448 : 526.18109 : 1"
       inkscape:vp_y="0 : 1000 : 0"
       inkscape:vp_x="0 : 526.18109 : 1"
       sodipodi:type="inkscape:persp3d" />
    <clipPath
       clipPathUnits="userSpaceOnUse"
       id="clipPath5599">
      <rect
         style="opacity:0.32242988;fill:#c41212;fill-opacity:1;stroke:none;stroke-width:1;stroke-linecap:square;stroke-linejoin:miter;stroke-miterlimit:4;stroke-dasharray:none;stroke-opacity:0.66183573"
         id="rect5601"
         width="351.42856"
         height="122.85714"
         x="18.571428"
         y="483.79074" />
    </clipPath>
  </defs>
  <sodipodi:namedview
     id="base"
     pagecolor="#ffffff"
     bordercolor="#666666"
     borderopacity="1.0"
     gridtolerance="10000"
     guidetolerance="10"
     objecttolerance="10"
     inkscape:pageopacity="0.0"
     inkscape:pageshadow="2"
     inkscape:zoom="1"
     inkscape:cx="209.66942"
     inkscape:cy="93.655647"
     inkscape:document-units="px"
     inkscape:current-layer="layer1"
     showgrid="false"
     showguides="false"
     inkscape:guide-bbox="true"
     inkscape:window-width="1270"
     inkscape:window-height="826"
     inkscape:window-x="5"
     inkscape:window-y="49"
     showborder="false"
     borderlayer="false"
     inkscape:snap-global="false"
     inkscape:snap-intersection-grid-guide="false">
    <sodipodi:guide
       orientation="1,0"
       position="82.375,113.5"
       id="guide6160" />
    <sodipodi:guide
       orientation="0,1"
       position="294.86353,66.468037"
       id="guide6162" />
    <sodipodi:guide
       orientation="0,1"
       position="240.5,97"
       id="guide6166" />
    <inkscape:grid
       type="xygrid"
       id="grid6168"
       empspacing="5"
       visible="true"
       enabled="true" />
    <sodipodi:guide
       orientation="0,1"
       position="207.53584,26.516504"
       id="guide3191" />
  </sodipodi:namedview>
  <metadata
     id="metadata5522">
    <rdf:RDF>
      <cc:Work
         rdf:about="">
        <dc:format>image/svg+xml</dc:format>
        <dc:type
           rdf:resource="http://purl.org/dc/dcmitype/StillImage" />
      </cc:Work>
    </rdf:RDF>
  </metadata>
  <g
     inkscape:label="Layer 1"
     inkscape:groupmode="layer"
     id="layer1"
     transform="translate(5,-117.36218)">
    <path
       style="fill:#000000;fill-opacity:1;fill-rule:evenodd;stroke:none;stroke-width:1px;stroke-linecap:butt;stroke-linejoin:miter;stroke-opacity:1"
       d="M 49.1875,139.72186 C 10.363131,140.10446 -1.170366,165.4166 18.336707,207.64219 C 15.107501,208.36909 12.746851,208.57496 11.461012,208.63788 C 10.506338,208.68461 11.105523,212.92237 11.883121,212.89527 C 16.73281,212.72627 24.147098,212.37172 29.390927,212.40415 C 30.145067,212.40881 30.47345,206.94117 27.68474,199.5604 C 25.235457,193.07797 21.68592,184.1539 21.824747,172.68173 C 21.963574,161.20955 23.103612,147.92561 42.867037,146.29356 C 43.83844,164.77951 42.207731,187.82879 42.465386,206.02088 C 39.207522,206.20824 36.746579,206.79138 35.600189,207.20577 C 34.682686,207.53742 35.571245,212.08849 36.336706,211.99883 C 37.547795,211.85697 43.729473,211.74846 49.1875,211.74883 C 54.645527,211.74846 60.094476,211.81523 61.299937,211.99883 C 61.888621,212.08849 62.237584,207.25395 61.360597,207.029 C 60.260481,206.74681 57.576486,206.20824 54.318624,206.02088 C 54.725693,187.64047 54.051282,164.50024 55.15441,146.29356 C 74.91783,147.92561 74.082077,161.91666 74.220907,173.38883 C 74.359737,184.86101 71.812597,193.05626 69.421573,199.5604 C 67.163193,205.70374 66.985888,212.40415 67.923413,212.40415 C 72.63715,212.40415 80.676695,212.41953 85.406247,212.56316 C 86.33214,212.59128 86.782935,208.86432 85.997934,208.704 C 85.092607,208.5191 81.192307,208.14987 78.800857,207.81897 C 96.257297,165.50145 86.05588,139.92539 49.1875,139.72186 z"
       id="path5605"
       sodipodi:nodetypes="ccsssszccssssscczssszcc" />
    <path
       style="fill:#000000;fill-opacity:1;fill-rule:evenodd;stroke:none;stroke-width:1px;stroke-linecap:butt;stroke-linejoin:miter;stroke-opacity:1"
       d="M 126.01257,173.43839 C 122.14631,184.08403 128.55402,206.57787 115.65625,206.58481 C 111.11315,206.58481 108.45997,200.41018 108.65538,192.69998 C 108.81353,186.4604 111.11033,179.52491 111.19178,173.68152 C 111.21245,172.19824 96.600188,173.05841 95.591911,173.2147 C 93.656346,173.51473 94.271124,177.67062 95.445464,178.06245 C 96.756439,178.49986 98.042961,178.31138 99.498161,178.65221 C 94.383611,197.09188 97.71263,213.1928 114.53125,212.96567 C 121.41081,212.81926 126.9494,211.06892 130.0429,207.03692 C 132.22782,209.07837 134.15757,210.86687 136.29657,212.15783 C 138.81835,210.42348 141.73353,207.47582 143.60631,204.90783 C 145.31256,202.5682 139.40489,205.20661 137.14644,192.83597 C 136.2066,187.68799 136.39778,184.72755 136.92954,173.18057 C 134.26036,172.97377 128.08942,173.16401 126.01257,173.43839 z"
       id="path6136"
       sodipodi:nodetypes="ccssssccccsscc" />
    <path
       style="fill:#000000;fill-opacity:1;fill-rule:evenodd;stroke:none;stroke-width:1px;stroke-linecap:butt;stroke-linejoin:miter;stroke-opacity:1"
       d="M 187.4566,145.72152 C 186.80122,145.09311 176.5007,141.54866 176.14645,142.40346 C 175.12865,155.72177 175.28377,165.65711 175.7929,174.60171 C 172.78771,171.24956 156.30716,169.57755 150.86367,179.86336 C 143.62049,193.54983 150.56119,212.70467 165.89795,212.70467 C 174.03906,212.70467 179.6088,210.36999 181.45956,206.20618 C 184.33116,207.99593 185.27795,210.52213 187.64014,211.65466 C 190.51766,209.95781 193.40976,207.07691 195.88849,203.70987 C 193.59425,202.46416 189.06758,197.51467 187.8316,188.67519 C 185.84118,174.44013 185.48521,163.65011 187.4566,145.72152 z M 176.14645,182.08547 C 178.091,210.16631 170.37665,206.7258 166.25337,206.7258 C 158.59925,206.7258 157.70401,188.85736 161.03492,184.091 C 164.42281,179.24311 171.4324,177.57831 176.14645,182.08547 z"
       id="path6138"
       sodipodi:nodetypes="cccsscccsccczc" />
    <path
       style="fill:#000000;fill-opacity:1;fill-rule:evenodd;stroke:none;stroke-width:1px;stroke-linecap:butt;stroke-linejoin:miter;stroke-opacity:1"
       d="M 237.46088,172.41532 C 219.06678,172.78497 221.65823,188.14623 222.08771,194.86617 C 222.79731,205.96924 232.97389,213.0599 243.64864,212.8436 C 247.93404,212.75818 255.45312,209.98002 259.16635,206.29017 C 258.54907,203.21797 258.15735,199.47832 256.78891,196.77552 C 252.26024,201.06803 246.13413,205.91701 242.186,205.90197 C 238.51964,205.88735 235.40707,199.59365 234.99417,196.09731 C 240.50647,194.12082 254.72883,190.25203 258.82565,188.18025 C 256.13466,172.59166 246.68563,172.23349 237.46088,172.41532 z M 238.36444,177.34687 C 244.62377,176.22327 245.17375,183.02232 246.22116,186.76861 C 244.33668,187.6521 236.81528,189.98337 233.67177,190.58346 C 232.02742,183.92555 231.70166,178.54289 238.36444,177.34687 z"
       id="path6145"
       sodipodi:nodetypes="cssccsccscccs" />
    <path
       style="fill:#000000;fill-opacity:1;fill-rule:evenodd;stroke:none;stroke-width:1px;stroke-linecap:butt;stroke-linejoin:miter;stroke-opacity:1"
       d="M 256.36052,166.45274 C 254.99929,166.40995 254.8194,161.66997 256.21562,161.29585 C 259.14413,160.51116 280.65388,160.72752 283.51555,161.10125 C 284.67574,161.25277 284.43062,166.24485 283.48835,166.25814 C 278.88774,166.32301 265.78299,166.7489 256.36052,166.45274 z"
       id="path6152"
       sodipodi:nodetypes="cssss" />
    <path
       style="fill:#000000;fill-opacity:1;fill-rule:evenodd;stroke:none;stroke-width:1px;stroke-linecap:butt;stroke-linejoin:miter;stroke-opacity:1"
       d="M 49.6875,19.22186 C 10.863131,19.60446 1.274178,39.08297 20.78125,81.30856 C 12.604058,83.51846 12.155733,90.19694 14.0625,93.45593 C 14.398377,94.03 16.388781,92.81276 18.574143,92.56041 C 21.963027,92.16907 26.410445,91.98107 27.0625,92.08093 C 28.522311,92.3045 29.38246,86.61795 26.59375,79.23718 C 24.144467,72.75475 17.258983,62.65277 17.375,53.06561 C 17.536637,39.70842 25.017825,32.72891 44.78125,31.09686 C 47.428278,49.30354 47.903505,60.95328 47.03125,79.33369 C 43.773386,79.52105 41.42353,79.70097 39.8125,82.02119 C 38.201466,84.3414 38.015789,91.5001 39.31158,91.32205 C 40.519598,91.15606 44.229473,91.07168 49.6875,91.07205 C 55.145527,91.07168 59.354488,91.15606 60.5625,91.32205 C 61.858291,91.5001 61.173533,84.3414 59.5625,82.02119 C 57.95147,79.70097 55.601612,79.52105 52.34375,79.33369 C 51.471495,60.95328 51.946728,49.30354 54.59375,31.09686 C 74.35717,32.72891 81.80711,39.70842 81.96875,53.06561 C 82.08477,62.65277 75.14102,72.73304 72.75,79.23718 C 70.49162,85.38052 70.85269,92.3045 72.3125,92.08093 C 72.96456,91.98107 76.73458,92.14253 80.09375,92.73718 C 83.51655,93.34309 84.91419,94.01058 85.28125,93.45593 C 87.43802,90.19694 90.27094,83.38458 78.59375,80.42468 C 98.2776,38.55264 86.56733,19.42768 49.6875,19.22186 z"
       id="path3194"
       sodipodi:nodetypes="ccsssssccsssssccssssscc" />
    <path
       style="fill:#000000;fill-opacity:1;fill-rule:evenodd;stroke:none;stroke-width:1px;stroke-linecap:butt;stroke-linejoin:miter;stroke-opacity:1"
       d="M 96.54572,52.86522 C 94.19072,54.55844 93.54929,57.61275 93.28797,60.56764 C 93.16989,61.90277 95.49458,62.63624 96.94978,62.96675 C 88.273977,98.94275 117.12613,102.63476 126.62554,77.49023 C 127.22055,91.51535 130.07166,93.17702 134.33678,93.27228 C 141.45406,93.43404 141.6504,87.77604 140.15524,84.14708 C 139.39009,82.28995 134.15648,84.43378 133.34433,79.62551 C 132.51165,74.69566 131.97521,68.49005 132.75856,59.57742 C 132.85378,58.49406 134.15855,53.38876 132.83799,52.33743 C 131.67304,51.41 125.32319,54.14404 125.87428,57.03718 C 130.07296,79.07966 93.10723,97.39221 101.47498,61.87486 C 101.94279,59.88923 104.04828,56.59662 103.26324,54.83502 C 102.27339,52.61381 97.71781,52.0225 96.54572,52.86522 z"
       id="path3196"
       sodipodi:nodetypes="csccsszssssss" />
    <path
       style="fill:#000000;fill-opacity:1;fill-rule:evenodd;stroke:none;stroke-width:1px;stroke-linecap:butt;stroke-linejoin:miter;stroke-opacity:1"
       d="M 179.27313,22.42342 C 178.61775,21.79501 175.90333,21.54866 175.54908,22.40346 C 174.8622,24.06091 174.75846,28.54413 174.24908,32.88328 C 173.61611,38.27518 172.96963,43.67446 172.96967,49.73775 C 172.96968,51.15857 156.24215,51.15009 150.81342,55.7065 C 147.2783,58.67357 146.26512,72.33303 146.20895,77.125 C 146.13066,83.80436 149.82408,90.22416 155.06432,92.52789 C 160.86763,95.07917 165.87351,94.74652 174.39369,80.54933 C 174.7593,91.26255 178.01366,92.26712 181.65791,92.42242 C 189.49415,92.75637 189.45063,86.77933 188.31527,83.59375 C 187.56382,81.48534 181.45962,83.3077 180.23693,77.75146 C 178.96527,71.97268 178.95512,62.61042 179.20711,50.63328 C 179.39677,41.61864 180.34786,23.45392 179.27313,22.42342 z M 172.39645,61.56986 C 173.18401,83.65181 156.68865,85.63104 152.07139,78.1348 C 150.54747,75.66068 150.79572,67.67408 152.64368,66.46447 C 157.75678,63.11761 165.73786,62.28021 172.39645,61.56986 z"
       id="path3198"
       sodipodi:nodetypes="csssssscssssscssc" />
    <path
       style="fill:#000000;fill-opacity:1;fill-rule:evenodd;stroke:none;stroke-width:1px;stroke-linecap:butt;stroke-linejoin:miter;stroke-opacity:1"
       d="M 195.82425,22.2571 C 194.79031,23.63731 193.7938,60.25464 193.97799,74.82349 C 194.04441,80.25372 196.44365,87.44568 200.25347,90.55291 C 202.64277,92.50159 206.28622,93.57471 208.4417,91.82783 C 209.70571,90.80343 210.95671,87.33763 210.77818,84.15344 C 210.65645,81.98225 201.3977,81.75945 200.67187,74.41816 C 198.73118,54.78937 201.08084,24.13054 199.61495,22.49758 C 198.74273,21.52595 196.46695,21.39915 195.82425,22.2571 z"
       id="path3200"
       sodipodi:nodetypes="csssssss" />
    <path
       style="fill:#000000;fill-opacity:1;fill-rule:evenodd;stroke:none;stroke-width:1px;stroke-linecap:butt;stroke-linejoin:miter;stroke-opacity:1"
       d="M 238.63225,51.32797 C 235.12297,50.95534 224.00939,50.60496 220.04287,54.84366 C 216.31014,58.83253 214.65143,75.3194 215.90712,81.27627 C 217.33373,88.04397 224.5783,92.72219 228.29409,92.91796 C 233.63883,93.19956 244.25935,88.79445 247.24153,84.02706 C 248.28143,82.36465 246.7537,78.70241 245.29333,77.95774 C 243.30309,76.94287 239.46343,79.30843 237.27697,80.54849 C 231.63384,83.74902 225.98913,85.24013 223.84025,80.46861 C 223.56168,79.85004 223.74895,78.36827 225.57344,77.59423 C 230.17351,75.64265 242.27179,70.01194 245.69062,67.96627 C 249.10937,65.92065 244.37328,53.20574 238.63225,51.32797 z M 235.25403,60.79602 C 236.68671,61.25579 237.91322,62.73181 236.64728,63.20475 C 232.95689,64.58343 224.32426,67.28213 223.14653,67.00191 C 222.14292,66.76312 222.91917,63.12012 224.94825,62.36014 C 226.27028,61.86498 234.0195,60.39984 235.25403,60.79602 z"
       id="path3202"
       sodipodi:nodetypes="csssssssssccssss" />
    <path
       style="fill:#000000;fill-opacity:1;fill-rule:evenodd;stroke:none;stroke-width:1px;stroke-linecap:butt;stroke-linejoin:miter;stroke-opacity:1"
       d="M 245.16074,36.29137 C 241.73653,36.23988 241.65477,44.3965 243.92329,45.66054 C 246.51854,47.10663 265.65499,47.26138 268.14171,46.01409 C 270.50163,44.8304 270.9495,36.67916 268.67203,36.64492 L 245.16074,36.29137 z"
       id="path3204"
       sodipodi:nodetypes="cssss" />
    <path
       style="fill:#000000;fill-opacity:1;fill-rule:evenodd;stroke:none;stroke-width:1px;stroke-linecap:butt;stroke-linejoin:miter;stroke-opacity:1"
       d="M 255.32425,22.2571 C 254.29031,23.63731 253.2938,60.25464 253.47799,74.82349 C 253.54441,80.25372 255.94365,87.97601 259.75347,91.08324 C 262.14277,93.03192 265.78622,94.10504 267.9417,92.35816 C 269.20571,91.33376 270.45671,87.86796 270.27818,84.68377 C 270.15645,82.51258 260.8977,81.75945 260.17187,74.41816 C 258.23118,54.78937 260.58084,24.13054 259.11495,22.49758 C 258.24273,21.52595 255.96695,21.39915 255.32425,22.2571 z"
       id="path3206"
       sodipodi:nodetypes="csssssss" />
    <path
       style="fill:#000000;fill-opacity:1;fill-rule:evenodd;stroke:none;stroke-width:1px;stroke-linecap:butt;stroke-linejoin:miter;stroke-opacity:1"
       d="M 200.26713,142.29968 C 200.17077,142.31405 200.28927,142.34 200.26713,142.39343 C 199.14165,161.10784 199.02453,168.79911 199.02969,181.00034 C 199.03431,191.91844 200.9347,201.16035 203.4341,205.33184 C 205.97898,209.57924 208.01851,211.31316 210.86364,212.37382 C 212.95707,210.23142 216.07637,207.48912 217.6985,204.40414 C 215.29193,203.14058 211.09464,200.92713 210.49845,188.31224 C 209.85569,174.71206 210.05692,161.58739 211.38233,146.61218 C 210.76791,146.02305 201.71249,142.08416 200.26713,142.29968 z"
       id="path3182"
       sodipodi:nodetypes="ccszccscc" />
    <path
       style="fill:#000000;fill-opacity:1;fill-rule:evenodd;stroke:none;stroke-width:1px;stroke-linecap:butt;stroke-linejoin:miter;stroke-opacity:1"
       d="M 266.09035,142.29968 C 265.99399,142.31405 266.11249,142.34 266.09035,142.39343 C 264.96487,161.10784 264.84775,168.79911 264.85291,181.00034 C 264.85753,191.91844 266.75792,201.16035 269.25732,205.33184 C 271.8022,209.57924 273.84173,211.13639 276.68686,212.19705 C 278.78029,210.05465 281.89959,207.31235 283.52172,204.22737 C 281.11515,202.96381 276.91786,200.92713 276.32167,188.31224 C 275.67891,174.71206 275.88014,161.58739 277.20555,146.61218 C 276.59113,146.02305 267.53571,142.08416 266.09035,142.29968 z"
       id="path2421"
       sodipodi:nodetypes="ccszccscc" />
  </g>
</svg>
