<?xml version="1.0" encoding="UTF-8" standalone="no"?>
<!-- Created with Inkscape (http://www.inkscape.org/) -->
<svg
   xmlns:dc="http://purl.org/dc/elements/1.1/"
   xmlns:cc="http://creativecommons.org/ns#"
   xmlns:rdf="http://www.w3.org/1999/02/22-rdf-syntax-ns#"
   xmlns:svg="http://www.w3.org/2000/svg"
   xmlns="http://www.w3.org/2000/svg"
   xmlns:xlink="http://www.w3.org/1999/xlink"
   xmlns:sodipodi="http://sodipodi.sourceforge.net/DTD/sodipodi-0.dtd"
   xmlns:inkscape="http://www.inkscape.org/namespaces/inkscape"
   width="744.09448819"
   height="1052.3622047"
   id="svg5517"
   sodipodi:version="0.32"
   inkscape:version="0.45+devel"
   sodipodi:docname="type.svg"
   inkscape:output_extension="org.inkscape.output.svg.inkscape">
  <defs
     id="defs5519">
    <inkscape:perspective
       sodipodi:type="inkscape:persp3d"
       inkscape:vp_x="0 : 526.18109 : 1"
       inkscape:vp_y="0 : 1000 : 0"
       inkscape:vp_z="744.09448 : 526.18109 : 1"
       inkscape:persp3d-origin="372.04724 : 350.78739 : 1"
       id="perspective5525" />
    <inkscape:perspective
       id="perspective5591"
       inkscape:persp3d-origin="372.04724 : 350.78739 : 1"
       inkscape:vp_z="744.09448 : 526.18109 : 1"
       inkscape:vp_y="0 : 1000 : 0"
       inkscape:vp_x="0 : 526.18109 : 1"
       sodipodi:type="inkscape:persp3d" />
    <clipPath
       clipPathUnits="userSpaceOnUse"
       id="clipPath5599">
      <rect
         style="opacity:0.32242988;fill:#c41212;fill-opacity:1;stroke:none;stroke-width:1;stroke-linecap:square;stroke-linejoin:miter;stroke-miterlimit:4;stroke-dasharray:none;stroke-opacity:0.66183573"
         id="rect5601"
         width="351.42856"
         height="122.85714"
         x="18.571428"
         y="483.79074" />
    </clipPath>
  </defs>
  <sodipodi:namedview
     id="base"
     pagecolor="#ffffff"
     bordercolor="#666666"
     borderopacity="1.0"
     gridtolerance="10000"
     guidetolerance="10"
     objecttolerance="10"
     inkscape:pageopacity="0.0"
     inkscape:pageshadow="2"
     inkscape:zoom="1"
     inkscape:cx="132.36334"
     inkscape:cy="960.58162"
     inkscape:document-units="px"
     inkscape:current-layer="layer1"
     showgrid="false"
     showguides="true"
     inkscape:guide-bbox="true"
     inkscape:window-width="1270"
     inkscape:window-height="801"
     inkscape:window-x="5"
     inkscape:window-y="49" />
  <metadata
     id="metadata5522">
    <rdf:RDF>
      <cc:Work
         rdf:about="">
        <dc:format>image/svg+xml</dc:format>
        <dc:type
           rdf:resource="http://purl.org/dc/dcmitype/StillImage" />
      </cc:Work>
    </rdf:RDF>
  </metadata>
  <g
     inkscape:label="Layer 1"
     inkscape:groupmode="layer"
     id="layer1">
    <image
       y="44.005066"
       x="45.57143"
       id="image5593"
       height="531"
       width="326"
       sodipodi:absref="/media/sdb8/software_artwork/mudlet/type_scan.png"
       xlink:href="type_scan.png"
       clip-path="url(#clipPath5599)"
       transform="translate(-37.142857,-461.42857)" />
    <path
       style="fill:#ff4747;fill-rule:evenodd;stroke:none;stroke-width:1px;stroke-linecap:butt;stroke-linejoin:miter;stroke-opacity:1;fill-opacity:0.66222221"
       d="M 31.240762,112.00504 C 40.24422,98.985803 23.757804,89.668224 23.991123,70.493908 C 24.15212,57.136706 32.511969,50.15514 52.275394,48.52309 C 56.513409,67.361348 52.642573,83.541453 51.770318,101.17729 C 45.254592,101.552 45.391074,107.10064 44.69925,112.00504 C 51.51778,111.83668 57.999592,111.83668 64.144687,112.00504 C 65.999208,105.86872 66.365564,100.70901 57.578695,101.5561 C 58.302252,83.333942 60.278594,66.034454 61.998112,48.144282 C 76.809362,48.239567 90.953405,55.723832 86.620581,70.998984 C 82.743674,84.666824 75.213553,97.670443 75.003826,112.00504 C 79.488196,112.29006 83.750946,112.46426 89.524769,113.394 C 91.711081,107.11323 90.075251,102.04905 82.201164,100.79848 C 83.445539,91.252356 119.53424,36.581018 55.305852,36.653797 C 36.938198,39.050044 1.6935043,49.620423 27.210984,100.86162 C 18.658793,103.69652 18.412238,108.12676 20.338294,113.25504 C 21.563733,112.12993 26.002549,111.94993 31.240762,112.00504 z"
       id="path5605"
       sodipodi:nodetypes="csccccccsccccccc" />
    <path
       style="fill:#ff4747;fill-rule:evenodd;stroke:none;stroke-width:1px;stroke-linecap:butt;stroke-linejoin:miter;stroke-opacity:1;fill-opacity:0.66222221000000003"
       d="M 105.81348,72.261674 C 102.58352,73.858774 101.7067,76.368403 101.14152,79.964087 C 102.275,80.938043 103.34813,82.032685 104.80333,82.363199 C 94.380132,114.15722 125.22968,122.28121 134.72909,97.136681 C 135.69056,124.39772 150.64505,107.1237 147.10346,102.43998 C 144.85723,102.62157 141.58863,102.22114 141.04255,100.29341 C 139.71433,95.60461 140.05731,88.550724 140.84066,79.638092 C 140.93588,78.554728 141.64255,75.857943 141.29509,73.398096 C 139.15704,73.879182 136.53644,75.893409 135.48671,78.701397 C 139.72861,98.731382 99.210777,114.83155 110.57853,80.771311 C 111.22437,78.836246 111.67097,76.583586 112.00067,74.408248 C 109.89608,72.600784 107.25958,72.06578 105.81348,72.261674 z"
       id="path6136"
       sodipodi:nodetypes="cccccssccscc" />
    <path
       style="fill:#ff4747;fill-rule:evenodd;stroke:none;stroke-width:1px;stroke-linecap:butt;stroke-linejoin:miter;stroke-opacity:1;fill-opacity:0.66222221000000003"
       d="M 191.09375 44.5625 C 188.72938 44.577372 186.92043 47.915255 185.96875 56.40625 C 186.14552 62.044157 186.32322 68.376792 186.5 74.4375 C 186.50001 74.437501 168.28529 74.285432 164.21875 79.90625 C 162.02149 82.943324 159.4375 95.125 159.4375 95.125 C 157.03055 103.78999 170.80198 121.03404 184.90625 102.71875 C 191.29431 112.37069 196.6248 112.55492 200.65625 101.46875 L 197.625 98.125 C 186.12769 100.84241 189.71262 83.180121 190.75 74.78125 C 191.83083 66.030664 190.84256 55.20096 191.09375 44.5625 z M 185.25 84.6875 C 184.6019 96.487598 175.57345 105.08144 164.9375 95.65625 C 164.36152 92.71661 164.97878 90.37542 165.28125 87.875 C 171.93984 85.818951 178.59141 85.397854 185.25 84.6875 z "
       id="path6138" />
    <path
       style="fill:#ff4747;fill-rule:evenodd;stroke:none;stroke-width:1px;stroke-linecap:butt;stroke-linejoin:miter;stroke-opacity:1;fill-opacity:0.66222221"
       d="M 216.55145,49.331212 C 214.41703,62.534907 213.58542,75.30433 212.83914,88.045308 C 211.66334,108.11957 219.97563,106.64827 224.68318,112.00504 C 226.47041,108.35283 227.3115,105.01599 227.68838,101.83389 C 227.68838,101.83389 215.54859,98.931701 217.96566,82.211678 C 219.2334,73.442144 219.59651,49.58667 219.2031,49.507989 L 216.55145,49.331212 z"
       id="path6143"
       sodipodi:nodetypes="csccscc" />
    <path
       style="fill:#ff4747;fill-rule:evenodd;stroke:none;stroke-width:1px;stroke-linecap:butt;stroke-linejoin:miter;stroke-opacity:1;fill-opacity:0.66222221000000003"
       d="M 260.71875 73.53125 C 256.84644 73.409789 251.9263 74.304065 245.90625 76.71875 C 243.69413 85.29484 242.83204 92.522746 241.46875 100.25 C 247.45804 113.14084 255.95148 116.25031 268.53125 103.25 C 270.28962 101.45633 270.61696 98.710559 271 96 L 267.46875 94.59375 C 260.5737 99.065687 254.6394 103.20478 249.59375 97.59375 L 251.1875 95.8125 C 274.16842 94.029647 277.49878 74.05758 260.71875 73.53125 z M 250.71875 83.40625 C 254.09792 83.378478 257.10247 83.733631 260.21875 83.96875 C 256.65329 85.838936 252.87656 87.408953 248.375 87.875 C 248.6397 86.431791 248.56735 85.298668 249.25 83.4375 C 249.75007 83.416204 250.23601 83.410217 250.71875 83.40625 z "
       id="path6145" />
    <path
       style="fill:#ff4747;fill-rule:evenodd;stroke:none;stroke-width:1px;stroke-linecap:butt;stroke-linejoin:miter;stroke-opacity:1;fill-opacity:0.66222221"
       d="M 291.50477,52.866747 C 289.8675,59.293853 288.17508,79.094887 287.79246,96.177037 C 287.53576,107.6374 293.97566,113.91747 302.99526,112.00504 C 304.66519,109.25654 304.80921,105.49076 305.11658,101.83389 C 300.42121,102.86827 292.59359,100.8837 292.74221,91.934396 C 293.05935,72.837247 295.08933,63.895272 296.27774,49.154435 C 294.68675,48.419112 293.09576,49.363651 291.50477,52.866747 z"
       id="path6150"
       sodipodi:nodetypes="csccscc" />
    <path
       style="fill:#ff4747;fill-rule:evenodd;stroke:none;stroke-width:1px;stroke-linecap:butt;stroke-linejoin:miter;stroke-opacity:1;fill-opacity:0.66222221000000003"
       d="M 282.13561,61.352027 C 280.60622,64.416157 280.13818,67.480286 280.01428,70.544416 C 289.56197,73.081692 297.35291,71.751949 305.11658,71.074746 C 305.78999,68.023231 306.58717,65.033602 306.35401,61.528804 L 282.13561,61.352027 z"
       id="path6152"
       sodipodi:nodetypes="ccccc" />
  </g>
</svg>
