<?xml version="1.0" encoding="UTF-8" standalone="no"?>
<!-- Created with Inkscape (http://www.inkscape.org/) -->
<svg
   xmlns:dc="http://purl.org/dc/elements/1.1/"
   xmlns:cc="http://creativecommons.org/ns#"
   xmlns:rdf="http://www.w3.org/1999/02/22-rdf-syntax-ns#"
   xmlns:svg="http://www.w3.org/2000/svg"
   xmlns="http://www.w3.org/2000/svg"
   xmlns:xlink="http://www.w3.org/1999/xlink"
   xmlns:sodipodi="http://sodipodi.sourceforge.net/DTD/sodipodi-0.dtd"
   xmlns:inkscape="http://www.inkscape.org/namespaces/inkscape"
   width="420"
   height="272"
   id="svg5517"
   sodipodi:version="0.32"
   inkscape:version="0.45+devel"
   sodipodi:docname="type.svg"
   inkscape:output_extension="org.inkscape.output.svg.inkscape"
   version="1.0">
  <defs
     id="defs5519">
    <inkscape:perspective
       sodipodi:type="inkscape:persp3d"
       inkscape:vp_x="0 : 526.18109 : 1"
       inkscape:vp_y="0 : 1000 : 0"
       inkscape:vp_z="744.09448 : 526.18109 : 1"
       inkscape:persp3d-origin="372.04724 : 350.78739 : 1"
       id="perspective5525" />
    <inkscape:perspective
       id="perspective5591"
       inkscape:persp3d-origin="372.04724 : 350.78739 : 1"
       inkscape:vp_z="744.09448 : 526.18109 : 1"
       inkscape:vp_y="0 : 1000 : 0"
       inkscape:vp_x="0 : 526.18109 : 1"
       sodipodi:type="inkscape:persp3d" />
    <clipPath
       clipPathUnits="userSpaceOnUse"
       id="clipPath5599">
      <rect
         style="opacity:0.32242988;fill:#c41212;fill-opacity:1;stroke:none;stroke-width:1;stroke-linecap:square;stroke-linejoin:miter;stroke-miterlimit:4;stroke-dasharray:none;stroke-opacity:0.66183573"
         id="rect5601"
         width="351.42856"
         height="122.85714"
         x="18.571428"
         y="483.79074" />
    </clipPath>
  </defs>
  <sodipodi:namedview
     id="base"
     pagecolor="#ffffff"
     bordercolor="#666666"
     borderopacity="1.0"
     gridtolerance="10000"
     guidetolerance="10"
     objecttolerance="10"
     inkscape:pageopacity="0.0"
     inkscape:pageshadow="2"
     inkscape:zoom="1"
     inkscape:cx="165.8996"
     inkscape:cy="84.595596"
     inkscape:document-units="px"
     inkscape:current-layer="layer1"
     showgrid="false"
     showguides="true"
     inkscape:guide-bbox="true"
     inkscape:window-width="1270"
     inkscape:window-height="801"
     inkscape:window-x="5"
     inkscape:window-y="49"
     showborder="true"
     borderlayer="false"
     inkscape:snap-global="false" />
  <metadata
     id="metadata5522">
    <rdf:RDF>
      <cc:Work
         rdf:about="">
        <dc:format>image/svg+xml</dc:format>
        <dc:type
           rdf:resource="http://purl.org/dc/dcmitype/StillImage" />
      </cc:Work>
    </rdf:RDF>
  </metadata>
  <g
     inkscape:label="Layer 1"
     inkscape:groupmode="layer"
     id="layer1"
     transform="translate(25,-8.3621826)">
    <image
       y="44.005066"
       x="45.57143"
       id="image5593"
       height="531"
       width="326"
       sodipodi:absref="/media/sdb8/software_artwork/mudlet/type_scan.png"
       xlink:href="type_scan.png"
       clip-path="url(#clipPath5599)"
       transform="translate(-37.142857,-461.42857)" />
    <path
       style="fill:#000000;fill-opacity:1;fill-rule:evenodd;stroke:none;stroke-width:1px;stroke-linecap:butt;stroke-linejoin:miter;stroke-opacity:1"
       d="M 34.551422,211.95326 C 36.896985,206.81733 34.940852,201.73107 34.096686,199.47682 C 31.666475,192.98722 24.758989,180.08107 24.875006,170.49391 C 25.036645,157.13672 32.511969,150.15514 52.275394,148.52309 C 54.922419,166.72977 54.587117,182.44333 53.714862,200.82374 C 50.456999,201.0111 48.109909,201.19988 46.498879,203.5201 C 44.887848,205.84032 45.35824,210.17227 45.57425,212.00504 C 45.72018,213.24321 50.460815,212.08715 55.918842,212.08752 C 61.376869,212.08788 67.177289,213.24468 67.442784,212.10859 C 67.9477,209.94799 68.190684,205.62251 66.956433,203.39156 C 65.722183,201.16061 62.892624,201.05934 59.648239,200.95255 C 60.371796,182.73039 60.278594,166.03445 61.998112,148.14428 C 76.809362,148.23957 88.090248,155.18937 86.620581,170.99898 C 85.919565,178.54001 81.589922,194.10178 78.998322,200.65795 C 78.134642,202.84287 76.669111,207.94602 78.03936,212.07826 C 78.305537,212.88097 83.888139,212.71406 87.179584,212.91605 C 90.471029,213.11804 91.471317,213.68893 92.072866,212.96722 C 95.329902,209.0596 92.903678,202.4026 85.029591,201.15203 C 86.273966,191.60591 119.53424,136.58102 55.305852,136.6538 C 36.938198,139.05004 2.7541644,149.44364 28.271644,200.68484 C 19.719453,203.51974 18.98158,210.0076 21.398954,213.07826 C 21.766015,213.54452 23.650603,212.84944 26.770191,212.61971 C 29.889778,212.38998 34.244364,212.6256 34.551422,211.95326 z"
       id="path5605"
       sodipodi:nodetypes="cssccsssssccssssscccsss" />
    <path
       style="fill:#000000;fill-opacity:1;fill-rule:evenodd;stroke:none;stroke-width:1px;stroke-linecap:butt;stroke-linejoin:miter;stroke-opacity:1"
       d="M 106.20993,172.86522 C 102.88177,174.14137 101.13509,177.32809 101.53797,180.56764 C 101.70339,181.89773 103.74458,182.63624 105.19978,182.96675 C 98.026579,215.76077 125.37613,222.63476 134.87554,197.49023 C 135.83701,224.75127 151.96285,206.40058 147.78024,203.14708 C 146.17503,201.89845 142.65648,204.30878 141.71933,201.00051 C 140.78218,197.69224 140.73409,189.25782 141.51744,180.34519 C 141.61266,179.26183 143.29243,175.15653 141.97187,174.1052 C 140.80692,173.17777 135.22546,176.13814 135.63316,179.05495 C 138.41763,198.97611 102.60723,216.1851 110.97498,181.37486 C 111.4534,179.39176 113.18216,176.7734 112.39712,175.0118 C 111.40727,172.79059 107.55783,172.34838 106.20993,172.86522 z"
       id="path6136"
       sodipodi:nodetypes="csccszssssss" />
    <path
       style="fill:#000000;fill-opacity:1;fill-rule:evenodd;stroke:none;stroke-width:1px;stroke-linecap:butt;stroke-linejoin:miter;stroke-opacity:1"
       d="M 186.87408,141.03953 C 185.58726,139.54899 182.21584,144.37282 181.74908,152.88328 C 181.44093,158.50172 181.04289,164.67704 181.21967,170.73775 C 181.21968,170.73775 164.36715,171.88686 158.93842,176.2065 C 155.32695,179.08015 154.29196,191.58288 154.33395,196.375 C 154.41896,206.07642 168.88041,223.87503 181.39369,199.54933 C 182.1249,219.10077 196.26822,211.97798 194.31527,202.71875 C 193.69361,199.7714 189.63465,205.2398 187.73693,199.87646 C 186.09027,195.22268 185.54387,182.87978 186.53033,171.25828 C 186.81661,162.44584 188.42631,142.8375 186.87408,141.03953 z M 179.96967,180.98775 C 180.38223,198.4447 170.33142,207.47203 161.07139,197.2598 C 159.11949,195.1072 159.92072,185.73842 161.76868,184.52881 C 166.88178,181.18195 173.31108,181.6981 179.96967,180.98775 z"
       id="path6138"
       sodipodi:nodetypes="csssscsscscssc" />
    <path
       style="fill:#000000;fill-opacity:1;fill-rule:evenodd;stroke:none;stroke-width:1px;stroke-linecap:butt;stroke-linejoin:miter;stroke-opacity:1"
       d="M 202.66004,146.28159 C 201.33033,148.6783 200.97555,173.24979 201.11555,187.94176 C 201.30715,208.04959 209.14479,212.81959 213.51868,211.90149 C 215.33392,211.52046 217.25381,204.07139 216.66574,201.73034 C 216.08404,199.41462 206.1782,209.20315 207.00766,181.98313 C 207.27756,173.12618 208.32691,141.94123 206.61496,141.58337 C 204.94203,141.23367 204.39194,143.15995 202.66004,146.28159 z"
       id="path6143"
       sodipodi:nodetypes="csszsss" />
    <path
       style="fill:#000000;fill-opacity:1;fill-rule:evenodd;stroke:none;stroke-width:1px;stroke-linecap:butt;stroke-linejoin:miter;stroke-opacity:1"
       d="M 244.57159,170.72442 C 240.69817,170.64615 232.25939,170.60496 228.29287,174.84366 C 224.56014,178.83253 223.15143,197.71585 224.15712,200.92272 C 228.29638,214.12176 242.10325,217.79111 252.75409,203.85397 C 254.4232,201.66985 253.66447,198.42258 251.48267,196.33643 C 250.76945,195.65448 247.36145,198.91413 243.46631,201.22528 C 239.33119,203.6788 232.78473,202.30072 231.61169,196.80808 C 231.46936,196.1416 231.62297,195.14343 233.0577,194.76057 C 258.64632,193.06723 261.35645,171.06357 244.57159,170.72442 z M 244.94077,181.40846 C 245.35792,183.44231 235.40149,186.20535 230.90541,186.72158 C 230.78802,185.27959 230.92558,183.01973 232.20713,181.14415 C 237.70516,179.49134 244.67773,180.12601 244.94077,181.40846 z"
       id="path6145"
       sodipodi:nodetypes="csssssscccccs" />
    <path
       style="fill:#000000;fill-opacity:1;fill-rule:evenodd;stroke:none;stroke-width:1px;stroke-linecap:butt;stroke-linejoin:miter;stroke-opacity:1"
       d="M 258.41074,158.10203 C 254.98623,158.07703 254.02089,166.03038 256.28941,167.29442 C 258.88466,168.74051 278.90499,169.07204 281.39171,167.82475 C 283.75163,166.64106 284.9068,158.29542 282.62914,158.2788 L 258.41074,158.10203 z"
       id="path6152"
       sodipodi:nodetypes="cssss" />
    <path
       style="fill:#000000;fill-opacity:1;fill-rule:evenodd;stroke:none;stroke-width:1px;stroke-linecap:butt;stroke-linejoin:miter;stroke-opacity:1"
       d="M 268.42779,146.28159 C 267.09808,148.6783 266.2433,173.49979 266.3833,188.19176 C 266.5749,208.29959 272.07155,212.43571 282.0542,212.50505 C 283.90896,212.51762 284.34453,204.69965 283.28704,203.11422 C 282.28066,201.60543 271.44595,209.45315 272.27541,182.23313 C 272.54531,173.37618 274.09466,141.94123 272.38271,141.58337 C 270.70978,141.23367 270.15969,143.15995 268.42779,146.28159 z"
       id="path6158"
       sodipodi:nodetypes="csszsss" />
  </g>
</svg>
