<?xml version="1.0" encoding="UTF-8" standalone="no"?>
<!-- Created with Inkscape (http://www.inkscape.org/) -->
<svg
   xmlns:dc="http://purl.org/dc/elements/1.1/"
   xmlns:cc="http://creativecommons.org/ns#"
   xmlns:rdf="http://www.w3.org/1999/02/22-rdf-syntax-ns#"
   xmlns:svg="http://www.w3.org/2000/svg"
   xmlns="http://www.w3.org/2000/svg"
   xmlns:sodipodi="http://sodipodi.sourceforge.net/DTD/sodipodi-0.dtd"
   xmlns:inkscape="http://www.inkscape.org/namespaces/inkscape"
   width="308"
   height="122"
   id="svg5517"
   sodipodi:version="0.32"
   inkscape:version="0.45+devel"
   sodipodi:docname="type.svg"
   inkscape:output_extension="org.inkscape.output.svg.inkscape"
   version="1.0">
  <defs
     id="defs5519">
    <inkscape:perspective
       sodipodi:type="inkscape:persp3d"
       inkscape:vp_x="0 : 136 : 1"
       inkscape:vp_y="0 : 1000 : 0"
       inkscape:vp_z="420 : 136 : 1"
       inkscape:persp3d-origin="210 : 90.666667 : 1"
       id="perspective24" />
    <inkscape:perspective
       sodipodi:type="inkscape:persp3d"
       inkscape:vp_x="0 : 526.18109 : 1"
       inkscape:vp_y="0 : 1000 : 0"
       inkscape:vp_z="744.09448 : 526.18109 : 1"
       inkscape:persp3d-origin="372.04724 : 350.78739 : 1"
       id="perspective5525" />
    <inkscape:perspective
       id="perspective5591"
       inkscape:persp3d-origin="372.04724 : 350.78739 : 1"
       inkscape:vp_z="744.09448 : 526.18109 : 1"
       inkscape:vp_y="0 : 1000 : 0"
       inkscape:vp_x="0 : 526.18109 : 1"
       sodipodi:type="inkscape:persp3d" />
    <clipPath
       clipPathUnits="userSpaceOnUse"
       id="clipPath5599">
      <rect
         style="opacity:0.32242988;fill:#c41212;fill-opacity:1;stroke:none;stroke-width:1;stroke-linecap:square;stroke-linejoin:miter;stroke-miterlimit:4;stroke-dasharray:none;stroke-opacity:0.66183573"
         id="rect5601"
         width="351.42856"
         height="122.85714"
         x="18.571428"
         y="483.79074" />
    </clipPath>
  </defs>
  <sodipodi:namedview
     id="base"
     pagecolor="#ffffff"
     bordercolor="#666666"
     borderopacity="1.0"
     gridtolerance="10000"
     guidetolerance="10"
     objecttolerance="10"
     inkscape:pageopacity="0.0"
     inkscape:pageshadow="2"
     inkscape:zoom="2"
     inkscape:cx="140.76286"
     inkscape:cy="125.76643"
     inkscape:document-units="px"
     inkscape:current-layer="layer1"
     showgrid="false"
     showguides="false"
     inkscape:guide-bbox="true"
     inkscape:window-width="1270"
     inkscape:window-height="801"
     inkscape:window-x="5"
     inkscape:window-y="49"
     showborder="true"
     borderlayer="false"
     inkscape:snap-global="false">
    <sodipodi:guide
       orientation="1,0"
       position="82.375,113.5"
       id="guide6160" />
    <sodipodi:guide
       orientation="0,1"
       position="131.87541,67.882251"
       id="guide6162" />
    <sodipodi:guide
       orientation="0,1"
       position="142.83557,79.019183"
       id="guide6164" />
    <sodipodi:guide
       orientation="0,1"
       position="172.5,106.5"
       id="guide6166" />
    <inkscape:grid
       type="xygrid"
       id="grid6168"
       empspacing="5"
       visible="true"
       enabled="true" />
  </sodipodi:namedview>
  <metadata
     id="metadata5522">
    <rdf:RDF>
      <cc:Work
         rdf:about="">
        <dc:format>image/svg+xml</dc:format>
        <dc:type
           rdf:resource="http://purl.org/dc/dcmitype/StillImage" />
      </cc:Work>
    </rdf:RDF>
  </metadata>
  <g
     inkscape:label="Layer 1"
     inkscape:groupmode="layer"
     id="layer1"
     transform="translate(5,-117.36218)">
    <path
       style="fill:#000000;fill-opacity:1;fill-rule:evenodd;stroke:none;stroke-width:1px;stroke-linecap:butt;stroke-linejoin:miter;stroke-opacity:1"
       d="M 57.1875,136.39343 C 18.363131,136.77603 8.774178,159.08297 28.28125,201.30856 C 20.104058,203.51846 19.655733,210.19694 21.5625,213.45593 C 21.898377,214.03 23.888781,212.81276 26.074143,212.56041 C 29.463027,212.16907 33.910445,211.98107 34.5625,212.08093 C 36.022311,212.3045 36.88246,206.61795 34.09375,199.23718 C 31.644467,192.75475 24.758983,179.82434 24.875,170.23718 C 25.036637,156.87999 32.517825,149.90048 52.28125,148.26843 C 54.928278,166.47511 55.403505,180.95328 54.53125,199.33369 C 51.273386,199.52105 48.92353,199.70097 47.3125,202.02119 C 45.701466,204.3414 45.515789,211.5001 46.81158,211.32205 C 48.019598,211.15606 51.729473,211.07168 57.1875,211.07205 C 62.645527,211.07168 66.854488,211.15606 68.0625,211.32205 C 69.358291,211.5001 68.673533,204.3414 67.0625,202.02119 C 65.45147,199.70097 63.101612,199.52105 59.84375,199.33369 C 58.971495,180.95328 59.446728,166.47511 62.09375,148.26843 C 81.85717,149.90048 89.30711,156.87999 89.46875,170.23718 C 89.58477,179.82434 82.64102,192.73304 80.25,199.23718 C 77.99162,205.38052 78.35269,212.3045 79.8125,212.08093 C 80.46456,211.98107 84.23458,212.14253 87.59375,212.73718 C 91.01655,213.34309 92.41419,214.01058 92.78125,213.45593 C 94.93802,210.19694 97.77094,203.38458 86.09375,200.42468 C 105.7776,158.55264 94.06733,136.59925 57.1875,136.39343 z"
       id="path5605"
       sodipodi:nodetypes="ccsssssccsssssccssssscc" />
    <path
       style="fill:#000000;fill-opacity:1;fill-rule:evenodd;stroke:none;stroke-width:1px;stroke-linecap:butt;stroke-linejoin:miter;stroke-opacity:1"
       d="M 104.04572,172.86522 C 101.69072,174.55844 101.04929,177.61275 100.78797,180.56764 C 100.66989,181.90277 102.99458,182.63624 104.44978,182.96675 C 95.773977,218.94275 124.62613,222.63476 134.12554,197.49023 C 134.72055,211.51535 137.57166,213.17702 141.83678,213.27228 C 148.95406,213.43404 149.1504,207.77604 147.65524,204.14708 C 146.89009,202.28995 141.65648,204.43378 140.84433,199.62551 C 140.01165,194.69566 139.47521,188.49005 140.25856,179.57742 C 140.35378,178.49406 141.65855,173.38876 140.33799,172.33743 C 139.17304,171.41 132.82319,174.14404 133.37428,177.03718 C 137.57296,199.07966 100.60723,217.39221 108.97498,181.87486 C 109.44279,179.88923 111.54828,176.59662 110.76324,174.83502 C 109.77339,172.61381 105.21781,172.0225 104.04572,172.86522 z"
       id="path6136"
       sodipodi:nodetypes="csccsszssssss" />
    <path
       style="fill:#000000;fill-opacity:1;fill-rule:evenodd;stroke:none;stroke-width:1px;stroke-linecap:butt;stroke-linejoin:miter;stroke-opacity:1"
       d="M 186.77313,142.42342 C 186.11775,141.79501 183.40333,141.54866 183.04908,142.40346 C 182.3622,144.06091 182.25846,148.54413 181.74908,152.88328 C 181.11611,158.27518 180.46963,163.67446 180.46967,169.73775 C 180.46968,171.15857 163.74215,171.15009 158.31342,175.7065 C 154.7783,178.67357 153.76512,192.33303 153.70895,197.125 C 153.63066,203.80436 157.32408,210.22416 162.56432,212.52789 C 168.36763,215.07917 173.37351,214.74652 181.89369,200.54933 C 182.2593,211.26255 185.51366,212.26712 189.15791,212.42242 C 196.99415,212.75637 196.95063,206.77933 195.81527,203.59375 C 195.06382,201.48534 188.95962,203.3077 187.73693,197.75146 C 186.46527,191.97268 186.45512,182.61042 186.70711,170.63328 C 186.89677,161.61864 187.84786,143.45392 186.77313,142.42342 z M 179.71967,180.86275 C 180.50723,202.9447 165.95642,207.22203 159.57139,198.1348 C 157.90082,195.75724 158.29572,186.61342 160.14368,185.40381 C 165.25678,182.05695 173.06108,181.5731 179.71967,180.86275 z"
       id="path6138"
       sodipodi:nodetypes="csssssscssssscssc" />
    <path
       style="fill:#000000;fill-opacity:1;fill-rule:evenodd;stroke:none;stroke-width:1px;stroke-linecap:butt;stroke-linejoin:miter;stroke-opacity:1"
       d="M 203.32425,142.2571 C 202.29031,143.63731 201.2938,180.25464 201.47799,194.82349 C 201.54441,200.25372 203.94365,207.44568 207.75347,210.55291 C 210.14277,212.50159 213.78622,213.57471 215.9417,211.82783 C 217.20571,210.80343 218.45671,207.33763 218.27818,204.15344 C 218.15645,201.98225 208.8977,201.75945 208.17187,194.41816 C 206.23118,174.78937 208.58084,144.13054 207.11495,142.49758 C 206.24273,141.52595 203.96695,141.39915 203.32425,142.2571 z"
       id="path6143"
       sodipodi:nodetypes="csssssss" />
    <path
       style="fill:#000000;fill-opacity:1;fill-rule:evenodd;stroke:none;stroke-width:1px;stroke-linecap:butt;stroke-linejoin:miter;stroke-opacity:1"
       d="M 245.07159,170.97442 C 241.56231,170.60179 231.50939,170.60496 227.54287,174.84366 C 223.81014,178.83253 222.40143,197.71585 223.40712,200.92272 C 225.47675,207.52224 232.0783,212.36864 235.79409,212.56441 C 241.13883,212.84601 250.19869,209.71235 253.18087,204.94496 C 254.22077,203.28255 253.19304,197.99531 251.73267,197.25064 C 249.74243,196.23577 247.36913,197.16362 243.71631,199.84139 C 238.82778,203.42502 232.29997,201.72609 230.50814,197.33841 C 230.25048,196.70749 230.51942,195.67376 231.95415,195.2909 C 239.97549,192.85324 247.48302,194.37448 249.75496,191.11272 C 251.42162,188.71994 255.88678,182.63941 254.44548,178.77039 C 253.00419,174.90137 248.1313,171.29931 245.07159,170.97442 z M 243.06837,180.69247 C 243.92396,180.7148 245.17045,181.01015 245.49437,182.97348 C 245.8343,185.0339 242.24642,185.24419 241.58662,185.3512 C 237.32795,186.04191 231.82426,187.28213 230.64653,187.00191 C 229.64292,186.76312 230.41917,183.12012 232.44825,182.36014 C 233.77028,181.86498 241.75967,180.65832 243.06837,180.69247 z"
       id="path6145"
       sodipodi:nodetypes="cssssssscssscsssss" />
    <path
       style="fill:#000000;fill-opacity:1;fill-rule:evenodd;stroke:none;stroke-width:1px;stroke-linecap:butt;stroke-linejoin:miter;stroke-opacity:1"
       d="M 252.91074,155.04137 C 249.48653,154.98988 249.40477,163.1465 251.67329,164.41054 C 254.26854,165.85663 273.40499,166.01138 275.89171,164.76409 C 278.25163,163.5804 278.6995,155.42916 276.42203,155.39492 L 252.91074,155.04137 z"
       id="path6152"
       sodipodi:nodetypes="cssss" />
    <path
       style="fill:#000000;fill-opacity:1;fill-rule:evenodd;stroke:none;stroke-width:1px;stroke-linecap:butt;stroke-linejoin:miter;stroke-opacity:1"
       d="M 262.82425,142.2571 C 261.79031,143.63731 260.7938,180.25464 260.97799,194.82349 C 261.04441,200.25372 263.44365,207.44568 267.25347,210.55291 C 269.64277,212.50159 273.28622,213.57471 275.4417,211.82783 C 276.70571,210.80343 277.95671,207.33763 277.77818,204.15344 C 277.65645,201.98225 268.3977,201.75945 267.67187,194.41816 C 265.73118,174.78937 268.08084,144.13054 266.61495,142.49758 C 265.74273,141.52595 263.46695,141.39915 262.82425,142.2571 z"
       id="path2400"
       sodipodi:nodetypes="csssssss" />
  </g>
</svg>
