<?xml version="1.0" encoding="UTF-8" standalone="no"?>
<!-- Created with Inkscape (http://www.inkscape.org/) -->
<svg
   xmlns:dc="http://purl.org/dc/elements/1.1/"
   xmlns:cc="http://creativecommons.org/ns#"
   xmlns:rdf="http://www.w3.org/1999/02/22-rdf-syntax-ns#"
   xmlns:svg="http://www.w3.org/2000/svg"
   xmlns="http://www.w3.org/2000/svg"
   xmlns:xlink="http://www.w3.org/1999/xlink"
   xmlns:sodipodi="http://sodipodi.sourceforge.net/DTD/sodipodi-0.dtd"
   xmlns:inkscape="http://www.inkscape.org/namespaces/inkscape"
   width="420"
   height="272"
   id="svg5517"
   sodipodi:version="0.32"
   inkscape:version="0.45+devel"
   sodipodi:docname="type.svg"
   inkscape:output_extension="org.inkscape.output.svg.inkscape"
   version="1.0">
  <defs
     id="defs5519">
    <inkscape:perspective
       sodipodi:type="inkscape:persp3d"
       inkscape:vp_x="0 : 526.18109 : 1"
       inkscape:vp_y="0 : 1000 : 0"
       inkscape:vp_z="744.09448 : 526.18109 : 1"
       inkscape:persp3d-origin="372.04724 : 350.78739 : 1"
       id="perspective5525" />
    <inkscape:perspective
       id="perspective5591"
       inkscape:persp3d-origin="372.04724 : 350.78739 : 1"
       inkscape:vp_z="744.09448 : 526.18109 : 1"
       inkscape:vp_y="0 : 1000 : 0"
       inkscape:vp_x="0 : 526.18109 : 1"
       sodipodi:type="inkscape:persp3d" />
    <clipPath
       clipPathUnits="userSpaceOnUse"
       id="clipPath5599">
      <rect
         style="opacity:0.32242988;fill:#c41212;fill-opacity:1;stroke:none;stroke-width:1;stroke-linecap:square;stroke-linejoin:miter;stroke-miterlimit:4;stroke-dasharray:none;stroke-opacity:0.66183573"
         id="rect5601"
         width="351.42856"
         height="122.85714"
         x="18.571428"
         y="483.79074" />
    </clipPath>
  </defs>
  <sodipodi:namedview
     id="base"
     pagecolor="#ffffff"
     bordercolor="#666666"
     borderopacity="1.0"
     gridtolerance="10000"
     guidetolerance="10"
     objecttolerance="10"
     inkscape:pageopacity="0.0"
     inkscape:pageshadow="2"
     inkscape:zoom="8"
     inkscape:cx="211.04612"
     inkscape:cy="90.913616"
     inkscape:document-units="px"
     inkscape:current-layer="layer1"
     showgrid="false"
     showguides="false"
     inkscape:guide-bbox="true"
     inkscape:window-width="1270"
     inkscape:window-height="801"
     inkscape:window-x="5"
     inkscape:window-y="49"
     showborder="true"
     borderlayer="false"
     inkscape:snap-global="false">
    <sodipodi:guide
       orientation="1,0"
       position="82.375,113.5"
       id="guide6160" />
    <sodipodi:guide
       orientation="0,1"
       position="131.87541,67.882251"
       id="guide6162" />
    <sodipodi:guide
       orientation="0,1"
       position="142.83557,79.019183"
       id="guide6164" />
    <sodipodi:guide
       orientation="0,1"
       position="172.5,106.5"
       id="guide6166" />
    <inkscape:grid
       type="xygrid"
       id="grid6168"
       empspacing="5"
       visible="true"
       enabled="true" />
  </sodipodi:namedview>
  <metadata
     id="metadata5522">
    <rdf:RDF>
      <cc:Work
         rdf:about="">
        <dc:format>image/svg+xml</dc:format>
        <dc:type
           rdf:resource="http://purl.org/dc/dcmitype/StillImage" />
      </cc:Work>
    </rdf:RDF>
  </metadata>
  <g
     inkscape:label="Layer 1"
     inkscape:groupmode="layer"
     id="layer1"
     transform="translate(25,-8.3621826)">
    <image
       y="44.005066"
       x="45.57143"
       id="image5593"
       height="531"
       width="326"
       sodipodi:absref="/media/sdb8/software_artwork/mudlet/type_scan.png"
       xlink:href="type_scan.png"
       clip-path="url(#clipPath5599)"
       transform="translate(-37.142857,-461.42857)" />
    <path
       style="fill:#000000;fill-opacity:1;fill-rule:evenodd;stroke:none;stroke-width:1px;stroke-linecap:butt;stroke-linejoin:miter;stroke-opacity:1"
       d="M 34.551422,212.32826 C 36.011233,212.55183 34.940852,201.73107 34.096686,199.47682 C 31.666475,192.98722 24.758989,180.08107 24.875006,170.49391 C 25.036645,157.13672 32.511969,150.15514 52.275394,148.52309 C 54.922419,166.72977 55.388894,182.79688 54.516639,201.17729 C 51.258776,201.36465 48.911686,201.55343 47.300656,203.87365 C 45.689625,206.19387 44.991848,212.62503 46.287639,212.44698 C 47.495654,212.28099 51.719699,212.1907 57.177726,212.19107 C 62.635753,212.19143 67.020307,212.76865 68.244561,212.97731 C 69.306925,213.15838 69.242461,206.47606 68.00821,204.24511 C 66.77396,202.01416 63.694401,201.66289 60.450016,201.5561 C 61.173573,183.33394 60.808924,166.71123 62.528442,148.82106 C 80.344896,149.97701 87.559918,155.36614 87.150911,170.8222 C 86.94825,178.39303 82.120252,193.925 79.528652,200.48117 C 78.664972,202.66609 76.753382,212.98344 78.56969,212.52648 C 79.755335,212.22819 84.293164,212.53789 87.334914,213.23927 C 90.548233,213.98021 91.501647,214.51215 92.103196,213.79044 C 95.360232,209.88282 96.934008,202.85082 85.559921,200.97525 C 97.764451,165.0894 102.12999,136.20839 56.930852,136.6538 C 18.106484,137.03639 8.5877954,158.8128 28.271644,200.68484 C 16.594453,203.64474 19.418964,210.45944 21.575731,213.71843 C 21.942792,214.27308 23.347392,213.60062 26.770191,212.99471 C 30.129368,212.40006 33.899367,212.2284 34.551422,212.32826 z"
       id="path5605"
       sodipodi:nodetypes="cssccsssssccssssscscsss" />
    <path
       style="fill:#000000;fill-opacity:1;fill-rule:evenodd;stroke:none;stroke-width:1px;stroke-linecap:butt;stroke-linejoin:miter;stroke-opacity:1"
       d="M 106.20993,172.86522 C 103.85493,174.55844 101.79929,177.61275 101.53797,180.56764 C 101.41989,181.90277 103.74458,182.63624 105.19978,182.96675 C 96.523977,218.94275 125.37613,222.63476 134.87554,197.49023 C 137.06556,227.29048 153.58785,207.27558 148.28024,202.02208 C 146.83488,200.59145 142.65648,204.30878 141.71933,201.00051 C 140.78218,197.69224 140.22521,188.49005 141.00856,179.57742 C 141.10378,178.49406 142.40855,173.38876 141.08799,172.33743 C 139.92304,171.41 133.57319,174.14404 134.12428,177.03718 C 138.32296,199.07966 102.60723,216.89221 110.97498,181.37486 C 111.44279,179.38923 113.18216,176.7734 112.39712,175.0118 C 111.40727,172.79059 107.38202,172.0225 106.20993,172.86522 z"
       id="path6136"
       sodipodi:nodetypes="csccszssssss" />
    <path
       style="fill:#000000;fill-opacity:1;fill-rule:evenodd;stroke:none;stroke-width:1px;stroke-linecap:butt;stroke-linejoin:miter;stroke-opacity:1"
       d="M 187.62408,141.28953 C 186.33726,139.79899 182.21584,144.37282 181.74908,152.88328 C 181.44093,158.50172 180.71963,166.17446 180.71967,172.23775 C 180.71968,173.65857 163.99215,173.65009 158.56342,178.2065 C 155.0283,181.17357 153.76512,192.33303 153.70895,197.125 C 153.54396,211.20142 170.13041,224.12503 182.64369,199.79933 C 183.3749,221.22577 198.89322,213.10298 195.81527,202.59375 C 194.96862,199.70299 189.34983,205.37482 188.48693,199.75146 C 187.71527,194.72268 187.82123,182.61042 188.53033,171.13328 C 189.08635,162.13381 189.17631,143.0875 187.62408,141.28953 z M 180.46967,180.86275 C 180.88223,198.3197 167.45642,206.97203 161.07139,197.8848 C 159.40082,195.50724 160.04572,187.11342 161.89368,185.90381 C 167.00678,182.55695 173.81108,181.5731 180.46967,180.86275 z"
       id="path6138"
       sodipodi:nodetypes="csssscsssscssc" />
    <path
       style="fill:#000000;fill-opacity:1;fill-rule:evenodd;stroke:none;stroke-width:1px;stroke-linecap:butt;stroke-linejoin:miter;stroke-opacity:1"
       d="M 201.91004,152.40659 C 201.41401,155.14478 200.55103,173.12838 200.99055,187.69176 C 201.41052,201.60727 204.19455,209.53943 208.50347,211.90646 C 212.81239,214.27349 218.64621,211.07538 216.66574,201.73034 C 216.04371,198.79523 206.1782,212.32815 207.50766,181.98313 C 207.89392,173.13049 208.70191,142.44123 207.11496,141.33337 C 205.71357,140.35505 202.84617,147.23893 201.91004,152.40659 z"
       id="path6143"
       sodipodi:nodetypes="cssssss" />
    <path
       style="fill:#000000;fill-opacity:1;fill-rule:evenodd;stroke:none;stroke-width:1px;stroke-linecap:butt;stroke-linejoin:miter;stroke-opacity:1"
       d="M 244.57159,170.72442 C 240.69817,170.64615 232.25939,170.60496 228.29287,174.84366 C 224.56014,178.83253 223.15143,197.71585 224.15712,200.92272 C 228.29638,214.12176 242.10325,217.79111 252.75409,203.85397 C 254.4232,201.66985 253.66447,198.42258 251.48267,196.33643 C 250.76945,195.65448 247.36145,198.91413 243.46631,201.22528 C 239.33119,203.6788 232.78473,202.30072 231.61169,196.80808 C 231.46936,196.1416 231.62297,195.14343 233.0577,194.76057 C 258.64632,193.06723 261.35645,171.06357 244.57159,170.72442 z M 244.94077,181.40846 C 245.35792,183.44231 235.40149,186.20535 230.90541,186.72158 C 230.78802,185.27959 230.92558,183.01973 232.20713,181.14415 C 237.70516,179.49134 244.67773,180.12601 244.94077,181.40846 z"
       id="path6145"
       sodipodi:nodetypes="csssssscccccs" />
    <path
       style="fill:#000000;fill-opacity:1;fill-rule:evenodd;stroke:none;stroke-width:1px;stroke-linecap:butt;stroke-linejoin:miter;stroke-opacity:1"
       d="M 258.41074,158.10203 C 254.98623,158.07703 254.02089,166.03038 256.28941,167.29442 C 258.88466,168.74051 278.90499,169.07204 281.39171,167.82475 C 283.75163,166.64106 284.9068,158.29542 282.62914,158.2788 L 258.41074,158.10203 z"
       id="path6152"
       sodipodi:nodetypes="cssss" />
    <path
       style="fill:#000000;fill-opacity:1;fill-rule:evenodd;stroke:none;stroke-width:1px;stroke-linecap:butt;stroke-linejoin:miter;stroke-opacity:1"
       d="M 268.42779,146.28159 C 267.09808,148.6783 266.2433,173.49979 266.3833,188.19176 C 266.5749,208.29959 272.07155,212.43571 282.0542,212.50505 C 283.90896,212.51762 284.34453,204.69965 283.28704,203.11422 C 282.28066,201.60543 271.44595,209.45315 272.27541,182.23313 C 272.54531,173.37618 274.09466,141.94123 272.38271,141.58337 C 270.70978,141.23367 270.15969,143.15995 268.42779,146.28159 z"
       id="path6158"
       sodipodi:nodetypes="csszsss" />
  </g>
</svg>
