<?xml version="1.0" encoding="UTF-8" standalone="no"?>
<!-- Created with Inkscape (http://www.inkscape.org/) -->
<svg
   xmlns:dc="http://purl.org/dc/elements/1.1/"
   xmlns:cc="http://creativecommons.org/ns#"
   xmlns:rdf="http://www.w3.org/1999/02/22-rdf-syntax-ns#"
   xmlns:svg="http://www.w3.org/2000/svg"
   xmlns="http://www.w3.org/2000/svg"
   xmlns:sodipodi="http://sodipodi.sourceforge.net/DTD/sodipodi-0.dtd"
   xmlns:inkscape="http://www.inkscape.org/namespaces/inkscape"
   width="308"
   height="122"
   id="svg5517"
   sodipodi:version="0.32"
   inkscape:version="0.45+devel"
   sodipodi:docname="type_b.svg"
   inkscape:output_extension="org.inkscape.output.svg.inkscape"
   version="1.0">
  <defs
     id="defs5519">
    <inkscape:perspective
       sodipodi:type="inkscape:persp3d"
       inkscape:vp_x="0 : 61 : 1"
       inkscape:vp_y="0 : 1000 : 0"
       inkscape:vp_z="308 : 61 : 1"
       inkscape:persp3d-origin="154 : 40.666667 : 1"
       id="perspective35" />
    <inkscape:perspective
       sodipodi:type="inkscape:persp3d"
       inkscape:vp_x="0 : 61 : 1"
       inkscape:vp_y="0 : 1000 : 0"
       inkscape:vp_z="308 : 61 : 1"
       inkscape:persp3d-origin="154 : 40.666667 : 1"
       id="perspective34" />
    <inkscape:perspective
       sodipodi:type="inkscape:persp3d"
       inkscape:vp_x="0 : 61 : 1"
       inkscape:vp_y="0 : 1000 : 0"
       inkscape:vp_z="308 : 61 : 1"
       inkscape:persp3d-origin="154 : 40.666667 : 1"
       id="perspective25" />
    <inkscape:perspective
       sodipodi:type="inkscape:persp3d"
       inkscape:vp_x="0 : 136 : 1"
       inkscape:vp_y="0 : 1000 : 0"
       inkscape:vp_z="420 : 136 : 1"
       inkscape:persp3d-origin="210 : 90.666667 : 1"
       id="perspective24" />
    <inkscape:perspective
       sodipodi:type="inkscape:persp3d"
       inkscape:vp_x="0 : 526.18109 : 1"
       inkscape:vp_y="0 : 1000 : 0"
       inkscape:vp_z="744.09448 : 526.18109 : 1"
       inkscape:persp3d-origin="372.04724 : 350.78739 : 1"
       id="perspective5525" />
    <inkscape:perspective
       id="perspective5591"
       inkscape:persp3d-origin="372.04724 : 350.78739 : 1"
       inkscape:vp_z="744.09448 : 526.18109 : 1"
       inkscape:vp_y="0 : 1000 : 0"
       inkscape:vp_x="0 : 526.18109 : 1"
       sodipodi:type="inkscape:persp3d" />
    <clipPath
       clipPathUnits="userSpaceOnUse"
       id="clipPath5599">
      <rect
         style="opacity:0.32242988;fill:#c41212;fill-opacity:1;stroke:none;stroke-width:1;stroke-linecap:square;stroke-linejoin:miter;stroke-miterlimit:4;stroke-dasharray:none;stroke-opacity:0.66183573"
         id="rect5601"
         width="351.42856"
         height="122.85714"
         x="18.571428"
         y="483.79074" />
    </clipPath>
  </defs>
  <sodipodi:namedview
     id="base"
     pagecolor="#ffffff"
     bordercolor="#666666"
     borderopacity="1.0"
     gridtolerance="10000"
     guidetolerance="10"
     objecttolerance="10"
     inkscape:pageopacity="0.0"
     inkscape:pageshadow="2"
     inkscape:zoom="1"
     inkscape:cx="148.9799"
     inkscape:cy="83.119743"
     inkscape:document-units="px"
     inkscape:current-layer="layer1"
     showgrid="false"
     showguides="false"
     inkscape:guide-bbox="true"
     inkscape:window-width="1270"
     inkscape:window-height="826"
     inkscape:window-x="5"
     inkscape:window-y="49"
     showborder="false"
     borderlayer="false"
     inkscape:snap-global="false"
     inkscape:snap-intersection-grid-guide="false">
    <sodipodi:guide
       orientation="1,0"
       position="82.375,113.5"
       id="guide6160" />
    <sodipodi:guide
       orientation="0,1"
       position="294.86353,66.468037"
       id="guide6162" />
    <sodipodi:guide
       orientation="0,1"
       position="297.3384,28.284271"
       id="guide6164" />
    <sodipodi:guide
       orientation="0,1"
       position="240.5,97"
       id="guide6166" />
    <inkscape:grid
       type="xygrid"
       id="grid6168"
       empspacing="5"
       visible="true"
       enabled="true" />
    <sodipodi:guide
       orientation="0,1"
       position="160.51324,33.764349"
       id="guide3189" />
    <sodipodi:guide
       orientation="0,1"
       position="202.05576,26.162951"
       id="guide3191" />
  </sodipodi:namedview>
  <metadata
     id="metadata5522">
    <rdf:RDF>
      <cc:Work
         rdf:about="">
        <dc:format>image/svg+xml</dc:format>
        <dc:type
           rdf:resource="http://purl.org/dc/dcmitype/StillImage" />
      </cc:Work>
    </rdf:RDF>
  </metadata>
  <g
     inkscape:label="Layer 1"
     inkscape:groupmode="layer"
     id="layer1"
     transform="translate(5,-117.36218)">
    <path
       style="fill:#000000;fill-opacity:1;fill-rule:evenodd;stroke:none;stroke-width:1px;stroke-linecap:butt;stroke-linejoin:miter;stroke-opacity:1"
       d="M 49.1875,139.22186 C 10.363131,139.60446 -1.170366,164.9166 18.336707,207.14219 C 15.107501,207.86909 12.746851,208.07496 11.461012,208.13788 C 10.506338,208.18461 11.105523,212.42237 11.883121,212.39527 C 16.73281,212.22627 24.147098,211.87172 29.390927,211.90415 C 30.145067,211.90881 30.47345,206.44117 27.68474,199.0604 C 25.235457,192.57797 21.68592,183.6539 21.824747,172.18173 C 21.963574,160.70955 23.103612,147.42561 42.867037,145.79356 C 43.83844,164.27951 42.207731,187.32879 42.465386,205.52088 C 39.207522,205.70824 36.746579,206.29138 35.600189,206.70577 C 34.682686,207.03742 35.571245,211.58849 36.336706,211.49883 C 37.547795,211.35697 43.729473,211.24846 49.1875,211.24883 C 54.645527,211.24846 60.094476,211.31523 61.299937,211.49883 C 61.888621,211.58849 62.237584,206.75395 61.360597,206.529 C 60.260481,206.24681 57.576486,205.70824 54.318624,205.52088 C 54.725693,187.14047 54.051282,164.00024 55.15441,145.79356 C 74.91783,147.42561 74.082077,161.41666 74.220907,172.88883 C 74.359737,184.36101 71.812597,192.55626 69.421573,199.0604 C 67.163193,205.20374 66.985888,211.90415 67.923413,211.90415 C 72.63715,211.90415 80.676695,211.91953 85.406247,212.06316 C 86.33214,212.09128 86.782935,208.36432 85.997934,208.204 C 85.092607,208.0191 81.192307,207.64987 78.800857,207.31897 C 96.257297,165.00145 86.05588,139.42539 49.1875,139.22186 z"
       id="path5605"
       sodipodi:nodetypes="ccsssszccssssscczssszcc" />
    <path
       style="fill:#000000;fill-opacity:1;fill-rule:evenodd;stroke:none;stroke-width:1px;stroke-linecap:butt;stroke-linejoin:miter;stroke-opacity:1"
       d="M 126.01257,173.43839 C 122.14631,184.08403 128.55402,206.57787 115.65625,206.58481 C 110.75086,206.58481 107.64908,200.41018 108.83216,192.69998 C 109.77882,186.5306 111.28711,179.52491 111.36856,173.68152 C 111.38923,172.19824 96.600188,173.05841 95.591911,173.2147 C 93.656346,173.51473 94.271124,177.67062 95.445464,178.06245 C 96.756439,178.49986 98.042961,178.31138 99.498161,178.65221 C 94.383611,197.09188 97.71263,213.1928 114.53125,212.96567 C 121.41081,212.81926 127.83328,211.2457 130.92678,207.2137 C 132.47872,209.48139 135.25963,212.27429 138.49112,213.49882 L 145.09375,206.24882 C 147.04352,204.10788 140.112,205.20661 137.85355,192.83597 C 136.91371,187.68799 137.10489,184.72755 137.63665,173.18057 C 134.96747,172.97377 128.08942,173.16401 126.01257,173.43839 z"
       id="path6136"
       sodipodi:nodetypes="ccsssscccssscc" />
    <path
       style="fill:#000000;fill-opacity:1;fill-rule:evenodd;stroke:none;stroke-width:1px;stroke-linecap:butt;stroke-linejoin:miter;stroke-opacity:1"
       d="M 187.63338,146.6054 C 186.978,145.97699 176.5007,141.54866 176.14645,142.40346 C 175.12865,155.72177 175.28377,164.41967 175.7929,173.36427 C 175.79291,174.78509 156.90642,168.50502 150.51012,178.27237 C 148.44234,181.42994 147.91742,188.91446 148.5573,195.00368 C 149.19551,201.07705 154.82408,210.22416 160.06432,212.52789 C 165.86763,215.07917 176.95714,214.78941 179.69179,205.85263 C 181.50273,209.23337 185.17417,212.2942 188.7008,213.42242 L 194.65106,206.36152 C 195.93489,204.83806 189.41721,203.18135 188.00838,189.55907 C 186.52974,175.26179 185.66199,164.53399 187.63338,146.6054 z M 176.14645,179.78737 C 177.91422,212.28763 165.04625,207.41068 162.54106,202.65993 C 160.03587,197.90918 158.12631,185.83094 161.2117,182.85356 C 165.60918,178.61004 171.07885,178.46219 176.14645,179.78737 z"
       id="path6138"
       sodipodi:nodetypes="cccszscssscczsc" />
    <path
       style="fill:#000000;fill-opacity:1;fill-rule:evenodd;stroke:none;stroke-width:1px;stroke-linecap:butt;stroke-linejoin:miter;stroke-opacity:1"
       d="M 248.59977,171.32964 C 244.39457,170.95225 231.52519,171.16828 226.32394,174.89019 C 220.67849,178.92996 219.62699,195.37402 222.61804,201.40691 C 225.75028,207.72456 233.18247,213.79918 237.63824,213.90426 C 241.9233,214.00532 254.05829,214.35639 259.16635,206.29017 L 256.78891,197.83618 C 253.3209,203.71968 245.42702,206.27056 241.47889,206.25552 C 237.81253,206.2409 235.40707,199.59365 234.99417,196.09731 C 240.50647,194.12082 252.96106,190.25203 257.05788,188.18025 C 261.1546,186.10853 255.4793,173.23137 248.59977,171.32964 z M 241.89997,177.52365 C 243.61676,177.98929 247.20782,186.46641 245.69083,186.94539 C 241.2686,188.34166 237.16883,189.98337 234.02532,190.58346 C 232.82089,190.81338 233.39932,179.15081 235.83079,178.38113 C 237.41499,177.87966 240.42062,177.12242 241.89997,177.52365 z"
       id="path6145"
       sodipodi:nodetypes="csssscscsccssss" />
    <path
       style="fill:#000000;fill-opacity:1;fill-rule:evenodd;stroke:none;stroke-width:1px;stroke-linecap:butt;stroke-linejoin:miter;stroke-opacity:1"
       d="M 255.83019,166.98307 C 254.46896,166.94028 254.28907,162.2003 255.68529,161.82618 C 258.6138,161.04149 280.12355,161.25785 282.98522,161.63158 C 284.14541,161.7831 283.90029,166.77518 282.95802,166.78847 C 278.35741,166.85334 265.25266,167.27923 255.83019,166.98307 z"
       id="path6152"
       sodipodi:nodetypes="cssss" />
    <path
       style="fill:#000000;fill-opacity:1;fill-rule:evenodd;stroke:none;stroke-width:1px;stroke-linecap:butt;stroke-linejoin:miter;stroke-opacity:1"
       d="M 57.1875,19.22186 C 18.363131,19.60446 8.774178,39.08297 28.28125,81.30856 C 20.104058,83.51846 19.655733,90.19694 21.5625,93.45593 C 21.898377,94.03 23.888781,92.81276 26.074143,92.56041 C 29.463027,92.16907 33.910445,91.98107 34.5625,92.08093 C 36.022311,92.3045 36.88246,86.61795 34.09375,79.23718 C 31.644467,72.75475 24.758983,62.65277 24.875,53.06561 C 25.036637,39.70842 32.517825,32.72891 52.28125,31.09686 C 54.928278,49.30354 55.403505,60.95328 54.53125,79.33369 C 51.273386,79.52105 48.92353,79.70097 47.3125,82.02119 C 45.701466,84.3414 45.515789,91.5001 46.81158,91.32205 C 48.019598,91.15606 51.729473,91.07168 57.1875,91.07205 C 62.645527,91.07168 66.854488,91.15606 68.0625,91.32205 C 69.358291,91.5001 68.673533,84.3414 67.0625,82.02119 C 65.45147,79.70097 63.101612,79.52105 59.84375,79.33369 C 58.971495,60.95328 59.446728,49.30354 62.09375,31.09686 C 81.85717,32.72891 89.30711,39.70842 89.46875,53.06561 C 89.58477,62.65277 82.64102,72.73304 80.25,79.23718 C 77.99162,85.38052 78.35269,92.3045 79.8125,92.08093 C 80.46456,91.98107 84.23458,92.14253 87.59375,92.73718 C 91.01655,93.34309 92.41419,94.01058 92.78125,93.45593 C 94.93802,90.19694 97.77094,83.38458 86.09375,80.42468 C 105.7776,38.55264 94.06733,19.42768 57.1875,19.22186 z"
       id="path3194"
       sodipodi:nodetypes="ccsssssccsssssccssssscc" />
    <path
       style="fill:#000000;fill-opacity:1;fill-rule:evenodd;stroke:none;stroke-width:1px;stroke-linecap:butt;stroke-linejoin:miter;stroke-opacity:1"
       d="M 104.04572,52.86522 C 101.69072,54.55844 101.04929,57.61275 100.78797,60.56764 C 100.66989,61.90277 102.99458,62.63624 104.44978,62.96675 C 95.773977,98.94275 124.62613,102.63476 134.12554,77.49023 C 134.72055,91.51535 137.57166,93.17702 141.83678,93.27228 C 148.95406,93.43404 149.1504,87.77604 147.65524,84.14708 C 146.89009,82.28995 141.65648,84.43378 140.84433,79.62551 C 140.01165,74.69566 139.47521,68.49005 140.25856,59.57742 C 140.35378,58.49406 141.65855,53.38876 140.33799,52.33743 C 139.17304,51.41 132.82319,54.14404 133.37428,57.03718 C 137.57296,79.07966 100.60723,97.39221 108.97498,61.87486 C 109.44279,59.88923 111.54828,56.59662 110.76324,54.83502 C 109.77339,52.61381 105.21781,52.0225 104.04572,52.86522 z"
       id="path3196"
       sodipodi:nodetypes="csccsszssssss" />
    <path
       style="fill:#000000;fill-opacity:1;fill-rule:evenodd;stroke:none;stroke-width:1px;stroke-linecap:butt;stroke-linejoin:miter;stroke-opacity:1"
       d="M 186.77313,22.42342 C 186.11775,21.79501 183.40333,21.54866 183.04908,22.40346 C 182.3622,24.06091 182.25846,28.54413 181.74908,32.88328 C 181.11611,38.27518 180.46963,43.67446 180.46967,49.73775 C 180.46968,51.15857 163.74215,51.15009 158.31342,55.7065 C 154.7783,58.67357 153.76512,72.33303 153.70895,77.125 C 153.63066,83.80436 157.32408,90.22416 162.56432,92.52789 C 168.36763,95.07917 173.37351,94.74652 181.89369,80.54933 C 182.2593,91.26255 185.51366,92.26712 189.15791,92.42242 C 196.99415,92.75637 196.95063,86.77933 195.81527,83.59375 C 195.06382,81.48534 188.95962,83.3077 187.73693,77.75146 C 186.46527,71.97268 186.45512,62.61042 186.70711,50.63328 C 186.89677,41.61864 187.84786,23.45392 186.77313,22.42342 z M 179.89645,61.56986 C 180.68401,83.65181 164.18865,85.63104 159.57139,78.1348 C 158.04747,75.66068 158.29572,67.67408 160.14368,66.46447 C 165.25678,63.11761 173.23786,62.28021 179.89645,61.56986 z"
       id="path3198"
       sodipodi:nodetypes="csssssscssssscssc" />
    <path
       style="fill:#000000;fill-opacity:1;fill-rule:evenodd;stroke:none;stroke-width:1px;stroke-linecap:butt;stroke-linejoin:miter;stroke-opacity:1"
       d="M 203.32425,22.2571 C 202.29031,23.63731 201.2938,60.25464 201.47799,74.82349 C 201.54441,80.25372 203.94365,87.44568 207.75347,90.55291 C 210.14277,92.50159 213.78622,93.57471 215.9417,91.82783 C 217.20571,90.80343 218.45671,87.33763 218.27818,84.15344 C 218.15645,81.98225 208.8977,81.75945 208.17187,74.41816 C 206.23118,54.78937 208.58084,24.13054 207.11495,22.49758 C 206.24273,21.52595 203.96695,21.39915 203.32425,22.2571 z"
       id="path3200"
       sodipodi:nodetypes="csssssss" />
    <path
       style="fill:#000000;fill-opacity:1;fill-rule:evenodd;stroke:none;stroke-width:1px;stroke-linecap:butt;stroke-linejoin:miter;stroke-opacity:1"
       d="M 246.13225,51.32797 C 242.62297,50.95534 231.50939,50.60496 227.54287,54.84366 C 223.81014,58.83253 222.15143,75.3194 223.40712,81.27627 C 224.83373,88.04397 232.0783,92.72219 235.79409,92.91796 C 241.13883,93.19956 251.75935,88.79445 254.74153,84.02706 C 255.78143,82.36465 254.2537,78.70241 252.79333,77.95774 C 250.80309,76.94287 246.96343,79.30843 244.77697,80.54849 C 239.13384,83.74902 233.48913,85.24013 231.34025,80.46861 C 231.06168,79.85004 231.24895,78.36827 233.07344,77.59423 C 237.67351,75.64265 249.77179,70.01194 253.19062,67.96627 C 256.60937,65.92065 251.87328,53.20574 246.13225,51.32797 z M 242.75403,60.79602 C 244.18671,61.25579 245.41322,62.73181 244.14728,63.20475 C 240.45689,64.58343 231.82426,67.28213 230.64653,67.00191 C 229.64292,66.76312 230.41917,63.12012 232.44825,62.36014 C 233.77028,61.86498 241.5195,60.39984 242.75403,60.79602 z"
       id="path3202"
       sodipodi:nodetypes="csssssssssccssss" />
    <path
       style="fill:#000000;fill-opacity:1;fill-rule:evenodd;stroke:none;stroke-width:1px;stroke-linecap:butt;stroke-linejoin:miter;stroke-opacity:1"
       d="M 252.66074,36.29137 C 249.23653,36.23988 249.15477,44.3965 251.42329,45.66054 C 254.01854,47.10663 273.15499,47.26138 275.64171,46.01409 C 278.00163,44.8304 278.4495,36.67916 276.17203,36.64492 L 252.66074,36.29137 z"
       id="path3204"
       sodipodi:nodetypes="cssss" />
    <path
       style="fill:#000000;fill-opacity:1;fill-rule:evenodd;stroke:none;stroke-width:1px;stroke-linecap:butt;stroke-linejoin:miter;stroke-opacity:1"
       d="M 262.82425,22.2571 C 261.79031,23.63731 260.7938,60.25464 260.97799,74.82349 C 261.04441,80.25372 263.44365,87.97601 267.25347,91.08324 C 269.64277,93.03192 273.28622,94.10504 275.4417,92.35816 C 276.70571,91.33376 277.95671,87.86796 277.77818,84.68377 C 277.65645,82.51258 268.3977,81.75945 267.67187,74.41816 C 265.73118,54.78937 268.08084,24.13054 266.61495,22.49758 C 265.74273,21.52595 263.46695,21.39915 262.82425,22.2571 z"
       id="path3206"
       sodipodi:nodetypes="csssssss" />
    <rect
       style="opacity:1;fill:#dca27e;fill-opacity:0.78666669;stroke:none;stroke-width:0.461;stroke-linecap:round;stroke-linejoin:round;stroke-miterlimit:4;stroke-dasharray:none;stroke-opacity:1"
       id="rect3208"
       width="11.667262"
       height="26.516504"
       x="46.769554"
       y="244.09352"
       rx="1.3337809"
       ry="1.3337809" />
    <rect
       style="opacity:1;fill:#dca27e;fill-opacity:0.78666669;stroke:none;stroke-width:0.461;stroke-linecap:round;stroke-linejoin:round;stroke-miterlimit:4;stroke-dasharray:none;stroke-opacity:1"
       id="rect3210"
       width="11.667259"
       height="26.5165"
       x="-13.715114"
       y="258.50912"
       rx="1.3337809"
       ry="1.3337809"
       transform="matrix(-0.9548889,0.2969634,0.2969634,0.9548889,0,0)" />
    <path
       style="fill:#000000;fill-opacity:1;fill-rule:evenodd;stroke:none;stroke-width:1px;stroke-linecap:butt;stroke-linejoin:miter;stroke-opacity:1"
       d="M 200.26713,142.29968 C 200.17077,142.31405 200.28927,142.34 200.26713,142.39343 C 199.14165,161.10784 199.02453,170.03655 199.02969,182.23778 C 199.03431,193.15588 200.9347,202.39779 203.4341,206.56928 C 205.97898,210.81668 210.13983,212.19705 212.98496,213.25771 L 218.93594,205.46481 C 216.52937,204.20125 211.44819,202.16457 210.852,189.54968 C 210.20924,175.9495 210.41047,161.58739 211.73588,146.61218 C 211.12146,146.02305 201.71249,142.08416 200.26713,142.29968 z"
       id="path3182"
       sodipodi:nodetypes="ccszccscc" />
    <path
       style="fill:#000000;fill-opacity:1;fill-rule:evenodd;stroke:none;stroke-width:1px;stroke-linecap:butt;stroke-linejoin:miter;stroke-opacity:1"
       d="M 265.44908,142.29968 C 265.35272,142.31405 265.47122,142.34 265.44908,142.39343 C 264.3236,161.10784 264.20648,170.03655 264.21164,182.23778 C 264.21626,193.15588 266.11665,202.39779 268.61605,206.56928 C 271.16093,210.81668 275.32178,212.19705 278.16691,213.25771 L 284.11789,205.46481 C 281.71132,204.20125 276.63014,202.16457 276.03395,189.54968 C 275.39119,175.9495 275.59242,161.58739 276.91783,146.61218 C 276.30341,146.02305 266.89444,142.08416 265.44908,142.29968 z"
       id="path3195"
       sodipodi:nodetypes="ccszccscc" />
  </g>
</svg>
