<?xml version="1.0" encoding="UTF-8" standalone="no"?>
<!-- Created with Inkscape (http://www.inkscape.org/) -->
<svg
   xmlns:dc="http://purl.org/dc/elements/1.1/"
   xmlns:cc="http://creativecommons.org/ns#"
   xmlns:rdf="http://www.w3.org/1999/02/22-rdf-syntax-ns#"
   xmlns:svg="http://www.w3.org/2000/svg"
   xmlns="http://www.w3.org/2000/svg"
   xmlns:sodipodi="http://sodipodi.sourceforge.net/DTD/sodipodi-0.dtd"
   xmlns:inkscape="http://www.inkscape.org/namespaces/inkscape"
   width="308"
   height="122"
   id="svg5517"
   sodipodi:version="0.32"
   inkscape:version="0.45+devel"
   sodipodi:docname="type_b.svg"
   inkscape:output_extension="org.inkscape.output.svg.inkscape"
   version="1.0">
  <defs
     id="defs5519">
    <inkscape:perspective
       sodipodi:type="inkscape:persp3d"
       inkscape:vp_x="0 : 61 : 1"
       inkscape:vp_y="0 : 1000 : 0"
       inkscape:vp_z="308 : 61 : 1"
       inkscape:persp3d-origin="154 : 40.666667 : 1"
       id="perspective2419" />
    <inkscape:perspective
       sodipodi:type="inkscape:persp3d"
       inkscape:vp_x="0 : 61 : 1"
       inkscape:vp_y="0 : 1000 : 0"
       inkscape:vp_z="308 : 61 : 1"
       inkscape:persp3d-origin="154 : 40.666667 : 1"
       id="perspective35" />
    <inkscape:perspective
       sodipodi:type="inkscape:persp3d"
       inkscape:vp_x="0 : 61 : 1"
       inkscape:vp_y="0 : 1000 : 0"
       inkscape:vp_z="308 : 61 : 1"
       inkscape:persp3d-origin="154 : 40.666667 : 1"
       id="perspective34" />
    <inkscape:perspective
       sodipodi:type="inkscape:persp3d"
       inkscape:vp_x="0 : 61 : 1"
       inkscape:vp_y="0 : 1000 : 0"
       inkscape:vp_z="308 : 61 : 1"
       inkscape:persp3d-origin="154 : 40.666667 : 1"
       id="perspective25" />
    <inkscape:perspective
       sodipodi:type="inkscape:persp3d"
       inkscape:vp_x="0 : 136 : 1"
       inkscape:vp_y="0 : 1000 : 0"
       inkscape:vp_z="420 : 136 : 1"
       inkscape:persp3d-origin="210 : 90.666667 : 1"
       id="perspective24" />
    <inkscape:perspective
       sodipodi:type="inkscape:persp3d"
       inkscape:vp_x="0 : 526.18109 : 1"
       inkscape:vp_y="0 : 1000 : 0"
       inkscape:vp_z="744.09448 : 526.18109 : 1"
       inkscape:persp3d-origin="372.04724 : 350.78739 : 1"
       id="perspective5525" />
    <inkscape:perspective
       id="perspective5591"
       inkscape:persp3d-origin="372.04724 : 350.78739 : 1"
       inkscape:vp_z="744.09448 : 526.18109 : 1"
       inkscape:vp_y="0 : 1000 : 0"
       inkscape:vp_x="0 : 526.18109 : 1"
       sodipodi:type="inkscape:persp3d" />
    <clipPath
       clipPathUnits="userSpaceOnUse"
       id="clipPath5599">
      <rect
         style="opacity:0.32242988;fill:#c41212;fill-opacity:1;stroke:none;stroke-width:1;stroke-linecap:square;stroke-linejoin:miter;stroke-miterlimit:4;stroke-dasharray:none;stroke-opacity:0.66183573"
         id="rect5601"
         width="351.42856"
         height="122.85714"
         x="18.571428"
         y="483.79074" />
    </clipPath>
  </defs>
  <sodipodi:namedview
     id="base"
     pagecolor="#ffffff"
     bordercolor="#666666"
     borderopacity="1.0"
     gridtolerance="10000"
     guidetolerance="10"
     objecttolerance="10"
     inkscape:pageopacity="0.0"
     inkscape:pageshadow="2"
     inkscape:zoom="2"
     inkscape:cx="162.24659"
     inkscape:cy="65.047259"
     inkscape:document-units="px"
     inkscape:current-layer="layer1"
     showgrid="false"
     showguides="false"
     inkscape:guide-bbox="true"
     inkscape:window-width="1270"
     inkscape:window-height="826"
     inkscape:window-x="5"
     inkscape:window-y="49"
     showborder="false"
     borderlayer="false"
     inkscape:snap-global="false"
     inkscape:snap-intersection-grid-guide="false">
    <sodipodi:guide
       orientation="1,0"
       position="82.375,113.5"
       id="guide6160" />
    <sodipodi:guide
       orientation="0,1"
       position="294.86353,66.468037"
       id="guide6162" />
    <sodipodi:guide
       orientation="0,1"
       position="240.5,97"
       id="guide6166" />
    <inkscape:grid
       type="xygrid"
       id="grid6168"
       empspacing="5"
       visible="true"
       enabled="true" />
    <sodipodi:guide
       orientation="0,1"
       position="207.53584,26.516504"
       id="guide3191" />
  </sodipodi:namedview>
  <metadata
     id="metadata5522">
    <rdf:RDF>
      <cc:Work
         rdf:about="">
        <dc:format>image/svg+xml</dc:format>
        <dc:type
           rdf:resource="http://purl.org/dc/dcmitype/StillImage" />
      </cc:Work>
    </rdf:RDF>
  </metadata>
  <g
     inkscape:label="Layer 1"
     inkscape:groupmode="layer"
     id="layer1"
     transform="translate(5,-117.36218)">
    <path
       style="fill:#000000;fill-opacity:1;fill-rule:evenodd;stroke:none;stroke-width:1px;stroke-linecap:butt;stroke-linejoin:miter;stroke-opacity:1"
       d="M 49.1875,139.72186 C 10.363131,140.10446 -1.170366,165.4166 18.336707,207.64219 C 15.107501,208.36909 12.746851,208.57496 11.461012,208.63788 C 10.506338,208.68461 11.105523,212.92237 11.883121,212.89527 C 16.73281,212.72627 24.147098,212.37172 29.390927,212.40415 C 30.145067,212.40881 30.47345,206.94117 27.68474,199.5604 C 25.235457,193.07797 21.68592,184.1539 21.824747,172.68173 C 21.963574,161.20955 23.103612,147.92561 42.867037,146.29356 C 43.83844,164.77951 42.207731,187.82879 42.465386,206.02088 C 39.207522,206.20824 36.746579,206.79138 35.600189,207.20577 C 34.682686,207.53742 35.571245,212.08849 36.336706,211.99883 C 37.547795,211.85697 43.729473,211.74846 49.1875,211.74883 C 54.645527,211.74846 60.094476,211.81523 61.299937,211.99883 C 61.888621,212.08849 62.237584,207.25395 61.360597,207.029 C 60.260481,206.74681 57.576486,206.20824 54.318624,206.02088 C 54.725693,187.64047 54.051282,164.50024 55.15441,146.29356 C 74.91783,147.92561 74.082077,161.91666 74.220907,173.38883 C 74.359737,184.86101 71.812597,193.05626 69.421573,199.5604 C 67.163193,205.70374 66.985888,212.40415 67.923413,212.40415 C 72.63715,212.40415 80.676695,212.41953 85.406247,212.56316 C 86.33214,212.59128 86.782935,208.86432 85.997934,208.704 C 85.092607,208.5191 81.192307,208.14987 78.800857,207.81897 C 96.257297,165.50145 86.05588,139.92539 49.1875,139.72186 z"
       id="path5605"
       sodipodi:nodetypes="ccsssszccssssscczssszcc"
       inkscape:export-filename="/media/sdb8/software_artwork/mudlet/type.png"
       inkscape:export-xdpi="90"
       inkscape:export-ydpi="90" />
    <path
       style="fill:#000000;fill-opacity:1;fill-rule:evenodd;stroke:none;stroke-width:1px;stroke-linecap:butt;stroke-linejoin:miter;stroke-opacity:1"
       d="M 126.01257,173.43839 C 122.14631,184.08403 128.55402,206.57787 115.65625,206.58481 C 111.11315,206.58481 108.45997,200.41018 108.65538,192.69998 C 108.81353,186.4604 111.11033,179.52491 111.19178,173.68152 C 111.21245,172.19824 96.600188,173.05841 95.591911,173.2147 C 93.656346,173.51473 94.271124,177.67062 95.445464,178.06245 C 96.756439,178.49986 98.042961,178.31138 99.498161,178.65221 C 94.383611,197.09188 97.71263,213.1928 114.53125,212.96567 C 121.41081,212.81926 126.9494,211.06892 130.0429,207.03692 C 132.22782,209.07837 134.15757,210.86687 136.29657,212.15783 C 138.81835,210.42348 141.73353,207.47582 143.60631,204.90783 C 145.31256,202.5682 139.40489,205.20661 137.14644,192.83597 C 136.2066,187.68799 136.39778,184.72755 136.92954,173.18057 C 134.26036,172.97377 128.08942,173.16401 126.01257,173.43839 z"
       id="path6136"
       sodipodi:nodetypes="ccssssccccsscc"
       inkscape:export-filename="/media/sdb8/software_artwork/mudlet/type.png"
       inkscape:export-xdpi="90"
       inkscape:export-ydpi="90" />
    <path
       style="fill:#000000;fill-opacity:1;fill-rule:evenodd;stroke:none;stroke-width:1px;stroke-linecap:butt;stroke-linejoin:miter;stroke-opacity:1"
       d="M 187.4566,145.72152 C 186.80122,145.09311 176.5007,141.54866 176.14645,142.40346 C 175.12865,155.72177 175.28377,165.65711 175.7929,174.60171 C 172.78771,171.24956 156.30716,169.57755 150.86367,179.86336 C 143.62049,193.54983 150.56119,212.70467 165.89795,212.70467 C 174.03906,212.70467 179.6088,210.36999 181.45956,206.20618 C 184.33116,207.99593 185.27795,210.52213 187.64014,211.65466 C 190.51766,209.95781 193.40976,207.07691 195.88849,203.70987 C 193.59425,202.46416 189.06758,197.51467 187.8316,188.67519 C 185.84118,174.44013 185.48521,163.65011 187.4566,145.72152 z M 176.14645,182.08547 C 178.091,210.16631 170.37665,206.7258 166.25337,206.7258 C 158.59925,206.7258 157.70401,188.85736 161.03492,184.091 C 164.42281,179.24311 171.4324,177.57831 176.14645,182.08547 z"
       id="path6138"
       sodipodi:nodetypes="cccsscccsccczc"
       inkscape:export-filename="/media/sdb8/software_artwork/mudlet/type.png"
       inkscape:export-xdpi="90"
       inkscape:export-ydpi="90" />
    <path
       style="fill:#000000;fill-opacity:1;fill-rule:evenodd;stroke:none;stroke-width:1px;stroke-linecap:butt;stroke-linejoin:miter;stroke-opacity:1"
       d="M 239.40542,172.41532 C 223.66296,172.41532 221.65823,188.14623 222.08771,194.86617 C 222.79731,205.96924 230.67579,213.0599 241.35054,212.8436 C 245.63594,212.75818 255.45312,209.98002 259.16635,206.29017 C 258.54907,203.21797 258.15735,199.47832 256.78891,196.77552 C 252.26024,201.06803 245.7806,205.54842 241.83244,205.54842 C 237.8125,205.54842 235.05352,201.53819 234.28706,196.09731 C 239.79936,194.12082 254.72883,190.25203 258.82565,188.18025 C 256.13466,172.59166 248.63196,172.41532 239.40542,172.41532 z M 239.77865,177.52365 C 246.03798,176.40005 245.70408,181.78488 246.22116,186.76861 C 244.33668,187.6521 236.81528,189.98337 233.67177,190.58346 C 233.26486,183.572 233.11587,178.71967 239.77865,177.52365 z"
       id="path6145"
       sodipodi:nodetypes="cssccsccscccs"
       inkscape:export-filename="/media/sdb8/software_artwork/mudlet/type.png"
       inkscape:export-xdpi="90"
       inkscape:export-ydpi="90" />
    <path
       style="fill:#000000;fill-opacity:1;fill-rule:evenodd;stroke:none;stroke-width:1px;stroke-linecap:butt;stroke-linejoin:miter;stroke-opacity:1"
       d="M 256.36052,166.45274 C 254.99929,166.40995 254.8194,161.66997 256.21562,161.29585 C 259.14413,160.51116 280.65388,160.72752 283.51555,161.10125 C 284.67574,161.25277 284.43062,166.24485 283.48835,166.25814 C 278.88774,166.32301 265.78299,166.7489 256.36052,166.45274 z"
       id="path6152"
       sodipodi:nodetypes="cssss"
       inkscape:export-filename="/media/sdb8/software_artwork/mudlet/type.png"
       inkscape:export-xdpi="90"
       inkscape:export-ydpi="90" />
    <path
       style="fill:#000000;fill-opacity:1;fill-rule:evenodd;stroke:none;stroke-width:1px;stroke-linecap:butt;stroke-linejoin:miter;stroke-opacity:1"
       d="M 200.26713,142.29968 C 200.17077,142.31405 200.28927,142.34 200.26713,142.39343 C 199.14165,161.10784 199.02453,168.79911 199.02969,181.00034 C 199.03431,191.91844 200.9347,201.16035 203.4341,205.33184 C 205.97898,209.57924 208.01851,211.31316 210.86364,212.37382 C 212.95707,210.23142 216.07637,207.48912 217.6985,204.40414 C 215.29193,203.14058 211.09464,200.92713 210.49845,188.31224 C 209.85569,174.71206 210.05692,161.58739 211.38233,146.61218 C 210.76791,146.02305 201.71249,142.08416 200.26713,142.29968 z"
       id="path3182"
       sodipodi:nodetypes="ccszccscc"
       inkscape:export-filename="/media/sdb8/software_artwork/mudlet/type.png"
       inkscape:export-xdpi="90"
       inkscape:export-ydpi="90" />
    <path
       style="fill:#000000;fill-opacity:1;fill-rule:evenodd;stroke:none;stroke-width:1px;stroke-linecap:butt;stroke-linejoin:miter;stroke-opacity:1"
       d="M 266.09035,142.29968 C 265.99399,142.31405 266.11249,142.34 266.09035,142.39343 C 264.96487,161.10784 264.84775,168.79911 264.85291,181.00034 C 264.85753,191.91844 266.75792,201.16035 269.25732,205.33184 C 271.8022,209.57924 273.84173,211.13639 276.68686,212.19705 C 278.78029,210.05465 281.89959,207.31235 283.52172,204.22737 C 281.11515,202.96381 276.91786,200.92713 276.32167,188.31224 C 275.67891,174.71206 275.88014,161.58739 277.20555,146.61218 C 276.59113,146.02305 267.53571,142.08416 266.09035,142.29968 z"
       id="path2421"
       sodipodi:nodetypes="ccszccscc"
       inkscape:export-filename="/media/sdb8/software_artwork/mudlet/type.png"
       inkscape:export-xdpi="90"
       inkscape:export-ydpi="90" />
  </g>
</svg>
