<?xml version="1.0" encoding="UTF-8" standalone="no"?>
<!-- Created with Inkscape (http://www.inkscape.org/) -->
<svg
   xmlns:dc="http://purl.org/dc/elements/1.1/"
   xmlns:cc="http://creativecommons.org/ns#"
   xmlns:rdf="http://www.w3.org/1999/02/22-rdf-syntax-ns#"
   xmlns:svg="http://www.w3.org/2000/svg"
   xmlns="http://www.w3.org/2000/svg"
   xmlns:sodipodi="http://sodipodi.sourceforge.net/DTD/sodipodi-0.dtd"
   xmlns:inkscape="http://www.inkscape.org/namespaces/inkscape"
   width="308"
   height="122"
   id="svg5517"
   sodipodi:version="0.32"
   inkscape:version="0.45+devel"
   sodipodi:docname="type_b.svg"
   inkscape:output_extension="org.inkscape.output.svg.inkscape"
   version="1.0">
  <defs
     id="defs5519">
    <inkscape:perspective
       sodipodi:type="inkscape:persp3d"
       inkscape:vp_x="0 : 61 : 1"
       inkscape:vp_y="0 : 1000 : 0"
       inkscape:vp_z="308 : 61 : 1"
       inkscape:persp3d-origin="154 : 40.666667 : 1"
       id="perspective25" />
    <inkscape:perspective
       sodipodi:type="inkscape:persp3d"
       inkscape:vp_x="0 : 136 : 1"
       inkscape:vp_y="0 : 1000 : 0"
       inkscape:vp_z="420 : 136 : 1"
       inkscape:persp3d-origin="210 : 90.666667 : 1"
       id="perspective24" />
    <inkscape:perspective
       sodipodi:type="inkscape:persp3d"
       inkscape:vp_x="0 : 526.18109 : 1"
       inkscape:vp_y="0 : 1000 : 0"
       inkscape:vp_z="744.09448 : 526.18109 : 1"
       inkscape:persp3d-origin="372.04724 : 350.78739 : 1"
       id="perspective5525" />
    <inkscape:perspective
       id="perspective5591"
       inkscape:persp3d-origin="372.04724 : 350.78739 : 1"
       inkscape:vp_z="744.09448 : 526.18109 : 1"
       inkscape:vp_y="0 : 1000 : 0"
       inkscape:vp_x="0 : 526.18109 : 1"
       sodipodi:type="inkscape:persp3d" />
    <clipPath
       clipPathUnits="userSpaceOnUse"
       id="clipPath5599">
      <rect
         style="opacity:0.32242988;fill:#c41212;fill-opacity:1;stroke:none;stroke-width:1;stroke-linecap:square;stroke-linejoin:miter;stroke-miterlimit:4;stroke-dasharray:none;stroke-opacity:0.66183573"
         id="rect5601"
         width="351.42856"
         height="122.85714"
         x="18.571428"
         y="483.79074" />
    </clipPath>
  </defs>
  <sodipodi:namedview
     id="base"
     pagecolor="#ffffff"
     bordercolor="#666666"
     borderopacity="1.0"
     gridtolerance="10000"
     guidetolerance="10"
     objecttolerance="10"
     inkscape:pageopacity="0.0"
     inkscape:pageshadow="2"
     inkscape:zoom="1"
     inkscape:cx="92.024945"
     inkscape:cy="60.209928"
     inkscape:document-units="px"
     inkscape:current-layer="layer1"
     showgrid="false"
     showguides="false"
     inkscape:guide-bbox="true"
     inkscape:window-width="1270"
     inkscape:window-height="801"
     inkscape:window-x="5"
     inkscape:window-y="49"
     showborder="false"
     borderlayer="false"
     inkscape:snap-global="false">
    <sodipodi:guide
       orientation="1,0"
       position="82.375,113.5"
       id="guide6160" />
    <sodipodi:guide
       orientation="0,1"
       position="294.86353,66.468037"
       id="guide6162" />
    <sodipodi:guide
       orientation="0,1"
       position="297.3384,28.284271"
       id="guide6164" />
    <sodipodi:guide
       orientation="0,1"
       position="240.5,97"
       id="guide6166" />
    <inkscape:grid
       type="xygrid"
       id="grid6168"
       empspacing="5"
       visible="true"
       enabled="true" />
  </sodipodi:namedview>
  <metadata
     id="metadata5522">
    <rdf:RDF>
      <cc:Work
         rdf:about="">
        <dc:format>image/svg+xml</dc:format>
        <dc:type
           rdf:resource="http://purl.org/dc/dcmitype/StillImage" />
      </cc:Work>
    </rdf:RDF>
  </metadata>
  <g
     inkscape:label="Layer 1"
     inkscape:groupmode="layer"
     id="layer1"
     transform="translate(5,-117.36218)">
    <path
       style="fill:#000000;fill-opacity:1;fill-rule:evenodd;stroke:none;stroke-width:1px;stroke-linecap:butt;stroke-linejoin:miter;stroke-opacity:1"
       d="M 49.1875,139.22186 C 10.363131,139.60446 -1.170366,164.9166 18.336707,207.14219 C 10.159515,209.35209 10.418296,209.13628 12.325063,212.39527 C 17.404555,213.21763 22.909678,211.86706 28.15349,211.90415 C 29.613301,212.12772 30.47345,206.44117 27.68474,199.0604 C 25.235457,192.57797 21.355177,181.76889 21.471194,172.18173 C 21.632831,158.82454 23.103612,147.42561 42.867037,145.79356 C 43.83844,164.27951 42.207731,187.15201 42.465386,205.3441 C 39.207522,205.53146 36.415724,205.62299 35.600189,206.52899 C 33.710414,208.62841 35.83641,211.5001 37.132201,211.32205 C 38.340219,211.15606 43.729473,211.07168 49.1875,211.07205 C 54.645527,211.07168 58.854488,211.15606 60.0625,211.32205 C 61.358291,211.5001 63.828574,207.72622 61.360597,206.35222 C 60.368285,205.79977 57.576486,205.53146 54.318624,205.3441 C 54.725693,186.96369 54.051282,164.00024 55.15441,145.79356 C 74.91783,147.42561 74.94315,159.53164 75.10479,172.88883 C 75.22081,182.47599 72.16615,192.55626 69.775126,199.0604 C 67.516746,205.20374 67.87457,211.80941 69.337626,211.90415 C 74.04151,212.20876 81.25591,213.93135 85.1348,211.68816 C 88.23692,209.89419 83.93731,207.98077 79.15441,207.31897 C 96.61085,165.00145 86.05588,139.42539 49.1875,139.22186 z"
       id="path5605"
       sodipodi:nodetypes="ccccssccsssssccsssscc" />
    <path
       style="fill:#000000;fill-opacity:1;fill-rule:evenodd;stroke:none;stroke-width:1px;stroke-linecap:butt;stroke-linejoin:miter;stroke-opacity:1"
       d="M 96.04572,172.86522 C 93.69072,174.55844 93.04929,177.61275 92.78797,180.56764 C 92.66989,181.90277 94.99458,182.63624 96.44978,182.96675 C 87.77398,218.94275 125.44586,218.36205 131.07529,197.13668 C 131.6703,211.1618 135.58207,213.88413 139.84719,213.97939 C 146.96447,214.14115 147.16081,208.48315 145.66565,204.85419 C 144.9005,202.99706 139.66689,205.14089 138.85474,200.33262 C 138.02206,195.40277 137.48562,189.19716 138.26897,180.28453 C 138.36419,179.20117 139.66896,174.09587 138.3484,173.04454 C 137.18345,172.11711 126.97785,174.13789 127.4956,177.03718 C 129.79256,189.8996 121.04474,205.03118 113.15716,205.30149 C 106.19778,205.54 105.31434,199.8198 106.1015,182.58197 C 106.23474,179.66422 107.43736,176.41985 106.65232,174.65825 C 105.66247,172.43704 97.21781,172.0225 96.04572,172.86522 z"
       id="path6136"
       sodipodi:nodetypes="csccsszsssssss" />
    <path
       style="fill:#000000;fill-opacity:1;fill-rule:evenodd;stroke:none;stroke-width:1px;stroke-linecap:butt;stroke-linejoin:miter;stroke-opacity:1"
       d="M 191.52313,143.42342 C 190.86775,142.79501 183.40333,141.54866 183.04908,142.40346 C 182.3622,144.06091 182.25846,148.54413 181.74908,152.88328 C 181.11611,158.27518 180.46963,163.67446 180.46967,169.73775 C 180.46968,171.15857 163.74215,171.15009 158.31342,175.7065 C 154.7783,178.67357 153.76512,192.33303 153.70895,197.125 C 153.63066,203.80436 157.32408,210.22416 162.56432,212.52789 C 168.36763,215.07917 173.37351,214.74652 181.89369,200.54933 C 182.2593,211.26255 190.26366,213.26712 193.90791,213.42242 C 201.74415,213.75637 201.70063,207.77933 200.56527,204.59375 C 199.81382,202.48534 193.70962,204.3077 192.48693,198.75146 C 191.21527,192.97268 191.20512,183.61042 191.45711,171.63328 C 191.64677,162.61864 192.59786,144.45392 191.52313,143.42342 z M 180.64645,176.56986 C 181.43401,198.65181 170.43865,210.13104 165.82139,202.6348 C 164.29747,200.16068 165.04572,181.67408 166.89368,180.46447 C 172.00678,177.11761 173.98786,177.28021 180.64645,176.56986 z"
       id="path6138"
       sodipodi:nodetypes="csssssscssssscssc" />
    <path
       style="fill:#000000;fill-opacity:1;fill-rule:evenodd;stroke:none;stroke-width:1px;stroke-linecap:butt;stroke-linejoin:miter;stroke-opacity:1"
       d="M 203.32425,142.2571 C 202.29031,143.63731 201.2938,180.25464 201.47799,194.82349 C 201.54441,200.25372 205.00431,208.15279 208.81413,211.26002 C 211.20343,213.2087 219.44307,214.28182 221.59855,212.53494 C 222.86256,211.51054 223.0529,211.22672 222.87437,208.04253 C 222.75264,205.87134 214.55455,202.46656 213.82872,195.12527 C 211.88803,175.49648 214.23769,144.83765 212.7718,143.20469 C 211.89958,142.23306 203.96695,141.39915 203.32425,142.2571 z"
       id="path6143"
       sodipodi:nodetypes="csssssss" />
    <path
       style="fill:#000000;fill-opacity:1;fill-rule:evenodd;stroke:none;stroke-width:1px;stroke-linecap:butt;stroke-linejoin:miter;stroke-opacity:1"
       d="M 246.13225,171.32797 C 242.62297,170.95534 231.50939,170.60496 227.54287,174.84366 C 223.81014,178.83253 222.15143,195.3194 223.40712,201.27627 C 224.83373,208.04397 232.0783,212.72219 235.79409,212.91796 C 241.13883,213.19956 251.75935,208.79445 254.74153,204.02706 C 255.78143,202.36465 254.2537,198.70241 252.79333,197.95774 C 250.80309,196.94287 246.96343,199.30843 244.77697,200.54849 C 239.13384,203.74902 233.48913,205.24013 231.34025,200.46861 C 231.06168,199.85004 231.24895,198.36827 233.07344,197.59423 C 237.67351,195.64265 249.77179,190.01194 253.19062,187.96627 C 256.60937,185.92065 251.87328,173.20574 246.13225,171.32797 z M 242.75403,180.79602 C 244.18671,181.25579 245.41322,182.73181 244.14728,183.20475 C 240.45689,184.58343 231.82426,187.28213 230.64653,187.00191 C 229.64292,186.76312 230.41917,183.12012 232.44825,182.36014 C 233.77028,181.86498 241.5195,180.39984 242.75403,180.79602 z"
       id="path6145"
       sodipodi:nodetypes="csssssssssccssss" />
    <path
       style="fill:#000000;fill-opacity:1;fill-rule:evenodd;stroke:none;stroke-width:1px;stroke-linecap:butt;stroke-linejoin:miter;stroke-opacity:1"
       d="M 252.66074,156.29137 C 249.23653,156.23988 249.15477,164.3965 251.42329,165.66054 C 254.01854,167.10663 273.15499,167.26138 275.64171,166.01409 C 278.00163,164.8304 278.4495,156.67916 276.17203,156.64492 L 252.66074,156.29137 z"
       id="path6152"
       sodipodi:nodetypes="cssss" />
    <path
       style="fill:#000000;fill-opacity:1;fill-rule:evenodd;stroke:none;stroke-width:1px;stroke-linecap:butt;stroke-linejoin:miter;stroke-opacity:1"
       d="M 262.82425,142.2571 C 261.79031,143.63731 260.7938,180.25464 260.97799,194.82349 C 261.04441,200.25372 263.44365,207.97601 267.25347,211.08324 C 269.64277,213.03192 273.28622,214.10504 275.4417,212.35816 C 276.70571,211.33376 277.95671,207.86796 277.77818,204.68377 C 277.65645,202.51258 268.3977,201.75945 267.67187,194.41816 C 265.73118,174.78937 268.08084,144.13054 266.61495,142.49758 C 265.74273,141.52595 263.46695,141.39915 262.82425,142.2571 z"
       id="path2400"
       sodipodi:nodetypes="csssssss" />
    <path
       style="fill:#000000;fill-opacity:1;fill-rule:evenodd;stroke:none;stroke-width:1px;stroke-linecap:butt;stroke-linejoin:miter;stroke-opacity:1"
       d="M 57.1875,19.22186 C 18.363131,19.60446 8.774178,39.08297 28.28125,81.30856 C 20.104058,83.51846 19.655733,90.19694 21.5625,93.45593 C 21.898377,94.03 23.888781,92.81276 26.074143,92.56041 C 29.463027,92.16907 33.910445,91.98107 34.5625,92.08093 C 36.022311,92.3045 36.88246,86.61795 34.09375,79.23718 C 31.644467,72.75475 24.758983,62.65277 24.875,53.06561 C 25.036637,39.70842 32.517825,32.72891 52.28125,31.09686 C 54.928278,49.30354 55.403505,60.95328 54.53125,79.33369 C 51.273386,79.52105 48.92353,79.70097 47.3125,82.02119 C 45.701466,84.3414 45.515789,91.5001 46.81158,91.32205 C 48.019598,91.15606 51.729473,91.07168 57.1875,91.07205 C 62.645527,91.07168 66.854488,91.15606 68.0625,91.32205 C 69.358291,91.5001 68.673533,84.3414 67.0625,82.02119 C 65.45147,79.70097 63.101612,79.52105 59.84375,79.33369 C 58.971495,60.95328 59.446728,49.30354 62.09375,31.09686 C 81.85717,32.72891 89.30711,39.70842 89.46875,53.06561 C 89.58477,62.65277 82.64102,72.73304 80.25,79.23718 C 77.99162,85.38052 78.35269,92.3045 79.8125,92.08093 C 80.46456,91.98107 84.23458,92.14253 87.59375,92.73718 C 91.01655,93.34309 92.41419,94.01058 92.78125,93.45593 C 94.93802,90.19694 97.77094,83.38458 86.09375,80.42468 C 105.7776,38.55264 94.06733,19.42768 57.1875,19.22186 z"
       id="path3194"
       sodipodi:nodetypes="ccsssssccsssssccssssscc" />
    <path
       style="fill:#000000;fill-opacity:1;fill-rule:evenodd;stroke:none;stroke-width:1px;stroke-linecap:butt;stroke-linejoin:miter;stroke-opacity:1"
       d="M 104.04572,52.86522 C 101.69072,54.55844 101.04929,57.61275 100.78797,60.56764 C 100.66989,61.90277 102.99458,62.63624 104.44978,62.96675 C 95.773977,98.94275 124.62613,102.63476 134.12554,77.49023 C 134.72055,91.51535 137.57166,93.17702 141.83678,93.27228 C 148.95406,93.43404 149.1504,87.77604 147.65524,84.14708 C 146.89009,82.28995 141.65648,84.43378 140.84433,79.62551 C 140.01165,74.69566 139.47521,68.49005 140.25856,59.57742 C 140.35378,58.49406 141.65855,53.38876 140.33799,52.33743 C 139.17304,51.41 132.82319,54.14404 133.37428,57.03718 C 137.57296,79.07966 100.60723,97.39221 108.97498,61.87486 C 109.44279,59.88923 111.54828,56.59662 110.76324,54.83502 C 109.77339,52.61381 105.21781,52.0225 104.04572,52.86522 z"
       id="path3196"
       sodipodi:nodetypes="csccsszssssss" />
    <path
       style="fill:#000000;fill-opacity:1;fill-rule:evenodd;stroke:none;stroke-width:1px;stroke-linecap:butt;stroke-linejoin:miter;stroke-opacity:1"
       d="M 186.77313,22.42342 C 186.11775,21.79501 183.40333,21.54866 183.04908,22.40346 C 182.3622,24.06091 182.25846,28.54413 181.74908,32.88328 C 181.11611,38.27518 180.46963,43.67446 180.46967,49.73775 C 180.46968,51.15857 163.74215,51.15009 158.31342,55.7065 C 154.7783,58.67357 153.76512,72.33303 153.70895,77.125 C 153.63066,83.80436 157.32408,90.22416 162.56432,92.52789 C 168.36763,95.07917 173.37351,94.74652 181.89369,80.54933 C 182.2593,91.26255 185.51366,92.26712 189.15791,92.42242 C 196.99415,92.75637 196.95063,86.77933 195.81527,83.59375 C 195.06382,81.48534 188.95962,83.3077 187.73693,77.75146 C 186.46527,71.97268 186.45512,62.61042 186.70711,50.63328 C 186.89677,41.61864 187.84786,23.45392 186.77313,22.42342 z M 179.89645,61.56986 C 180.68401,83.65181 164.18865,85.63104 159.57139,78.1348 C 158.04747,75.66068 158.29572,67.67408 160.14368,66.46447 C 165.25678,63.11761 173.23786,62.28021 179.89645,61.56986 z"
       id="path3198"
       sodipodi:nodetypes="csssssscssssscssc" />
    <path
       style="fill:#000000;fill-opacity:1;fill-rule:evenodd;stroke:none;stroke-width:1px;stroke-linecap:butt;stroke-linejoin:miter;stroke-opacity:1"
       d="M 203.32425,22.2571 C 202.29031,23.63731 201.2938,60.25464 201.47799,74.82349 C 201.54441,80.25372 203.94365,87.44568 207.75347,90.55291 C 210.14277,92.50159 213.78622,93.57471 215.9417,91.82783 C 217.20571,90.80343 218.45671,87.33763 218.27818,84.15344 C 218.15645,81.98225 208.8977,81.75945 208.17187,74.41816 C 206.23118,54.78937 208.58084,24.13054 207.11495,22.49758 C 206.24273,21.52595 203.96695,21.39915 203.32425,22.2571 z"
       id="path3200"
       sodipodi:nodetypes="csssssss" />
    <path
       style="fill:#000000;fill-opacity:1;fill-rule:evenodd;stroke:none;stroke-width:1px;stroke-linecap:butt;stroke-linejoin:miter;stroke-opacity:1"
       d="M 246.13225,51.32797 C 242.62297,50.95534 231.50939,50.60496 227.54287,54.84366 C 223.81014,58.83253 222.15143,75.3194 223.40712,81.27627 C 224.83373,88.04397 232.0783,92.72219 235.79409,92.91796 C 241.13883,93.19956 251.75935,88.79445 254.74153,84.02706 C 255.78143,82.36465 254.2537,78.70241 252.79333,77.95774 C 250.80309,76.94287 246.96343,79.30843 244.77697,80.54849 C 239.13384,83.74902 233.48913,85.24013 231.34025,80.46861 C 231.06168,79.85004 231.24895,78.36827 233.07344,77.59423 C 237.67351,75.64265 249.77179,70.01194 253.19062,67.96627 C 256.60937,65.92065 251.87328,53.20574 246.13225,51.32797 z M 242.75403,60.79602 C 244.18671,61.25579 245.41322,62.73181 244.14728,63.20475 C 240.45689,64.58343 231.82426,67.28213 230.64653,67.00191 C 229.64292,66.76312 230.41917,63.12012 232.44825,62.36014 C 233.77028,61.86498 241.5195,60.39984 242.75403,60.79602 z"
       id="path3202"
       sodipodi:nodetypes="csssssssssccssss" />
    <path
       style="fill:#000000;fill-opacity:1;fill-rule:evenodd;stroke:none;stroke-width:1px;stroke-linecap:butt;stroke-linejoin:miter;stroke-opacity:1"
       d="M 252.66074,36.29137 C 249.23653,36.23988 249.15477,44.3965 251.42329,45.66054 C 254.01854,47.10663 273.15499,47.26138 275.64171,46.01409 C 278.00163,44.8304 278.4495,36.67916 276.17203,36.64492 L 252.66074,36.29137 z"
       id="path3204"
       sodipodi:nodetypes="cssss" />
    <path
       style="fill:#000000;fill-opacity:1;fill-rule:evenodd;stroke:none;stroke-width:1px;stroke-linecap:butt;stroke-linejoin:miter;stroke-opacity:1"
       d="M 262.82425,22.2571 C 261.79031,23.63731 260.7938,60.25464 260.97799,74.82349 C 261.04441,80.25372 263.44365,87.97601 267.25347,91.08324 C 269.64277,93.03192 273.28622,94.10504 275.4417,92.35816 C 276.70571,91.33376 277.95671,87.86796 277.77818,84.68377 C 277.65645,82.51258 268.3977,81.75945 267.67187,74.41816 C 265.73118,54.78937 268.08084,24.13054 266.61495,22.49758 C 265.74273,21.52595 263.46695,21.39915 262.82425,22.2571 z"
       id="path3206"
       sodipodi:nodetypes="csssssss" />
    <rect
       style="opacity:1;fill:#dca27e;fill-opacity:0.78666669;stroke:none;stroke-width:0.461;stroke-linecap:round;stroke-linejoin:round;stroke-miterlimit:4;stroke-dasharray:none;stroke-opacity:1"
       id="rect3208"
       width="11.667262"
       height="26.516504"
       x="31.769554"
       y="220.09352"
       rx="1.3337809"
       ry="1.3337809" />
    <rect
       style="opacity:1;fill:#dca27e;fill-opacity:0.78666669;stroke:none;stroke-width:0.461;stroke-linecap:round;stroke-linejoin:round;stroke-miterlimit:4;stroke-dasharray:none;stroke-opacity:1"
       id="rect3210"
       width="11.667262"
       height="26.516504"
       x="33.971607"
       y="228.56343"
       rx="1.3337809"
       ry="1.3337809"
       transform="matrix(0.981018,-0.1939166,0.1939166,0.981018,0,0)"
       inkscape:transform-center-x="4.5961933"
       inkscape:transform-center-y="-6.1871915" />
  </g>
</svg>
