<?xml version="1.0" encoding="UTF-8" standalone="no"?>
<!-- Created with Inkscape (http://www.inkscape.org/) -->
<svg
   xmlns:dc="http://purl.org/dc/elements/1.1/"
   xmlns:cc="http://creativecommons.org/ns#"
   xmlns:rdf="http://www.w3.org/1999/02/22-rdf-syntax-ns#"
   xmlns:svg="http://www.w3.org/2000/svg"
   xmlns="http://www.w3.org/2000/svg"
   xmlns:sodipodi="http://sodipodi.sourceforge.net/DTD/sodipodi-0.dtd"
   xmlns:inkscape="http://www.inkscape.org/namespaces/inkscape"
   width="308"
   height="122"
   id="svg5517"
   sodipodi:version="0.32"
   inkscape:version="0.45+devel"
   sodipodi:docname="type.svg"
   inkscape:output_extension="org.inkscape.output.svg.inkscape"
   version="1.0">
  <defs
     id="defs5519">
    <inkscape:perspective
       sodipodi:type="inkscape:persp3d"
       inkscape:vp_x="0 : 61 : 1"
       inkscape:vp_y="0 : 1000 : 0"
       inkscape:vp_z="308 : 61 : 1"
       inkscape:persp3d-origin="154 : 40.666667 : 1"
       id="perspective28" />
    <inkscape:perspective
       sodipodi:type="inkscape:persp3d"
       inkscape:vp_x="0 : 61 : 1"
       inkscape:vp_y="0 : 1000 : 0"
       inkscape:vp_z="308 : 61 : 1"
       inkscape:persp3d-origin="154 : 40.666667 : 1"
       id="perspective2419" />
    <inkscape:perspective
       sodipodi:type="inkscape:persp3d"
       inkscape:vp_x="0 : 61 : 1"
       inkscape:vp_y="0 : 1000 : 0"
       inkscape:vp_z="308 : 61 : 1"
       inkscape:persp3d-origin="154 : 40.666667 : 1"
       id="perspective35" />
    <inkscape:perspective
       sodipodi:type="inkscape:persp3d"
       inkscape:vp_x="0 : 61 : 1"
       inkscape:vp_y="0 : 1000 : 0"
       inkscape:vp_z="308 : 61 : 1"
       inkscape:persp3d-origin="154 : 40.666667 : 1"
       id="perspective34" />
    <inkscape:perspective
       sodipodi:type="inkscape:persp3d"
       inkscape:vp_x="0 : 61 : 1"
       inkscape:vp_y="0 : 1000 : 0"
       inkscape:vp_z="308 : 61 : 1"
       inkscape:persp3d-origin="154 : 40.666667 : 1"
       id="perspective25" />
    <inkscape:perspective
       sodipodi:type="inkscape:persp3d"
       inkscape:vp_x="0 : 136 : 1"
       inkscape:vp_y="0 : 1000 : 0"
       inkscape:vp_z="420 : 136 : 1"
       inkscape:persp3d-origin="210 : 90.666667 : 1"
       id="perspective24" />
    <inkscape:perspective
       sodipodi:type="inkscape:persp3d"
       inkscape:vp_x="0 : 526.18109 : 1"
       inkscape:vp_y="0 : 1000 : 0"
       inkscape:vp_z="744.09448 : 526.18109 : 1"
       inkscape:persp3d-origin="372.04724 : 350.78739 : 1"
       id="perspective5525" />
    <inkscape:perspective
       id="perspective5591"
       inkscape:persp3d-origin="372.04724 : 350.78739 : 1"
       inkscape:vp_z="744.09448 : 526.18109 : 1"
       inkscape:vp_y="0 : 1000 : 0"
       inkscape:vp_x="0 : 526.18109 : 1"
       sodipodi:type="inkscape:persp3d" />
    <clipPath
       clipPathUnits="userSpaceOnUse"
       id="clipPath5599">
      <rect
         style="opacity:0.32242988;fill:#c41212;fill-opacity:1;stroke:none;stroke-width:1;stroke-linecap:square;stroke-linejoin:miter;stroke-miterlimit:4;stroke-dasharray:none;stroke-opacity:0.66183573"
         id="rect5601"
         width="351.42856"
         height="122.85714"
         x="18.571428"
         y="483.79074" />
    </clipPath>
  </defs>
  <sodipodi:namedview
     id="base"
     pagecolor="#ffffff"
     bordercolor="#666666"
     borderopacity="1.0"
     gridtolerance="10000"
     guidetolerance="10"
     objecttolerance="10"
     inkscape:pageopacity="0.0"
     inkscape:pageshadow="2"
     inkscape:zoom="1.4142136"
     inkscape:cx="154.29895"
     inkscape:cy="24.705934"
     inkscape:document-units="px"
     inkscape:current-layer="layer1"
     showgrid="false"
     showguides="false"
     inkscape:guide-bbox="true"
     inkscape:window-width="1270"
     inkscape:window-height="852"
     inkscape:window-x="5"
     inkscape:window-y="49"
     showborder="false"
     borderlayer="false"
     inkscape:snap-global="false"
     inkscape:snap-intersection-grid-guide="false">
    <sodipodi:guide
       orientation="0,1"
       position="294.86353,66.468037"
       id="guide6162" />
    <sodipodi:guide
       orientation="0,1"
       position="240.5,97"
       id="guide6166" />
    <inkscape:grid
       type="xygrid"
       id="grid6168"
       empspacing="5"
       visible="true"
       enabled="true" />
    <sodipodi:guide
       orientation="0,1"
       position="155.20994,27.577164"
       id="guide3191" />
  </sodipodi:namedview>
  <metadata
     id="metadata5522">
    <rdf:RDF>
      <cc:Work
         rdf:about="">
        <dc:format>image/svg+xml</dc:format>
        <dc:type
           rdf:resource="http://purl.org/dc/dcmitype/StillImage" />
      </cc:Work>
    </rdf:RDF>
  </metadata>
  <g
     inkscape:label="Layer 1"
     inkscape:groupmode="layer"
     id="layer1"
     transform="translate(5,-117.36218)">
    <path
       style="fill:#000000;fill-opacity:1;fill-rule:evenodd;stroke:none;stroke-width:1px;stroke-linecap:butt;stroke-linejoin:miter;stroke-opacity:1"
       d="M 49.1875,139.72186 C 10.363131,140.10446 -0.64003593,164.70949 17.09927,207.64219 C 13.870064,208.36909 11.509414,208.57496 10.223575,208.63788 C 9.2689011,208.68461 9.8680859,212.92237 10.645684,212.89527 C 15.495373,212.72627 24.147098,212.37172 29.390927,212.40415 C 30.145067,212.40881 30.47345,206.94117 27.68474,199.5604 C 25.235457,193.07797 21.68592,184.1539 21.824747,172.68173 C 21.963574,161.20955 21.866175,147.92561 41.6296,146.29356 C 42.24745,163.54207 42.030954,187.47524 41.227949,206.02088 C 37.970085,206.20824 35.509142,206.79138 34.362752,207.20577 C 33.445249,207.53742 34.333808,212.08849 35.099269,211.99883 C 36.310358,211.85697 43.729473,211.74846 49.1875,211.74883 C 54.645527,211.74846 59.210593,211.81523 60.416054,211.99883 C 61.004738,212.08849 61.353701,207.25395 60.476714,207.029 C 59.376598,206.74681 57.046156,206.20824 53.788294,206.02088 C 53.488256,187.64047 53.167399,164.50024 54.270527,146.29356 C 74.033947,147.92561 73.551747,161.91666 73.690577,173.38883 C 73.829407,184.86101 70.57516,193.05626 68.184136,199.5604 C 65.925756,205.70374 65.748451,212.40415 66.685976,212.40415 C 71.399713,212.40415 80.676695,212.41953 85.406247,212.56316 C 86.33214,212.59128 86.782935,208.86432 85.997934,208.704 C 85.092607,208.5191 81.192307,208.14987 78.800857,207.81897 C 96.257297,165.50145 86.05588,139.92539 49.1875,139.72186 z"
       id="path5605"
       sodipodi:nodetypes="ccsssszccssssscczssszcc"
       inkscape:export-filename="/media/sdb8/software_artwork/mudlet/type.png"
       inkscape:export-xdpi="90"
       inkscape:export-ydpi="90" />
    <path
       style="fill:#000000;fill-opacity:1;fill-rule:evenodd;stroke:none;stroke-width:1px;stroke-linecap:butt;stroke-linejoin:miter;stroke-opacity:1"
       d="M 125.30547,173.43839 C 123.63125,176.94684 127.13981,207.63853 114.24204,207.64547 C 109.69894,207.64547 107.75287,200.41018 107.94828,192.69998 C 108.10643,186.4604 111.2092,174.42368 110.48468,173.68152 C 109.5246,172.69806 95.904455,173.1778 94.884805,173.2147 C 93.921512,173.24956 93.740795,177.93579 94.738358,178.06245 C 96.109371,178.23653 97.335855,178.31138 98.791055,178.65221 C 93.676505,197.09188 97.005524,213.1928 113.82415,212.96567 C 120.70371,212.81926 126.50747,210.89214 129.60097,206.86014 C 131.29975,209.07837 134.60189,212.36002 135.58947,212.15783 C 136.59786,211.95138 143.12426,205.54841 142.89921,204.90783 C 142.57362,203.9811 137.42638,201.92032 136.43934,192.83597 C 135.77028,186.67818 136.85954,174.02371 136.22244,173.18057 C 135.68316,172.46689 125.74935,172.5082 125.30547,173.43839 z"
       id="path6136"
       sodipodi:nodetypes="ccsssscccsssss"
       inkscape:export-filename="/media/sdb8/software_artwork/mudlet/type.png"
       inkscape:export-xdpi="90"
       inkscape:export-ydpi="90" />
    <path
       style="fill:#000000;fill-opacity:1;fill-rule:evenodd;stroke:none;stroke-width:1px;stroke-linecap:butt;stroke-linejoin:miter;stroke-opacity:1"
       d="M 183.9211,145.72152 C 184.05421,144.01262 172.6877,141.3632 172.61095,142.40346 C 171.62815,155.72381 172.68217,173.128 172.2574,174.60171 C 172.12608,175.05732 170.02227,173.02687 165.37209,172.56801 C 156.77376,171.71957 151.29991,174.72045 148.57817,179.86336 C 141.33499,193.54983 148.27569,212.70467 163.61245,212.70467 C 171.75356,212.70467 176.25008,211.0771 178.10084,206.91329 C 179.735,209.49854 183.54287,211.83752 184.10464,211.65466 C 184.79171,211.43101 192.42728,204.29694 192.35299,203.70987 C 192.26907,203.04671 185.78208,200.76467 184.2961,188.67519 C 182.54257,174.40901 182.61318,162.51314 183.9211,145.72152 z M 172.61095,182.08547 C 174.5555,210.16631 166.36705,207.08781 163.96787,206.7258 C 156.48939,205.59738 156.70057,193.85059 157.87442,186.091 C 159.49244,175.39526 172.40471,179.52285 172.61095,182.08547 z"
       id="path6138"
       sodipodi:nodetypes="cssssscsssscssc"
       inkscape:export-filename="/media/sdb8/software_artwork/mudlet/type.png"
       inkscape:export-xdpi="90"
       inkscape:export-ydpi="90" />
    <path
       style="fill:#000000;fill-opacity:1;fill-rule:evenodd;stroke:none;stroke-width:1px;stroke-linecap:butt;stroke-linejoin:miter;stroke-opacity:1"
       d="M 234.58737,172.41532 C 218.84491,172.41532 216.84018,188.14623 217.26966,194.86617 C 217.97926,205.96924 225.85774,213.0599 236.53249,212.8436 C 240.81789,212.75818 250.63507,209.98002 254.3483,206.29017 C 253.73102,203.21797 253.3393,199.47832 251.97086,196.77552 C 247.44219,201.06803 240.96255,205.54842 237.01439,205.54842 C 232.99445,205.54842 230.23547,201.53819 229.46901,196.09731 C 234.98131,194.12082 249.91078,190.25203 254.0076,188.18025 C 251.31661,172.59166 243.81391,172.41532 234.58737,172.41532 z M 234.9606,177.52365 C 241.21993,176.40005 240.88603,181.78488 241.40311,186.76861 C 239.51863,187.6521 231.99723,189.98337 228.85372,190.58346 C 228.44681,183.572 228.29782,178.71967 234.9606,177.52365 z"
       id="path6145"
       sodipodi:nodetypes="cssccsccscccs"
       inkscape:export-filename="/media/sdb8/software_artwork/mudlet/type.png"
       inkscape:export-xdpi="90"
       inkscape:export-ydpi="90" />
    <path
       style="fill:#000000;fill-opacity:1;fill-rule:evenodd;stroke:none;stroke-width:1px;stroke-linecap:butt;stroke-linejoin:miter;stroke-opacity:1"
       d="M 196.37808,142.39343 C 195.40244,157.03438 195.13548,168.79911 195.14064,181.00034 C 195.14526,191.91844 197.04565,201.16035 199.54505,205.33184 C 202.08993,209.57924 206.24029,212.62632 206.97459,212.37382 C 207.58379,212.16434 213.84792,204.94564 213.80945,204.40414 C 213.76924,203.83808 207.32778,200.92076 206.6094,188.31224 C 205.84164,174.83706 206.27911,160.82429 207.49328,146.61218 C 207.55457,145.89477 196.43103,141.59882 196.37808,142.39343 z"
       id="path3182"
       sodipodi:nodetypes="cszsssss"
       inkscape:export-filename="/media/sdb8/software_artwork/mudlet/type.png"
       inkscape:export-xdpi="90"
       inkscape:export-ydpi="90" />
    <path
       style="fill:#000000;fill-opacity:1;fill-rule:evenodd;stroke:none;stroke-width:1px;stroke-linecap:butt;stroke-linejoin:miter;stroke-opacity:1"
       d="M 251.72154,166.45274 C 250.36031,166.40995 250.18042,161.66997 251.57664,161.29585 C 254.50515,160.51116 276.0149,160.72752 278.87657,161.10125 C 280.03676,161.25277 279.79164,166.24485 278.84937,166.25814 C 274.24876,166.32301 261.14401,166.7489 251.72154,166.45274 z"
       id="path6152"
       sodipodi:nodetypes="cssss"
       inkscape:export-filename="/media/sdb8/software_artwork/mudlet/type.png"
       inkscape:export-xdpi="90"
       inkscape:export-ydpi="90" />
    <path
       style="fill:#000000;fill-opacity:1;fill-rule:evenodd;stroke:none;stroke-width:1px;stroke-linecap:butt;stroke-linejoin:miter;stroke-opacity:1"
       d="M 261.12808,142.39343 C 260.15244,157.03438 259.88548,168.79911 259.89064,181.00034 C 259.89526,191.91844 261.79565,201.16035 264.29505,205.33184 C 266.83993,209.57924 270.99029,212.62632 271.72459,212.37382 C 272.33379,212.16434 278.59792,204.94564 278.55945,204.40414 C 278.51924,203.83808 272.07778,200.92076 271.3594,188.31224 C 270.59164,174.83706 271.02911,160.82429 272.24328,146.61218 C 272.30457,145.89477 261.18103,141.59882 261.12808,142.39343 z"
       id="path2407"
       sodipodi:nodetypes="cszsssss"
       inkscape:export-filename="/media/sdb8/software_artwork/mudlet/type.png"
       inkscape:export-xdpi="90"
       inkscape:export-ydpi="90" />
  </g>
</svg>
