<?xml version="1.0" encoding="UTF-8" standalone="no"?>
<!-- Created with Inkscape (http://www.inkscape.org/) -->
<svg
   xmlns:dc="http://purl.org/dc/elements/1.1/"
   xmlns:cc="http://creativecommons.org/ns#"
   xmlns:rdf="http://www.w3.org/1999/02/22-rdf-syntax-ns#"
   xmlns:svg="http://www.w3.org/2000/svg"
   xmlns="http://www.w3.org/2000/svg"
   xmlns:xlink="http://www.w3.org/1999/xlink"
   xmlns:sodipodi="http://sodipodi.sourceforge.net/DTD/sodipodi-0.dtd"
   xmlns:inkscape="http://www.inkscape.org/namespaces/inkscape"
   width="781"
   height="131"
   id="svg2"
   sodipodi:version="0.32"
   inkscape:version="0.45+devel"
   sodipodi:docname="make_head.svg"
   inkscape:output_extension="org.inkscape.output.svg.inkscape"
   version="1.0"
   style="display:inline">
  <defs
     id="defs4">
    <linearGradient
       id="linearGradient9515">
      <stop
         id="stop9517"
         offset="0"
         style="stop-color:#ffffc7;stop-opacity:1;" />
      <stop
         id="stop9519"
         offset="1"
         style="stop-color:#eae4df;stop-opacity:1;" />
    </linearGradient>
    <linearGradient
       id="linearGradient9411">
      <stop
         style="stop-color:#aa7932;stop-opacity:1;"
         offset="0"
         id="stop9413" />
      <stop
         style="stop-color:#6e592b;stop-opacity:1;"
         offset="1"
         id="stop9415" />
    </linearGradient>
    <linearGradient
       id="linearGradient9261">
      <stop
         style="stop-color:#f4e8c5;stop-opacity:1;"
         offset="0"
         id="stop9263" />
      <stop
         style="stop-color:#ecda98;stop-opacity:1;"
         offset="1"
         id="stop9265" />
    </linearGradient>
    <filter
       id="filter4555"
       inkscape:collect="always">
      <feGaussianBlur
         id="feGaussianBlur4557"
         stdDeviation="1.6043663"
         inkscape:collect="always" />
    </filter>
    <linearGradient
       id="linearGradient5230">
      <stop
         id="stop5232"
         offset="0"
         style="stop-color:#f8e2ba;stop-opacity:1;" />
      <stop
         id="stop5234"
         offset="1"
         style="stop-color:#e3c897;stop-opacity:1;" />
    </linearGradient>
    <linearGradient
       id="linearGradient5246">
      <stop
         style="stop-color:#cd9f4b;stop-opacity:1;"
         offset="0"
         id="stop5248" />
      <stop
         style="stop-color:#cab791;stop-opacity:1;"
         offset="1"
         id="stop5250" />
    </linearGradient>
    <linearGradient
       id="linearGradient6834">
      <stop
         id="stop6836"
         offset="0"
         style="stop-color:#dec495;stop-opacity:1;" />
      <stop
         id="stop6838"
         offset="1"
         style="stop-color:#5d5546;stop-opacity:1;" />
    </linearGradient>
    <linearGradient
       id="linearGradient7485">
      <stop
         id="stop7487"
         offset="0"
         style="stop-color:#fff6af;stop-opacity:1;" />
      <stop
         style="stop-color:#fff6af;stop-opacity:1;"
         offset="0.65476191"
         id="stop7493" />
      <stop
         id="stop7489"
         offset="1"
         style="stop-color:#fff6af;stop-opacity:0;" />
    </linearGradient>
    <linearGradient
       id="linearGradient3410">
      <stop
         id="stop3412"
         offset="0"
         style="stop-color:#e2c89a;stop-opacity:1;" />
      <stop
         id="stop3414"
         offset="1"
         style="stop-color:#bba072;stop-opacity:1;" />
    </linearGradient>
    <linearGradient
       id="linearGradient3550">
      <stop
         id="stop3552"
         offset="0"
         style="stop-color:#c3a87a;stop-opacity:1;" />
      <stop
         id="stop3554"
         offset="1"
         style="stop-color:#ceb791;stop-opacity:1;" />
    </linearGradient>
    <linearGradient
       id="linearGradient3574">
      <stop
         id="stop3576"
         offset="0"
         style="stop-color:#92d84b;stop-opacity:1;" />
      <stop
         style="stop-color:#9ce463;stop-opacity:1;"
         offset="0.65476191"
         id="stop4163" />
      <stop
         id="stop3578"
         offset="1"
         style="stop-color:#cbf0a8;stop-opacity:1;" />
    </linearGradient>
    <linearGradient
       id="linearGradient3596">
      <stop
         id="stop3598"
         offset="0"
         style="stop-color:#b3f8ff;stop-opacity:1;" />
      <stop
         id="stop3600"
         offset="1"
         style="stop-color:#ffffff;stop-opacity:1;" />
    </linearGradient>
    <linearGradient
       id="linearGradient3946">
      <stop
         id="stop3948"
         offset="0"
         style="stop-color:#c2ac88;stop-opacity:1;" />
      <stop
         style="stop-color:#c0ad84;stop-opacity:1;"
         offset="0.64285713"
         id="stop3954" />
      <stop
         id="stop3950"
         offset="1"
         style="stop-color:#d4c387;stop-opacity:1;" />
    </linearGradient>
    <linearGradient
       id="linearGradient4111">
      <stop
         style="stop-color:#56421e;stop-opacity:0;"
         offset="0"
         id="stop4113" />
      <stop
         id="stop4119"
         offset="0.36124232"
         style="stop-color:#5e4a28;stop-opacity:1;" />
      <stop
         style="stop-color:#675332;stop-opacity:1;"
         offset="1"
         id="stop4115" />
    </linearGradient>
    <linearGradient
       id="linearGradient4146">
      <stop
         style="stop-color:#d8b880;stop-opacity:1;"
         offset="0"
         id="stop4148" />
      <stop
         style="stop-color:#b6a280;stop-opacity:1;"
         offset="1"
         id="stop4150" />
    </linearGradient>
    <linearGradient
       id="linearGradient4171">
      <stop
         style="stop-color:#e8d3ae;stop-opacity:1;"
         offset="0"
         id="stop4173" />
      <stop
         style="stop-color:#dec393;stop-opacity:1;"
         offset="1"
         id="stop4175" />
    </linearGradient>
    <linearGradient
       id="linearGradient4472">
      <stop
         style="stop-color:#826e4a;stop-opacity:0;"
         offset="0"
         id="stop4474" />
      <stop
         id="stop4476"
         offset="0.21320121"
         style="stop-color:#7d6948;stop-opacity:1;" />
      <stop
         style="stop-color:#7f6a49;stop-opacity:1;"
         offset="1"
         id="stop4478" />
    </linearGradient>
    <linearGradient
       id="linearGradient4520">
      <stop
         id="stop4522"
         offset="0"
         style="stop-color:#c3a87a;stop-opacity:0;" />
      <stop
         id="stop4524"
         offset="1"
         style="stop-color:#c29752;stop-opacity:1;" />
    </linearGradient>
    <linearGradient
       id="linearGradient4246">
      <stop
         id="stop4248"
         offset="0"
         style="stop-color:#97d766;stop-opacity:1;" />
      <stop
         id="stop4250"
         offset="1"
         style="stop-color:#87de45;stop-opacity:0;" />
    </linearGradient>
    <linearGradient
       id="linearGradient4437">
      <stop
         id="stop4439"
         offset="0"
         style="stop-color:#78cb7b;stop-opacity:1;" />
      <stop
         id="stop4441"
         offset="1"
         style="stop-color:#aee6be;stop-opacity:1;" />
    </linearGradient>
    <linearGradient
       id="linearGradient4508">
      <stop
         id="stop4510"
         offset="0"
         style="stop-color:#ffffff;stop-opacity:1;" />
      <stop
         style="stop-color:#ffffff;stop-opacity:1;"
         offset="0.39285713"
         id="stop4569" />
      <stop
         id="stop4512"
         offset="1"
         style="stop-color:#000000;stop-opacity:1;" />
    </linearGradient>
    <linearGradient
       id="linearGradient4096">
      <stop
         id="stop4098"
         offset="0"
         style="stop-color:#efd7ac;stop-opacity:1;" />
      <stop
         id="stop4100"
         offset="1"
         style="stop-color:#d8be90;stop-opacity:1;" />
    </linearGradient>
    <linearGradient
       id="linearGradient4541">
      <stop
         style="stop-color:#926c50;stop-opacity:1;"
         offset="0"
         id="stop4543" />
      <stop
         id="stop4545"
         offset="0.49999994"
         style="stop-color:#70513d;stop-opacity:1;" />
      <stop
         style="stop-color:#50382b;stop-opacity:1;"
         offset="1"
         id="stop4547" />
    </linearGradient>
    <linearGradient
       id="linearGradient3650">
      <stop
         id="stop3652"
         offset="0"
         style="stop-color:#fff6af;stop-opacity:1" />
      <stop
         id="stop3654"
         offset="1"
         style="stop-color:#fcfad0;stop-opacity:1;" />
    </linearGradient>
    <linearGradient
       id="linearGradient3676">
      <stop
         style="stop-color:#886b39;stop-opacity:0;"
         offset="0"
         id="stop3678" />
      <stop
         style="stop-color:#573b34;stop-opacity:1;"
         offset="1"
         id="stop3680" />
    </linearGradient>
    <linearGradient
       id="linearGradient4413">
      <stop
         style="stop-color:#f4deb5;stop-opacity:1"
         offset="0"
         id="stop4415" />
      <stop
         style="stop-color:#e5cb9b;stop-opacity:1"
         offset="1"
         id="stop4417" />
    </linearGradient>
    <linearGradient
       id="linearGradient4160">
      <stop
         id="stop4162"
         offset="0"
         style="stop-color:#e6d39d;stop-opacity:1;" />
      <stop
         id="stop4164"
         offset="1"
         style="stop-color:#ccaf6b;stop-opacity:1;" />
    </linearGradient>
    <linearGradient
       inkscape:collect="always"
       xlink:href="#linearGradient4160"
       id="linearGradient9393"
       x1="360.091"
       y1="300.32498"
       x2="360.17673"
       y2="413.61481"
       gradientUnits="userSpaceOnUse" />
    <linearGradient
       inkscape:collect="always"
       xlink:href="#linearGradient4413"
       id="linearGradient9401"
       x1="360.091"
       y1="300.32498"
       x2="360.17673"
       y2="413.61481"
       gradientUnits="userSpaceOnUse" />
    <linearGradient
       inkscape:collect="always"
       xlink:href="#linearGradient4541"
       id="linearGradient9477"
       gradientUnits="userSpaceOnUse"
       x1="116.55277"
       y1="263.78665"
       x2="116.55277"
       y2="326.48169" />
    <linearGradient
       inkscape:collect="always"
       xlink:href="#linearGradient4541"
       id="linearGradient9479"
       gradientUnits="userSpaceOnUse"
       x1="116.55277"
       y1="263.78665"
       x2="116.55277"
       y2="326.48169" />
    <linearGradient
       inkscape:collect="always"
       xlink:href="#linearGradient4541"
       id="linearGradient9481"
       gradientUnits="userSpaceOnUse"
       x1="116.55277"
       y1="263.78665"
       x2="116.55277"
       y2="326.48169" />
    <linearGradient
       inkscape:collect="always"
       xlink:href="#linearGradient4541"
       id="linearGradient9483"
       gradientUnits="userSpaceOnUse"
       x1="116.55277"
       y1="263.78665"
       x2="116.55277"
       y2="326.48169" />
    <linearGradient
       inkscape:collect="always"
       xlink:href="#linearGradient4541"
       id="linearGradient9485"
       gradientUnits="userSpaceOnUse"
       x1="116.55277"
       y1="263.78665"
       x2="116.55277"
       y2="326.48169" />
    <linearGradient
       inkscape:collect="always"
       xlink:href="#linearGradient4541"
       id="linearGradient9487"
       gradientUnits="userSpaceOnUse"
       x1="116.55277"
       y1="263.78665"
       x2="116.55277"
       y2="326.48169" />
    <linearGradient
       inkscape:collect="always"
       xlink:href="#linearGradient4541"
       id="linearGradient9489"
       gradientUnits="userSpaceOnUse"
       x1="116.55277"
       y1="263.78665"
       x2="116.55277"
       y2="326.48169" />
    <filter
       inkscape:collect="always"
       id="filter9817">
      <feGaussianBlur
         inkscape:collect="always"
         stdDeviation="4.3945028"
         id="feGaussianBlur9819" />
    </filter>
  </defs>
  <sodipodi:namedview
     id="base"
     pagecolor="#ffffff"
     bordercolor="#666666"
     borderopacity="1.0"
     gridtolerance="10000"
     guidetolerance="10"
     objecttolerance="10"
     inkscape:pageopacity="0.0"
     inkscape:pageshadow="2"
     inkscape:zoom="1"
     inkscape:cx="407.98311"
     inkscape:cy="-1.568329"
     inkscape:document-units="px"
     inkscape:current-layer="layer1"
     showgrid="false"
     showborder="false"
     inkscape:window-width="1279"
     inkscape:window-height="974"
     inkscape:window-x="1"
     inkscape:window-y="49"
     showguides="false"
     inkscape:guide-bbox="true">
    <inkscape:grid
       type="xygrid"
       id="grid4276"
       empspacing="5"
       visible="true"
       enabled="true" />
    <sodipodi:guide
       orientation="0,1"
       position="636.04255,671.04434"
       id="guide9459" />
    <sodipodi:guide
       orientation="0,1"
       position="627.20372,691.90399"
       id="guide9461" />
  </sodipodi:namedview>
  <metadata
     id="metadata7">
    <rdf:RDF>
      <cc:Work
         rdf:about="">
        <dc:format>image/svg+xml</dc:format>
        <dc:type
           rdf:resource="http://purl.org/dc/dcmitype/StillImage" />
      </cc:Work>
    </rdf:RDF>
  </metadata>
  <g
     inkscape:groupmode="layer"
     id="layer9"
     inkscape:label="head"
     style="display:inline"
     transform="translate(-238,-460.09375)">
    <image
       y="460.09375"
       x="238"
       id="image2980"
       height="131"
       width="781"
       sodipodi:absref="/media/sdb8/software_artwork/mudlet/make/make_head_bg.png"
       xlink:href="make_head_bg.png" />
  </g>
  <g
     inkscape:groupmode="layer"
     id="layer1"
     inkscape:label="text"
     style="display:inline">
    <path
       transform="translate(-238,-460.09375)"
       style="font-size:33.34531021px;font-style:normal;font-variant:normal;font-weight:normal;font-stretch:normal;opacity:0.9;fill:#513d31;fill-opacity:1;stroke:none;stroke-width:1px;stroke-linecap:butt;stroke-linejoin:miter;stroke-opacity:1;display:inline;enable-background:new;font-family:Gentium;-inkscape-font-specification:Gentium"
       d="M 656.77469,540.33956 L 656.77469,539.63971 C 657.27419,539.54206 657.69225,539.43898 658.02888,539.33047 C 658.37636,539.22197 658.65325,539.11889 658.85958,539.02124 C 659.06589,538.91273 659.21248,538.81508 659.29937,538.72828 C 659.39708,538.63062 659.44595,538.54382 659.44596,538.46787 L 659.44596,521.29718 L 654.57577,521.29718 C 654.41289,521.2972 654.26086,521.32975 654.1197,521.39484 C 653.98939,521.44911 653.85366,521.57389 653.7125,521.76917 C 653.58218,521.96449 653.43016,522.25203 653.25643,522.63177 C 653.08268,523.01155 652.87637,523.5161 652.63748,524.1454 L 651.93707,523.83616 C 651.99137,523.19601 652.06195,522.51244 652.14882,521.78544 C 652.24655,521.0585 652.35515,520.40747 652.47459,519.83239 L 668.92572,519.83239 L 669.41436,520.23927 C 669.39264,520.79266 669.33833,521.40027 669.25148,522.06214 C 669.1646,522.71317 669.056,523.38047 668.92572,524.06402 L 668.19275,524.06402 C 668.095,523.60832 668.0027,523.20686 667.91585,522.85963 C 667.83982,522.51244 667.74752,522.2249 667.63895,521.99703 C 667.5412,521.75834 667.41632,521.58473 667.26432,521.47621 C 667.11228,521.35688 666.91682,521.2972 666.67794,521.29718 L 662.05208,521.29718 L 662.05208,538.46787 C 662.05207,538.60892 662.24753,538.78795 662.63846,539.00496 C 663.02936,539.22197 663.72432,539.43355 664.72335,539.63971 L 664.72335,540.33956 L 656.77469,540.33956 M 681.06046,540.33956 L 681.06046,539.63971 C 681.84229,539.43355 682.41781,539.25452 682.78701,539.10261 C 683.15621,538.95071 683.34081,538.79881 683.34082,538.6469 L 683.34082,530.03714 C 683.34081,529.37528 683.29737,528.83819 683.21051,528.42586 C 683.13449,528.01356 683.00961,527.68806 682.83588,527.44933 C 682.66213,527.21063 682.44495,527.04788 682.18435,526.96106 C 681.92373,526.87428 681.61426,526.83087 681.25593,526.83086 C 680.87586,526.83087 680.46322,526.92853 680.01801,527.12382 C 679.58365,527.31914 679.12759,527.60668 678.6498,527.98642 C 678.172,528.3662 677.68879,528.84362 677.20015,529.41867 C 676.71149,529.9829 676.23371,530.64477 675.76678,531.40429 L 675.76678,538.6469 C 675.76677,538.80965 675.96766,538.97784 676.36945,539.15144 C 676.78208,539.32504 677.34131,539.4878 678.04713,539.63971 L 678.04713,540.33956 L 671.04319,540.33956 L 671.04319,539.63971 C 671.75987,539.45525 672.3191,539.2925 672.72088,539.15144 C 673.12265,538.99954 673.32354,538.83136 673.32355,538.6469 L 673.32355,519.21392 C 673.32354,518.75822 673.30182,518.40558 673.25839,518.156 C 673.22581,517.89561 673.12808,517.69488 672.9652,517.55381 C 672.81318,517.41278 672.58514,517.31512 672.2811,517.26085 C 671.97705,517.19577 671.56441,517.13067 671.04319,517.06555 L 671.04319,516.41452 C 671.49926,516.32775 671.9119,516.24094 672.2811,516.15411 C 672.66115,516.06734 673.00864,515.9751 673.32355,515.87743 C 673.64931,515.76895 673.95879,515.65502 674.25197,515.53564 C 674.54516,515.41631 674.84921,515.27526 675.16412,515.11248 L 675.76678,515.66584 L 675.76678,529.2071 C 676.23371,528.51268 676.7495,527.88878 677.31417,527.33541 C 677.88968,526.78205 678.4652,526.31006 679.04072,525.91943 C 679.61623,525.52883 680.17545,525.23045 680.71841,525.02428 C 681.2722,524.81814 681.76084,524.71506 682.18435,524.71504 C 682.65127,524.71506 683.10191,524.78558 683.53628,524.92663 C 683.97062,525.06769 684.35067,525.28471 684.67645,525.57764 C 685.01306,525.87062 685.27911,526.24496 685.47458,526.70065 C 685.68088,527.14554 685.78404,527.67177 685.78405,528.27939 L 685.78405,538.6469 C 685.78404,538.79881 685.94693,538.95071 686.2727,539.10261 C 686.60931,539.24368 687.20655,539.42271 688.06441,539.63971 L 688.06441,540.33956 L 681.06046,540.33956 M 696.66461,526.4077 C 696.1108,526.40771 695.60044,526.51622 695.13351,526.73321 C 694.66657,526.95023 694.24851,527.25404 693.87931,527.64464 C 693.52097,528.03526 693.21693,528.50726 692.96718,529.06061 C 692.72827,529.61399 692.55454,530.22704 692.44595,530.89974 L 699.40103,530.89974 C 699.65078,530.89975 699.81366,530.86178 699.88968,530.78582 C 699.97654,530.69902 700.01997,530.54169 700.01999,530.31382 C 700.01997,530.11853 700.00368,529.88525 699.97112,529.61398 C 699.93853,529.34273 699.87338,529.06605 699.77567,528.78393 C 699.68878,528.49097 699.5639,528.20345 699.40103,527.92133 C 699.249,527.63923 699.04811,527.38967 698.79836,527.17265 C 698.54861,526.94481 698.24456,526.76035 697.88623,526.61929 C 697.53873,526.47824 697.13153,526.40771 696.66461,526.4077 M 702.69126,531.27409 C 702.49579,531.4911 702.23518,531.69183 701.90942,531.87628 C 701.58364,532.06074 701.24702,532.2235 700.89955,532.36454 L 692.33193,532.36454 L 692.33193,532.41337 C 692.33193,533.22716 692.44052,534.01381 692.6577,534.77332 C 692.88573,535.522 693.20606,536.1893 693.6187,536.77521 C 694.03133,537.35028 694.53627,537.81142 695.13351,538.15863 C 695.73074,538.50584 696.40399,538.67946 697.15325,538.67946 C 697.48987,538.67946 697.81563,538.66318 698.13055,538.63062 C 698.4563,538.58722 698.80379,538.495 699.173,538.35394 C 699.54218,538.20204 699.94939,537.97961 700.39462,537.68664 C 700.85068,537.39369 701.38275,536.99765 701.99086,536.49853 C 702.13202,536.57449 702.25146,536.68299 702.34921,536.82404 C 702.45778,536.9651 702.53922,537.07903 702.59353,537.16583 C 701.86597,537.95791 701.2253,538.59808 700.67152,539.08634 C 700.12856,539.56376 699.61277,539.93267 699.12413,540.19307 C 698.64633,540.45348 698.16855,540.62167 697.69077,540.69762 C 697.22383,540.78442 696.71346,540.82782 696.15967,540.82782 C 695.32354,540.82782 694.52542,540.64879 693.7653,540.29073 C 693.01604,539.93267 692.35365,539.42812 691.77813,538.77711 C 691.20261,538.11524 690.74111,537.32316 690.39363,536.40088 C 690.057,535.46775 689.8887,534.42612 689.8887,533.27598 C 689.8887,532.54901 689.97014,531.83289 690.13302,531.12761 C 690.29591,530.42234 690.52937,529.75504 690.83342,529.12572 C 691.14832,528.4964 691.52838,527.91591 691.97359,527.38423 C 692.4188,526.85257 692.92373,526.39143 693.4884,526.00081 C 693.72728,525.83807 693.99333,525.68074 694.28652,525.52882 C 694.59056,525.36608 694.90547,525.22502 695.23124,525.10566 C 695.557,524.98631 695.87733,524.89409 696.19225,524.82898 C 696.518,524.75303 696.82748,524.71506 697.12068,524.71504 C 697.83735,524.71506 698.46716,524.81271 699.01012,525.00801 C 699.5639,525.20333 700.04712,525.46916 700.45977,525.8055 C 700.87239,526.13103 701.21988,526.51622 701.50222,526.96106 C 701.78453,527.39509 702.01257,527.85623 702.18633,528.34449 C 702.37091,528.83276 702.50122,529.33188 702.57724,529.84184 C 702.65324,530.34096 702.69124,530.81838 702.69126,531.27409 M 736.63596,520.53223 C 736.32103,520.53225 735.97356,520.58107 735.59352,520.67872 C 735.21344,520.77639 734.82795,520.91744 734.43706,521.10187 L 734.59994,538.6469 C 734.59991,538.77711 734.79537,538.93986 735.18631,539.13517 C 735.58807,539.31963 736.17987,539.4878 736.96173,539.63971 L 736.96173,540.33956 L 729.58315,540.33956 L 729.58315,539.63971 C 730.32154,539.4878 730.9242,539.32504 731.39115,539.15144 C 731.86891,538.96698 732.10782,538.79881 732.10784,538.6469 L 731.96124,523.29907 C 731.95036,523.33164 731.93407,523.36962 731.91237,523.413 L 724.79441,540.33956 L 723.99628,540.33956 L 716.69915,523.42927 L 716.55255,538.6469 C 716.55255,538.77711 716.74801,538.93986 717.13893,539.13517 C 717.5407,539.31963 718.13251,539.4878 718.91436,539.63971 L 718.91436,540.33956 L 712.36648,540.33956 L 712.36648,539.63971 C 713.11573,539.4878 713.69668,539.32504 714.10932,539.15144 C 714.52195,538.96698 714.72827,538.79881 714.72827,538.6469 L 714.89116,521.18325 C 714.47851,520.93372 714.06045,520.76553 713.63696,520.67872 C 713.22433,520.58107 712.85512,520.53225 712.52935,520.53223 L 712.52935,519.83239 L 717.18779,519.83239 C 717.29637,519.83241 717.38325,519.84868 717.44841,519.88121 C 717.52441,519.91378 717.595,519.97888 717.66016,520.07652 C 717.73617,520.17419 717.8176,520.31525 717.90448,520.49968 C 717.99135,520.67331 718.09993,520.90659 718.23025,521.19953 L 724.71297,535.88006 L 730.93508,521.19953 C 731.07622,520.87404 731.19024,520.62448 731.27713,520.45086 C 731.36399,520.26642 731.44,520.13079 731.50517,520.04396 C 731.58116,519.94633 731.65174,519.88666 731.71691,519.86493 C 731.7929,519.84325 731.87978,519.83241 731.97753,519.83239 L 736.63596,519.83239 L 736.63596,520.53223 L 736.63596,520.53223 M 759.06488,520.53223 C 758.32646,520.68415 757.74551,520.85234 757.32204,521.03678 C 756.90938,521.22124 756.70307,521.38943 756.70309,521.54132 L 756.70309,531.81118 C 756.70307,533.23258 756.52932,534.50207 756.18186,535.61965 C 755.83436,536.73724 755.33485,537.68123 754.68334,538.45159 C 754.03179,539.22197 753.23911,539.81331 752.30526,540.22562 C 751.37139,540.62709 750.31807,540.82782 749.14534,540.82782 C 748.02687,540.82782 746.99528,540.67049 746.05057,540.35583 C 745.1167,540.05202 744.30772,539.58545 743.62362,538.95614 C 742.95037,538.31597 742.42371,537.51304 742.04366,536.54736 C 741.6636,535.58168 741.47357,534.43697 741.47357,533.11322 L 741.47357,521.54132 C 741.47357,521.41113 741.27268,521.24837 740.87091,521.05305 C 740.47998,520.85777 739.89361,520.68415 739.11178,520.53223 L 739.11178,519.83239 L 746.44149,519.83239 L 746.44149,520.53223 C 745.70308,520.68415 745.12214,520.85234 744.69864,521.03678 C 744.286,521.22124 744.07969,521.38943 744.07969,521.54132 L 744.07969,532.29944 C 744.07969,533.34108 744.19914,534.27422 744.43803,535.09883 C 744.68778,535.92346 745.05155,536.62331 745.52935,537.19837 C 746.01799,537.77345 746.61522,538.21289 747.32105,538.5167 C 748.02687,538.82051 748.84671,538.97241 749.78058,538.97241 C 750.55155,538.97241 751.23565,538.78795 751.8329,538.41905 C 752.43012,538.03929 752.92962,537.54559 753.33141,536.93797 C 753.74403,536.33035 754.05351,535.63593 754.25984,534.8547 C 754.47701,534.07348 754.58559,533.2814 754.58561,532.47848 L 754.58561,521.54132 C 754.58559,521.41113 754.3847,521.24837 753.98295,521.05305 C 753.59201,520.85777 753.00563,520.68415 752.22382,520.53223 L 752.22382,519.83239 L 759.06488,519.83239 L 759.06488,520.53223 L 759.06488,520.53223 M 767.50219,520.71126 C 766.95924,520.71128 766.42716,520.72756 765.90595,520.76008 L 765.90595,537.83313 C 765.90594,538.07183 765.96023,538.26714 766.06882,538.41905 C 766.22084,538.6035 766.51404,538.74455 766.9484,538.8422 C 767.38274,538.92901 768.02341,538.97241 768.87041,538.97241 C 769.61966,538.97241 770.39063,538.79338 771.18334,538.43532 C 771.98688,538.06641 772.71442,537.51304 773.36596,536.77521 C 774.02834,536.02654 774.57128,535.08799 774.99479,533.95955 C 775.41826,532.83112 775.63002,531.50195 775.63003,529.97204 C 775.63002,528.52896 775.45085,527.23776 775.09252,526.09846 C 774.73416,524.94834 774.20751,523.97724 773.51256,523.18515 C 772.82844,522.38223 771.98145,521.76919 770.97159,521.34601 C 769.96171,520.92286 768.80524,520.71128 767.50219,520.71126 M 778.43161,529.33729 C 778.43159,530.69359 778.29042,531.90884 778.00811,532.98301 C 777.73663,534.04636 777.36742,534.99034 776.90051,535.81495 C 776.43357,536.62874 775.89063,537.32316 775.27169,537.89822 C 774.65272,538.46245 774.00119,538.92901 773.31709,539.29792 C 772.64384,539.65598 771.9543,539.92182 771.24848,540.09542 C 770.54266,540.25818 769.86941,540.33956 769.22875,540.33956 L 760.93803,540.33956 L 760.93803,539.63971 C 761.67643,539.4878 762.25194,539.32504 762.66458,539.15144 C 763.08808,538.96698 763.29982,538.79881 763.29982,538.6469 L 763.29982,521.00422 C 762.86547,521.0585 762.45283,521.11275 762.06192,521.16698 C 761.671,521.22124 761.29637,521.2755 760.93803,521.32973 L 760.79143,520.32065 C 761.26922,520.19047 761.81759,520.06569 762.43655,519.94631 C 763.06636,519.82698 763.72875,519.7239 764.42371,519.63707 C 765.11867,519.53944 765.81907,519.46892 766.5249,519.4255 C 767.24157,519.37127 767.92025,519.34414 768.56093,519.34412 C 770.0703,519.34414 771.43308,519.572 772.64928,520.02769 C 773.86546,520.47258 774.90247,521.12359 775.76034,521.98076 C 776.61816,522.83795 777.27513,523.885 777.73122,525.12193 C 778.19813,526.35889 778.43159,527.76401 778.43161,529.33729 M 803.87385,536.90542 C 803.17887,537.64324 802.51105,538.26714 801.87039,538.77711 C 801.24056,539.27622 800.62704,539.67769 800.02982,539.9815 C 799.44343,540.28531 798.86248,540.50231 798.28698,540.63251 C 797.72231,540.76272 797.15765,540.82782 796.593,540.82782 C 795.58312,540.82782 794.58954,540.59997 793.61225,540.14425 C 792.64581,539.68853 791.7771,539.03209 791.00613,538.17491 C 790.23515,537.31774 789.61077,536.27068 789.13299,535.03373 C 788.66605,533.78595 788.43258,532.3754 788.43258,530.80209 C 788.43258,529.06605 788.69319,527.49274 789.21443,526.08219 C 789.74651,524.67166 790.46319,523.46727 791.36447,522.46902 C 792.26575,521.47081 793.31363,520.70043 794.5081,520.15789 C 795.70257,519.6154 796.96762,519.34414 798.30327,519.34412 C 799.476,519.34414 800.50216,519.50147 801.38175,519.81611 C 802.27215,520.13079 802.9997,520.51598 803.56437,520.97167 C 803.6295,521.02594 803.61322,521.13445 803.5155,521.29718 C 803.41776,521.45995 803.28202,521.64441 803.1083,521.85055 C 802.9454,522.05673 802.76623,522.26288 802.57078,522.46902 C 802.38617,522.6752 802.22872,522.84337 802.09843,522.97356 L 801.52833,522.87591 C 800.97453,522.36596 800.31756,521.94822 799.55747,521.62269 C 798.79733,521.2972 797.9232,521.13445 796.93505,521.13443 C 796.56585,521.13445 796.15864,521.20497 795.71343,521.34601 C 795.27908,521.47623 794.83929,521.68781 794.39409,521.98076 C 793.94887,522.27373 793.51995,522.65892 793.10732,523.13632 C 792.69468,523.60289 792.32547,524.17254 791.99972,524.84525 C 791.6848,525.51799 791.42962,526.29921 791.23417,527.18892 C 791.04956,528.06782 790.95726,529.07147 790.95727,530.1999 C 790.95726,531.643 791.16358,532.90707 791.57622,533.9921 C 791.99971,535.07714 792.53722,535.98314 793.18876,536.71011 C 793.85114,537.42624 794.5841,537.96875 795.38767,538.33767 C 796.20208,538.69573 796.99476,538.87476 797.76576,538.87476 C 798.35211,538.87476 799.11766,538.67403 800.06239,538.27256 C 801.0071,537.8711 802.0767,537.17125 803.27118,536.17301 C 803.32546,536.19473 803.37976,536.24355 803.43406,536.3195 C 803.4992,536.3846 803.55893,536.45513 803.61324,536.53108 C 803.66751,536.60704 803.71638,536.68299 803.75983,536.75894 C 803.80324,536.82404 803.84126,536.87287 803.87385,536.90542 M 806.18678,540.33956 L 806.18678,539.63971 C 806.65371,539.56376 807.04463,539.4878 807.35953,539.41185 C 807.67443,539.32504 807.92419,539.24368 808.10879,539.16772 C 808.29339,539.08092 808.4237,538.99411 808.49971,538.90731 C 808.58658,538.82051 808.63002,538.7337 808.63002,538.6469 L 808.63002,519.24647 C 808.63002,518.75822 808.59743,518.37845 808.53229,518.10718 C 808.46713,517.83594 808.34769,517.6352 808.17395,517.50499 C 808.0002,517.36395 807.76674,517.27173 807.47355,517.22829 C 807.18036,517.17406 806.80573,517.11982 806.34966,517.06555 L 806.34966,516.41452 C 807.13149,516.26264 807.84818,516.09446 808.49971,515.90998 C 809.15124,515.72555 809.81363,515.45971 810.48687,515.11248 L 811.07325,515.66584 L 811.07325,538.6469 C 811.07325,538.80965 811.25784,538.97784 811.62706,539.15144 C 811.99625,539.32504 812.62606,539.4878 813.51649,539.63971 L 813.51649,540.33956 L 806.18678,540.33956 M 820.61817,519.81611 C 820.61817,520.11993 820.5693,520.40747 820.47158,520.67872 C 820.37384,520.94999 820.23811,521.1887 820.06437,521.39484 C 819.90148,521.59016 819.70602,521.74749 819.47799,521.86682 C 819.24995,521.9862 819.00019,522.04587 818.72873,522.04585 C 818.24008,522.04587 817.88717,521.91025 817.67,521.63897 C 817.46367,521.36773 817.36051,520.98254 817.36052,520.4834 C 817.36051,520.17961 817.40938,519.89208 817.50711,519.6208 C 817.60484,519.34957 817.74057,519.11629 817.91432,518.92095 C 818.08806,518.71482 818.28351,518.55748 818.5007,518.44897 C 818.72873,518.32963 818.97305,518.26996 819.23367,518.26994 C 820.15667,518.26996 820.61817,518.78535 820.61817,519.81611 M 815.40593,540.33956 L 815.40593,539.63971 C 816.14433,539.4878 816.70899,539.32504 817.09991,539.15144 C 817.49083,538.96698 817.68628,538.79881 817.68628,538.6469 L 817.68628,529.43495 C 817.68628,528.88159 817.67543,528.43673 817.65371,528.10036 C 817.63199,527.75315 817.55055,527.48733 817.40938,527.30285 C 817.26822,527.10757 817.04018,526.96651 816.72528,526.87969 C 816.42123,526.7929 815.98145,526.72238 815.40593,526.66811 L 815.40593,526.01709 C 815.74255,525.952 816.09546,525.87605 816.46466,525.78923 C 816.84472,525.69159 817.21935,525.58851 817.58855,525.47999 C 817.95775,525.36066 818.31067,525.23588 818.64729,525.10566 C 818.98391,524.97547 819.29339,524.84526 819.57572,524.71504 L 820.12953,524.71504 L 820.12953,538.6469 C 820.12952,538.77711 820.30869,538.93986 820.66704,539.13517 C 821.03623,539.31963 821.61718,539.4878 822.40988,539.63971 L 822.40988,540.33956 L 815.40593,540.33956 M 831.401,526.4077 C 830.84719,526.40771 830.33682,526.51622 829.8699,526.73321 C 829.40297,526.95023 828.9849,527.25404 828.61571,527.64464 C 828.25736,528.03526 827.95331,528.50726 827.70356,529.06061 C 827.46466,529.61399 827.29092,530.22704 827.18234,530.89974 L 834.13742,530.89974 C 834.38716,530.89975 834.55004,530.86178 834.62606,530.78582 C 834.71293,530.69902 834.75637,530.54169 834.75638,530.31382 C 834.75637,530.11853 834.74007,529.88525 834.70751,529.61398 C 834.67492,529.34273 834.60977,529.06605 834.51205,528.78393 C 834.42517,528.49097 834.30029,528.20345 834.13742,527.92133 C 833.98538,527.63923 833.7845,527.38967 833.53476,527.17265 C 833.28499,526.94481 832.98094,526.76035 832.62261,526.61929 C 832.27512,526.47824 831.86792,526.40771 831.401,526.4077 M 837.42765,531.27409 C 837.23217,531.4911 836.97156,531.69183 836.64581,531.87628 C 836.32004,532.06074 835.9834,532.2235 835.63594,532.36454 L 827.06832,532.36454 L 827.06832,532.41337 C 827.06831,533.22716 827.17691,534.01381 827.39408,534.77332 C 827.62212,535.522 827.94246,536.1893 828.35509,536.77521 C 828.76772,537.35028 829.27265,537.81142 829.8699,538.15863 C 830.46713,538.50584 831.14037,538.67946 831.88964,538.67946 C 832.22626,538.67946 832.55202,538.66318 832.86694,538.63062 C 833.19269,538.58722 833.54017,538.495 833.90938,538.35394 C 834.27857,538.20204 834.68578,537.97961 835.131,537.68664 C 835.58706,537.39369 836.11915,536.99765 836.72725,536.49853 C 836.8684,536.57449 836.98785,536.68299 837.08559,536.82404 C 837.19417,536.9651 837.27561,537.07903 837.32992,537.16583 C 836.60237,537.95791 835.96169,538.59808 835.4079,539.08634 C 834.86495,539.56376 834.34916,539.93267 833.86052,540.19307 C 833.38272,540.45348 832.90493,540.62167 832.42716,540.69762 C 831.96021,540.78442 831.44985,540.82782 830.89606,540.82782 C 830.05992,540.82782 829.2618,540.64879 828.50168,540.29073 C 827.75242,539.93267 827.09003,539.42812 826.51452,538.77711 C 825.939,538.11524 825.4775,537.32316 825.13002,536.40088 C 824.7934,535.46775 824.62508,534.42612 824.62508,533.27598 C 824.62508,532.54901 824.70652,531.83289 824.86941,531.12761 C 825.03229,530.42234 825.26575,529.75504 825.5698,529.12572 C 825.8847,528.4964 826.26476,527.91591 826.70997,527.38423 C 827.15519,526.85257 827.66013,526.39143 828.22479,526.00081 C 828.46368,525.83807 828.72971,525.68074 829.02291,525.52882 C 829.32695,525.36608 829.64186,525.22502 829.96763,525.10566 C 830.29338,524.98631 830.61372,524.89409 830.92863,524.82898 C 831.25439,524.75303 831.56387,524.71506 831.85706,524.71504 C 832.57373,524.71506 833.20355,524.81271 833.7465,525.00801 C 834.30029,525.20333 834.78351,525.46916 835.19616,525.8055 C 835.60878,526.13103 835.95626,526.51622 836.2386,526.96106 C 836.52092,527.39509 836.74895,527.85623 836.92271,528.34449 C 837.10729,528.83276 837.2376,529.33188 837.31362,529.84184 C 837.38962,530.34096 837.42763,530.81838 837.42765,531.27409 M 849.6764,540.33956 L 849.6764,539.63971 C 850.45822,539.43355 851.03375,539.25452 851.40295,539.10261 C 851.77215,538.95071 851.95674,538.79881 851.95676,538.6469 L 851.95676,530.03714 C 851.95674,529.37528 851.91873,528.83819 851.84273,528.42586 C 851.76672,528.01356 851.64727,527.68806 851.48439,527.44933 C 851.3215,527.21063 851.10433,527.04788 850.83287,526.96106 C 850.57225,526.87428 850.25191,526.83087 849.87187,526.83086 C 849.53522,526.83087 849.1606,526.91225 848.74798,527.075 C 848.33533,527.23776 847.89011,527.49817 847.41234,527.85622 C 846.9454,528.21429 846.45132,528.68629 845.93011,529.27219 C 845.41974,529.84728 844.90394,530.55797 844.38272,531.40429 L 844.38272,538.6469 C 844.38271,538.80965 844.5836,538.97784 844.98539,539.15144 C 845.39802,539.32504 845.95725,539.4878 846.66307,539.63971 L 846.66307,540.33956 L 839.65913,540.33956 L 839.65913,539.63971 C 840.37581,539.45525 840.93504,539.2925 841.33682,539.15144 C 841.73859,538.99954 841.93948,538.83136 841.93949,538.6469 L 841.93949,528.76765 C 841.93948,528.3445 841.92319,528.00814 841.89062,527.75857 C 841.85804,527.50902 841.76574,527.31371 841.61372,527.17265 C 841.47256,527.0316 841.24995,526.92853 840.9459,526.86341 C 840.64185,526.79833 840.21293,526.73322 839.65913,526.66811 L 839.65913,526.01709 C 840.39753,525.89775 841.08163,525.72956 841.71145,525.51255 C 842.34126,525.28471 842.96021,525.01887 843.5683,524.71504 L 844.1384,525.28469 L 844.31757,529.33729 C 844.79535,528.61033 845.32201,527.96474 845.89753,527.40051 C 846.47304,526.82546 847.05399,526.34261 847.64037,525.95199 C 848.22674,525.55053 848.79139,525.24672 849.33435,525.04055 C 849.88814,524.82357 850.37678,524.71506 850.80029,524.71504 C 851.26721,524.71506 851.71785,524.78558 852.15222,524.92663 C 852.58656,525.06769 852.96661,525.28471 853.29239,525.57764 C 853.629,525.87062 853.89505,526.24496 854.09052,526.70065 C 854.29682,527.14554 854.39998,527.67177 854.39999,528.27939 L 854.39999,538.6469 C 854.39998,538.79881 854.56286,538.95071 854.88864,539.10261 C 855.22525,539.24368 855.82249,539.42271 856.68035,539.63971 L 856.68035,540.33956 L 849.6764,540.33956 M 868.21243,538.43532 C 867.68035,538.82593 867.15369,539.17314 866.63248,539.47695 C 866.11124,539.76991 865.61174,540.01947 865.13395,540.22562 C 864.66702,540.42094 864.23267,540.56741 863.83089,540.66507 C 863.42912,540.77357 863.08706,540.82782 862.80473,540.82782 C 862.42468,540.82782 862.0609,540.75729 861.71343,540.61624 C 861.3768,540.47518 861.07818,540.24732 860.81757,539.93267 C 860.55696,539.60715 860.35064,539.184 860.19862,538.66317 C 860.04659,538.14237 859.97058,537.50219 859.97059,536.74266 L 859.97059,526.73321 L 857.8694,526.73321 L 857.52734,526.2775 L 858.79783,525.20331 L 859.97059,525.20331 L 859.97059,521.19953 L 861.90888,519.50687 L 862.41382,519.91376 L 862.41382,525.20331 L 867.74008,525.20331 L 868.21243,525.6753 C 868.1147,525.82722 867.98982,525.98997 867.83781,526.16356 C 867.69663,526.32634 867.55004,526.48909 867.39803,526.65183 C 867.24599,526.80375 867.09397,526.93938 866.94195,527.05872 C 866.80077,527.17809 866.6759,527.25947 866.56732,527.30285 C 866.3067,527.17266 865.91036,527.04788 865.37828,526.92852 C 864.84619,526.79833 864.14037,526.73322 863.26081,526.73321 L 862.41382,526.73321 L 862.41382,535.34297 C 862.41381,535.99399 862.44096,536.53651 862.49526,536.97052 C 862.56041,537.39369 862.66357,537.73547 862.80473,537.99588 C 862.9459,538.24544 863.12507,538.42447 863.34225,538.53297 C 863.57028,538.63062 863.84718,538.67946 864.17295,538.67946 C 864.55301,538.67946 865.03079,538.60892 865.60632,538.46787 C 866.18182,538.32681 866.89308,538.03929 867.74008,537.60527 L 868.21243,538.43532 L 868.21243,538.43532"
       id="text15878"
       inkscape:export-filename="/media/sdb8/software_artwork/mudlet/make/make_the_mud_client.png"
       inkscape:export-xdpi="90"
       inkscape:export-ydpi="90" />
    <g
       inkscape:export-ydpi="90"
       inkscape:export-xdpi="90"
       inkscape:export-filename="/media/sdb8/software_artwork/mudlet/make/make_mudlet.png"
       transform="matrix(0.6500432,0,0,0.6495358,228.02039,-130.7528)"
       style="opacity:0.9;fill:url(#linearGradient9489);fill-opacity:1;display:inline;enable-background:new"
       id="g9463">
      <path
         style="fill:url(#linearGradient9477);fill-opacity:1;fill-rule:evenodd;stroke:none;stroke-width:1px;stroke-linecap:butt;stroke-linejoin:miter;stroke-opacity:1"
         d="M 55.922727,263.78664 C 22.833254,264.11273 13.455406,285.08326 28.574372,321.6742 C 25.822164,322.29373 23.810215,322.46919 22.714312,322.52282 C 21.900656,322.56264 22.411333,326.17443 23.07407,326.15133 C 27.207393,326.00729 34.581138,325.70512 39.050381,325.73276 C 39.693125,325.73673 39.973001,321.07673 37.596222,314.7862 C 35.508732,309.26132 32.48351,301.65546 32.601831,291.87789 C 32.720151,282.1003 32.637139,270.77859 49.481234,269.38761 C 50.007819,284.08828 49.823302,304.48619 49.138912,320.29238 C 46.362279,320.45207 44.264852,320.94907 43.287799,321.30225 C 42.505824,321.58491 43.263131,325.46372 43.915523,325.38731 C 44.947717,325.2664 51.270926,325.17392 55.922727,325.17424 C 60.574529,325.17392 64.465271,325.23083 65.492669,325.38731 C 65.994396,325.46372 66.291813,321.34331 65.544369,321.15159 C 64.606755,320.91108 62.620552,320.45207 59.843921,320.29238 C 59.588202,304.62701 59.31474,284.90491 60.254921,269.38761 C 77.099011,270.77859 76.688039,282.70296 76.806362,292.48054 C 76.924685,302.25812 74.151135,309.24282 72.113298,314.7862 C 70.188512,320.02209 70.037397,325.73276 70.836437,325.73276 C 74.85389,325.73276 82.760534,325.74586 86.791466,325.86828 C 87.580592,325.89224 87.964798,322.71581 87.295752,322.57917 C 86.524155,322.42158 83.199983,322.10689 81.161783,321.82487 C 96.039666,285.75823 87.345139,263.96011 55.922727,263.78664 z"
         id="path9465"
         sodipodi:nodetypes="ccsssszccssssscczssszcc"
         inkscape:export-filename="/media/sdb8/software_artwork/mudlet/type.png"
         inkscape:export-xdpi="90"
         inkscape:export-ydpi="90" />
      <path
         style="fill:url(#linearGradient9479);fill-opacity:1;fill-rule:evenodd;stroke:none;stroke-width:1px;stroke-linecap:butt;stroke-linejoin:miter;stroke-opacity:1"
         d="M 120.79702,292.52278 C 119.37011,295.51298 122.36041,321.67108 111.36781,321.677 C 107.49579,321.677 105.83718,315.51046 106.00373,308.93916 C 106.13852,303.62126 108.78297,293.36253 108.16547,292.72999 C 107.34721,291.8918 95.738944,292.30068 94.86991,292.33213 C 94.048909,292.36184 93.894886,296.35585 94.745095,296.4638 C 95.913591,296.61216 96.958906,296.67596 98.199153,296.96644 C 93.840092,312.68232 96.677369,326.40491 111.01165,326.21133 C 116.87501,326.08655 121.82147,324.44409 124.45802,321.00767 C 125.90586,322.89824 128.72023,325.69514 129.56193,325.52282 C 130.42137,325.34687 135.98373,319.8897 135.79192,319.34375 C 135.51443,318.55391 131.12751,316.79753 130.28627,309.05507 C 129.71604,303.80687 130.6444,293.02164 130.10141,292.30304 C 129.64178,291.69478 121.17534,291.72999 120.79702,292.52278 z"
         id="path9467"
         sodipodi:nodetypes="ccsssscccsssss"
         inkscape:export-filename="/media/sdb8/software_artwork/mudlet/type.png"
         inkscape:export-xdpi="90"
         inkscape:export-ydpi="90" />
      <path
         style="fill:url(#linearGradient9481);fill-opacity:1;fill-rule:evenodd;stroke:none;stroke-width:1px;stroke-linecap:butt;stroke-linejoin:miter;stroke-opacity:1"
         d="M 170.75432,268.90007 C 170.86776,267.4436 161.18024,265.18553 161.11483,266.07213 C 160.2772,277.42488 161.17553,292.25824 160.8135,293.51426 C 160.70158,293.90257 158.90853,292.17204 154.94525,291.78096 C 147.61701,291.05785 142.95173,293.61546 140.63202,297.99869 C 134.45876,309.66348 140.37422,325.98888 153.44553,325.98888 C 160.38409,325.98888 164.21641,324.60173 165.79379,321.05297 C 167.18656,323.25634 170.43196,325.24982 170.91074,325.09398 C 171.49632,324.90336 178.00402,318.82309 177.9407,318.32274 C 177.86918,317.75754 172.3404,315.81259 171.07392,305.50889 C 169.57941,293.35002 169.63959,283.21134 170.75432,268.90007 z M 161.11483,299.89256 C 162.77214,323.82548 155.79324,321.20171 153.74845,320.89318 C 147.37465,319.93144 147.55463,309.91981 148.55509,303.30642 C 149.93411,294.19059 160.93906,297.70848 161.11483,299.89256 z"
         id="path9469"
         sodipodi:nodetypes="cssssscsssscssc"
         inkscape:export-filename="/media/sdb8/software_artwork/mudlet/type.png"
         inkscape:export-xdpi="90"
         inkscape:export-ydpi="90" />
      <path
         style="fill:url(#linearGradient9483);fill-opacity:1;fill-rule:evenodd;stroke:none;stroke-width:1px;stroke-linecap:butt;stroke-linejoin:miter;stroke-opacity:1"
         d="M 213.93648,291.65083 C 200.5194,291.65083 198.81079,305.05807 199.17683,310.78538 C 199.78162,320.24837 206.49633,326.29164 215.59428,326.10729 C 219.24666,326.03449 227.61371,323.6667 230.77845,320.5219 C 230.25235,317.9035 229.91849,314.71625 228.75219,312.41269 C 224.89246,316.07114 219.36996,319.88971 216.00499,319.88971 C 212.57885,319.88971 210.22741,316.47185 209.57417,311.83466 C 214.27223,310.15013 226.99641,306.85281 230.48807,305.08706 C 228.19458,291.80112 221.80013,291.65083 213.93648,291.65083 z M 214.25458,296.00459 C 219.58932,295.04696 219.30474,299.63637 219.74544,303.88394 C 218.13932,304.63693 211.72894,306.62383 209.04977,307.13528 C 208.70296,301.15951 208.57598,297.02394 214.25458,296.00459 z"
         id="path9471"
         sodipodi:nodetypes="cssccsccscccs"
         inkscape:export-filename="/media/sdb8/software_artwork/mudlet/type.png"
         inkscape:export-xdpi="90"
         inkscape:export-ydpi="90" />
      <path
         style="fill:url(#linearGradient9485);fill-opacity:1;fill-rule:evenodd;stroke:none;stroke-width:1px;stroke-linecap:butt;stroke-linejoin:miter;stroke-opacity:1"
         d="M 181.37123,266.06359 C 180.5397,278.54186 180.31218,288.56878 180.31657,298.96772 C 180.32051,308.27307 181.94019,316.14982 184.07039,319.70512 C 186.23936,323.32512 189.77665,325.92211 190.40249,325.70691 C 190.9217,325.52837 196.26053,319.37597 196.22774,318.91446 C 196.19347,318.43201 190.70351,315.94562 190.09124,305.19955 C 189.43689,293.71484 189.80974,281.77195 190.84456,269.65917 C 190.8968,269.04773 181.41636,265.38635 181.37123,266.06359 z"
         id="path9473"
         sodipodi:nodetypes="cszsssss"
         inkscape:export-filename="/media/sdb8/software_artwork/mudlet/type.png"
         inkscape:export-xdpi="90"
         inkscape:export-ydpi="90" />
      <path
         style="fill:url(#linearGradient9487);fill-opacity:1;fill-rule:evenodd;stroke:none;stroke-width:1px;stroke-linecap:butt;stroke-linejoin:miter;stroke-opacity:1"
         d="M 236.59375,266 C 236.57449,266.01292 236.56391,266.04134 236.5625,266.0625 C 236.18518,271.72474 235.9446,276.83346 235.78125,281.75 C 232.26815,281.80338 229.30289,281.94725 228.40625,282.1875 C 227.21627,282.50635 227.3711,286.52603 228.53125,286.5625 C 230.73683,286.63183 233.19238,286.66064 235.65625,286.65625 C 235.5636,290.80264 235.49827,294.87902 235.5,298.96875 C 235.50393,308.27411 237.1198,316.16345 239.25,319.71875 C 241.41897,323.33876 244.96791,325.93395 245.59375,325.71875 C 246.11297,325.54021 251.43903,319.36776 251.40625,318.90625 C 251.37197,318.4238 245.89352,315.93357 245.28125,305.1875 C 244.93349,299.08374 244.88481,292.85057 245.0625,286.53125 C 247.55865,286.47921 250.36353,286.42448 251.65625,286.40625 C 252.45933,286.39492 252.67632,282.12914 251.6875,282 C 250.89796,281.89689 248.26298,281.83186 245.21875,281.78125 C 245.40312,277.76451 245.68389,273.72218 246.03125,269.65625 C 246.08186,269.06391 237.1908,265.59962 236.59375,266 z"
         id="path9475" />
    </g>
  </g>
</svg>
